<svg id="visual" viewBox="0 0 1920 1080" width="1920" height="1080" xmlns="http://www.w3.org/2000/svg" xmlns:xlink="http://www.w3.org/1999/xlink" version="1.1"><rect x="0" y="0" width="1920" height="1080" fill="#023859"></rect><path d="M0 702L13.8 709.7C27.7 717.3 55.3 732.7 83.2 730.5C111 728.3 139 708.7 166.8 691.7C194.7 674.7 222.3 660.3 250.2 653C278 645.7 306 645.3 333.8 652.8C361.7 660.3 389.3 675.7 417.2 683C445 690.3 473 689.7 500.8 699.5C528.7 709.3 556.3 729.7 584.2 739.5C612 749.3 640 748.7 667.8 730.7C695.7 712.7 723.3 677.3 751.2 671.5C779 665.7 807 689.3 834.8 688.8C862.7 688.3 890.3 663.7 918.2 660C946 656.3 974 673.7 1001.8 694.8C1029.7 716 1057.3 741 1085.2 749.7C1113 758.3 1141 750.7 1168.8 731.5C1196.7 712.3 1224.3 681.7 1252.2 681C1280 680.3 1308 709.7 1335.8 707.5C1363.7 705.3 1391.3 671.7 1419.2 655.3C1447 639 1475 640 1502.8 648C1530.7 656 1558.3 671 1586.2 668.3C1614 665.7 1642 645.3 1669.8 653.3C1697.7 661.3 1725.3 697.7 1753.2 718.8C1781 740 1809 746 1836.8 750.2C1864.7 754.3 1892.3 756.7 1906.2 757.8L1920 759L1920 1081L1906.2 1081C1892.3 1081 1864.7 1081 1836.8 1081C1809 1081 1781 1081 1753.2 1081C1725.3 1081 1697.7 1081 1669.8 1081C1642 1081 1614 1081 1586.2 1081C1558.3 1081 1530.7 1081 1502.8 1081C1475 1081 1447 1081 1419.2 1081C1391.3 1081 1363.7 1081 1335.8 1081C1308 1081 1280 1081 1252.2 1081C1224.3 1081 1196.7 1081 1168.8 1081C1141 1081 1113 1081 1085.2 1081C1057.3 1081 1029.7 1081 1001.8 1081C974 1081 946 1081 918.2 1081C890.3 1081 862.7 1081 834.8 1081C807 1081 779 1081 751.2 1081C723.3 1081 695.7 1081 667.8 1081C640 1081 612 1081 584.2 1081C556.3 1081 528.7 1081 500.8 1081C473 1081 445 1081 417.2 1081C389.3 1081 361.7 1081 333.8 1081C306 1081 278 1081 250.2 1081C222.3 1081 194.7 1081 166.8 1081C139 1081 111 1081 83.2 1081C55.3 1081 27.7 1081 13.8 1081L0 1081Z" fill="#b6462f"></path><path d="M0 697L13.8 709.8C27.7 722.7 55.3 748.3 83.2 748.5C111 748.7 139 723.3 166.8 720.7C194.7 718 222.3 738 250.2 750.3C278 762.7 306 767.3 333.8 761C361.7 754.7 389.3 737.3 417.2 721.3C445 705.3 473 690.7 500.8 702.3C528.7 714 556.3 752 584.2 751.3C612 750.7 640 711.3 667.8 699C695.7 686.7 723.3 701.3 751.2 709C779 716.7 807 717.3 834.8 722.2C862.7 727 890.3 736 918.2 739.2C946 742.3 974 739.7 1001.8 744.3C1029.7 749 1057.3 761 1085.2 760C1113 759 1141 745 1168.8 730.3C1196.7 715.7 1224.3 700.3 1252.2 706C1280 711.7 1308 738.3 1335.8 737.3C1363.7 736.3 1391.3 707.7 1419.2 691.2C1447 674.7 1475 670.3 1502.8 681.5C1530.7 692.7 1558.3 719.3 1586.2 739C1614 758.7 1642 771.3 1669.8 770.3C1697.7 769.3 1725.3 754.7 1753.2 746C1781 737.3 1809 734.7 1836.8 734.2C1864.7 733.7 1892.3 735.3 1906.2 736.2L1920 737L1920 1081L1906.2 1081C1892.3 1081 1864.7 1081 1836.8 1081C1809 1081 1781 1081 1753.2 1081C1725.3 1081 1697.7 1081 1669.8 1081C1642 1081 1614 1081 1586.2 1081C1558.3 1081 1530.7 1081 1502.8 1081C1475 1081 1447 1081 1419.2 1081C1391.3 1081 1363.7 1081 1335.8 1081C1308 1081 1280 1081 1252.2 1081C1224.3 1081 1196.7 1081 1168.8 1081C1141 1081 1113 1081 1085.2 1081C1057.3 1081 1029.7 1081 1001.8 1081C974 1081 946 1081 918.2 1081C890.3 1081 862.7 1081 834.8 1081C807 1081 779 1081 751.2 1081C723.3 1081 695.7 1081 667.8 1081C640 1081 612 1081 584.2 1081C556.3 1081 528.7 1081 500.8 1081C473 1081 445 1081 417.2 1081C389.3 1081 361.7 1081 333.8 1081C306 1081 278 1081 250.2 1081C222.3 1081 194.7 1081 166.8 1081C139 1081 111 1081 83.2 1081C55.3 1081 27.7 1081 13.8 1081L0 1081Z" fill="#c34c34"></path><path d="M0 838L13.8 829.5C27.7 821 55.3 804 83.2 797.5C111 791 139 795 166.8 801.7C194.7 808.3 222.3 817.7 250.2 803C278 788.3 306 749.7 333.8 748.5C361.7 747.3 389.3 783.7 417.2 790.2C445 796.7 473 773.3 500.8 755.3C528.7 737.3 556.3 724.7 584.2 724.8C612 725 640 738 667.8 744C695.7 750 723.3 749 751.2 757.2C779 765.3 807 782.7 834.8 784.7C862.7 786.7 890.3 773.3 918.2 764.7C946 756 974 752 1001.8 749.5C1029.7 747 1057.3 746 1085.2 749.5C1113 753 1141 761 1168.8 770.3C1196.7 779.7 1224.3 790.3 1252.2 795.3C1280 800.3 1308 799.7 1335.8 786.2C1363.7 772.7 1391.3 746.3 1419.2 748.3C1447 750.3 1475 780.7 1502.8 797.2C1530.7 813.7 1558.3 816.3 1586.2 813.3C1614 810.3 1642 801.7 1669.8 794.8C1697.7 788 1725.3 783 1753.2 780.3C1781 777.7 1809 777.3 1836.8 766C1864.7 754.7 1892.3 732.3 1906.2 721.2L1920 710L1920 1081L1906.2 1081C1892.3 1081 1864.7 1081 1836.8 1081C1809 1081 1781 1081 1753.2 1081C1725.3 1081 1697.7 1081 1669.8 1081C1642 1081 1614 1081 1586.2 1081C1558.3 1081 1530.7 1081 1502.8 1081C1475 1081 1447 1081 1419.2 1081C1391.3 1081 1363.7 1081 1335.8 1081C1308 1081 1280 1081 1252.2 1081C1224.3 1081 1196.7 1081 1168.8 1081C1141 1081 1113 1081 1085.2 1081C1057.3 1081 1029.7 1081 1001.8 1081C974 1081 946 1081 918.2 1081C890.3 1081 862.7 1081 834.8 1081C807 1081 779 1081 751.2 1081C723.3 1081 695.7 1081 667.8 1081C640 1081 612 1081 584.2 1081C556.3 1081 528.7 1081 500.8 1081C473 1081 445 1081 417.2 1081C389.3 1081 361.7 1081 333.8 1081C306 1081 278 1081 250.2 1081C222.3 1081 194.7 1081 166.8 1081C139 1081 111 1081 83.2 1081C55.3 1081 27.7 1081 13.8 1081L0 1081Z" fill="#d05338"></path><path d="M0 849L13.8 849.7C27.7 850.3 55.3 851.7 83.2 851.2C111 850.7 139 848.3 166.8 838.8C194.7 829.3 222.3 812.7 250.2 802.3C278 792 306 788 333.8 794.5C361.7 801 389.3 818 417.2 817.8C445 817.7 473 800.3 500.8 793.8C528.7 787.3 556.3 791.7 584.2 785.8C612 780 640 764 667.8 757.7C695.7 751.3 723.3 754.7 751.2 760.2C779 765.7 807 773.3 834.8 782C862.7 790.7 890.3 800.3 918.2 801C946 801.7 974 793.3 1001.8 801.5C1029.7 809.7 1057.3 834.3 1085.2 830.2C1113 826 1141 793 1168.8 786.8C1196.7 780.7 1224.3 801.3 1252.2 810.5C1280 819.7 1308 817.3 1335.8 809.8C1363.7 802.3 1391.3 789.7 1419.2 780.2C1447 770.7 1475 764.3 1502.8 769.7C1530.7 775 1558.3 792 1586.2 803.5C1614 815 1642 821 1669.8 818.3C1697.7 815.7 1725.3 804.3 1753.2 803.5C1781 802.7 1809 812.3 1836.8 820.7C1864.7 829 1892.3 836 1906.2 839.5L1920 843L1920 1081L1906.2 1081C1892.3 1081 1864.7 1081 1836.8 1081C1809 1081 1781 1081 1753.2 1081C1725.3 1081 1697.7 1081 1669.8 1081C1642 1081 1614 1081 1586.2 1081C1558.3 1081 1530.7 1081 1502.8 1081C1475 1081 1447 1081 1419.2 1081C1391.3 1081 1363.7 1081 1335.8 1081C1308 1081 1280 1081 1252.2 1081C1224.3 1081 1196.7 1081 1168.8 1081C1141 1081 1113 1081 1085.2 1081C1057.3 1081 1029.7 1081 1001.8 1081C974 1081 946 1081 918.2 1081C890.3 1081 862.7 1081 834.8 1081C807 1081 779 1081 751.2 1081C723.3 1081 695.7 1081 667.8 1081C640 1081 612 1081 584.2 1081C556.3 1081 528.7 1081 500.8 1081C473 1081 445 1081 417.2 1081C389.3 1081 361.7 1081 333.8 1081C306 1081 278 1081 250.2 1081C222.3 1081 194.7 1081 166.8 1081C139 1081 111 1081 83.2 1081C55.3 1081 27.7 1081 13.8 1081L0 1081Z" fill="#de5a3d"></path><path d="M0 807L13.8 819.5C27.7 832 55.3 857 83.2 871.7C111 886.3 139 890.7 166.8 891.5C194.7 892.3 222.3 889.7 250.2 872.3C278 855 306 823 333.8 810.5C361.7 798 389.3 805 417.2 805.2C445 805.3 473 798.7 500.8 798.3C528.7 798 556.3 804 584.2 807.3C612 810.7 640 811.3 667.8 819.3C695.7 827.3 723.3 842.7 751.2 845.7C779 848.7 807 839.3 834.8 830.2C862.7 821 890.3 812 918.2 809.5C946 807 974 811 1001.8 825C1029.7 839 1057.3 863 1085.2 860.2C1113 857.3 1141 827.7 1168.8 816.7C1196.7 805.7 1224.3 813.3 1252.2 830.5C1280 847.7 1308 874.3 1335.8 884.8C1363.7 895.3 1391.3 889.7 1419.2 875.8C1447 862 1475 840 1502.8 831.5C1530.7 823 1558.3 828 1586.2 831.2C1614 834.3 1642 835.7 1669.8 838.8C1697.7 842 1725.3 847 1753.2 856.2C1781 865.3 1809 878.7 1836.8 876.3C1864.7 874 1892.3 856 1906.2 847L1920 838L1920 1081L1906.2 1081C1892.3 1081 1864.7 1081 1836.8 1081C1809 1081 1781 1081 1753.2 1081C1725.3 1081 1697.7 1081 1669.8 1081C1642 1081 1614 1081 1586.2 1081C1558.3 1081 1530.7 1081 1502.8 1081C1475 1081 1447 1081 1419.2 1081C1391.3 1081 1363.7 1081 1335.8 1081C1308 1081 1280 1081 1252.2 1081C1224.3 1081 1196.7 1081 1168.8 1081C1141 1081 1113 1081 1085.2 1081C1057.3 1081 1029.7 1081 1001.8 1081C974 1081 946 1081 918.2 1081C890.3 1081 862.7 1081 834.8 1081C807 1081 779 1081 751.2 1081C723.3 1081 695.7 1081 667.8 1081C640 1081 612 1081 584.2 1081C556.3 1081 528.7 1081 500.8 1081C473 1081 445 1081 417.2 1081C389.3 1081 361.7 1081 333.8 1081C306 1081 278 1081 250.2 1081C222.3 1081 194.7 1081 166.8 1081C139 1081 111 1081 83.2 1081C55.3 1081 27.7 1081 13.8 1081L0 1081Z" fill="#eb6142"></path><path d="M0 878L13.8 880C27.7 882 55.3 886 83.2 884.5C111 883 139 876 166.8 871C194.7 866 222.3 863 250.2 872.8C278 882.7 306 905.3 333.8 901.8C361.7 898.3 389.3 868.7 417.2 856.5C445 844.3 473 849.7 500.8 863.7C528.7 877.7 556.3 900.3 584.2 898.2C612 896 640 869 667.8 868.7C695.7 868.3 723.3 894.7 751.2 901.2C779 907.7 807 894.3 834.8 888.7C862.7 883 890.3 885 918.2 882.8C946 880.7 974 874.3 1001.8 874.8C1029.7 875.3 1057.3 882.7 1085.2 878.2C1113 873.7 1141 857.3 1168.8 854C1196.7 850.7 1224.3 860.3 1252.2 865.5C1280 870.7 1308 871.3 1335.8 869.5C1363.7 867.7 1391.3 863.3 1419.2 868.3C1447 873.3 1475 887.7 1502.8 895.5C1530.7 903.3 1558.3 904.7 1586.2 894.7C1614 884.7 1642 863.3 1669.8 854.7C1697.7 846 1725.3 850 1753.2 861.2C1781 872.3 1809 890.7 1836.8 900.3C1864.7 910 1892.3 911 1906.2 911.5L1920 912L1920 1081L1906.2 1081C1892.3 1081 1864.7 1081 1836.8 1081C1809 1081 1781 1081 1753.2 1081C1725.3 1081 1697.7 1081 1669.8 1081C1642 1081 1614 1081 1586.2 1081C1558.3 1081 1530.7 1081 1502.8 1081C1475 1081 1447 1081 1419.2 1081C1391.3 1081 1363.7 1081 1335.8 1081C1308 1081 1280 1081 1252.2 1081C1224.3 1081 1196.7 1081 1168.8 1081C1141 1081 1113 1081 1085.2 1081C1057.3 1081 1029.7 1081 1001.8 1081C974 1081 946 1081 918.2 1081C890.3 1081 862.7 1081 834.8 1081C807 1081 779 1081 751.2 1081C723.3 1081 695.7 1081 667.8 1081C640 1081 612 1081 584.2 1081C556.3 1081 528.7 1081 500.8 1081C473 1081 445 1081 417.2 1081C389.3 1081 361.7 1081 333.8 1081C306 1081 278 1081 250.2 1081C222.3 1081 194.7 1081 166.8 1081C139 1081 111 1081 83.2 1081C55.3 1081 27.7 1081 13.8 1081L0 1081Z" fill="#f46a4a"></path><path d="M0 898L13.8 905.3C27.7 912.7 55.3 927.3 83.2 931.7C111 936 139 930 166.8 921.3C194.7 912.7 222.3 901.3 250.2 898.8C278 896.3 306 902.7 333.8 911.7C361.7 920.7 389.3 932.3 417.2 930.8C445 929.3 473 914.7 500.8 906.7C528.7 898.7 556.3 897.3 584.2 900.5C612 903.7 640 911.3 667.8 917.8C695.7 924.3 723.3 929.7 751.2 936.5C779 943.3 807 951.7 834.8 953.5C862.7 955.3 890.3 950.7 918.2 949.2C946 947.7 974 949.3 1001.8 943.8C1029.7 938.3 1057.3 925.7 1085.2 918C1113 910.3 1141 907.7 1168.8 902.7C1196.7 897.7 1224.3 890.3 1252.2 892.8C1280 895.3 1308 907.7 1335.8 909.8C1363.7 912 1391.3 904 1419.2 901.5C1447 899 1475 902 1502.8 905.7C1530.7 909.3 1558.3 913.7 1586.2 914.8C1614 916 1642 914 1669.8 910.8C1697.7 907.7 1725.3 903.3 1753.2 903.8C1781 904.3 1809 909.7 1836.8 907.5C1864.7 905.3 1892.3 895.7 1906.2 890.8L1920 886L1920 1081L1906.2 1081C1892.3 1081 1864.7 1081 1836.8 1081C1809 1081 1781 1081 1753.2 1081C1725.3 1081 1697.7 1081 1669.8 1081C1642 1081 1614 1081 1586.2 1081C1558.3 1081 1530.7 1081 1502.8 1081C1475 1081 1447 1081 1419.2 1081C1391.3 1081 1363.7 1081 1335.8 1081C1308 1081 1280 1081 1252.2 1081C1224.3 1081 1196.7 1081 1168.8 1081C1141 1081 1113 1081 1085.2 1081C1057.3 1081 1029.7 1081 1001.8 1081C974 1081 946 1081 918.2 1081C890.3 1081 862.7 1081 834.8 1081C807 1081 779 1081 751.2 1081C723.3 1081 695.7 1081 667.8 1081C640 1081 612 1081 584.2 1081C556.3 1081 528.7 1081 500.8 1081C473 1081 445 1081 417.2 1081C389.3 1081 361.7 1081 333.8 1081C306 1081 278 1081 250.2 1081C222.3 1081 194.7 1081 166.8 1081C139 1081 111 1081 83.2 1081C55.3 1081 27.7 1081 13.8 1081L0 1081Z" fill="#f77557"></path><path d="M0 949L13.8 949.8C27.7 950.7 55.3 952.3 83.2 955.8C111 959.3 139 964.7 166.8 969C194.7 973.3 222.3 976.7 250.2 971.8C278 967 306 954 333.8 950.8C361.7 947.7 389.3 954.3 417.2 962C445 969.7 473 978.3 500.8 983.3C528.7 988.3 556.3 989.7 584.2 988.3C612 987 640 983 667.8 976.5C695.7 970 723.3 961 751.2 962.7C779 964.3 807 976.7 834.8 972.8C862.7 969 890.3 949 918.2 944.2C946 939.3 974 949.7 1001.8 952.7C1029.7 955.7 1057.3 951.3 1085.2 950C1113 948.7 1141 950.3 1168.8 948.2C1196.7 946 1224.3 940 1252.2 946.7C1280 953.3 1308 972.7 1335.8 971.8C1363.7 971 1391.3 950 1419.2 945.7C1447 941.3 1475 953.7 1502.8 954.5C1530.7 955.3 1558.3 944.7 1586.2 948C1614 951.3 1642 968.7 1669.8 972.3C1697.7 976 1725.3 966 1753.2 965.5C1781 965 1809 974 1836.8 975.5C1864.7 977 1892.3 971 1906.2 968L1920 965L1920 1081L1906.2 1081C1892.3 1081 1864.7 1081 1836.8 1081C1809 1081 1781 1081 1753.2 1081C1725.3 1081 1697.7 1081 1669.8 1081C1642 1081 1614 1081 1586.2 1081C1558.3 1081 1530.7 1081 1502.8 1081C1475 1081 1447 1081 1419.2 1081C1391.3 1081 1363.7 1081 1335.8 1081C1308 1081 1280 1081 1252.2 1081C1224.3 1081 1196.7 1081 1168.8 1081C1141 1081 1113 1081 1085.2 1081C1057.3 1081 1029.7 1081 1001.8 1081C974 1081 946 1081 918.2 1081C890.3 1081 862.7 1081 834.8 1081C807 1081 779 1081 751.2 1081C723.3 1081 695.7 1081 667.8 1081C640 1081 612 1081 584.2 1081C556.3 1081 528.7 1081 500.8 1081C473 1081 445 1081 417.2 1081C389.3 1081 361.7 1081 333.8 1081C306 1081 278 1081 250.2 1081C222.3 1081 194.7 1081 166.8 1081C139 1081 111 1081 83.2 1081C55.3 1081 27.7 1081 13.8 1081L0 1081Z" fill="#fa8064"></path><path d="M0 1023L13.8 1013.3C27.7 1003.7 55.3 984.3 83.2 984.5C111 984.7 139 1004.3 166.8 1011C194.7 1017.7 222.3 1011.3 250.2 1010C278 1008.7 306 1012.3 333.8 1014.3C361.7 1016.3 389.3 1016.7 417.2 1013C445 1009.3 473 1001.7 500.8 1000.8C528.7 1000 556.3 1006 584.2 1003.2C612 1000.3 640 988.7 667.8 983.8C695.7 979 723.3 981 751.2 983.7C779 986.3 807 989.7 834.8 987.3C862.7 985 890.3 977 918.2 977.3C946 977.7 974 986.3 1001.8 992.3C1029.7 998.3 1057.3 1001.7 1085.2 1004C1113 1006.3 1141 1007.7 1168.8 1004.2C1196.7 1000.7 1224.3 992.3 1252.2 992C1280 991.7 1308 999.3 1335.8 999.8C1363.7 1000.3 1391.3 993.7 1419.2 994.3C1447 995 1475 1003 1502.8 1005.2C1530.7 1007.3 1558.3 1003.7 1586.2 1002.8C1614 1002 1642 1004 1669.8 1004.8C1697.7 1005.7 1725.3 1005.3 1753.2 1002C1781 998.7 1809 992.3 1836.8 993.7C1864.7 995 1892.3 1004 1906.2 1008.5L1920 1013L1920 1081L1906.2 1081C1892.3 1081 1864.7 1081 1836.8 1081C1809 1081 1781 1081 1753.2 1081C1725.3 1081 1697.7 1081 1669.8 1081C1642 1081 1614 1081 1586.2 1081C1558.3 1081 1530.7 1081 1502.8 1081C1475 1081 1447 1081 1419.2 1081C1391.3 1081 1363.7 1081 1335.8 1081C1308 1081 1280 1081 1252.2 1081C1224.3 1081 1196.7 1081 1168.8 1081C1141 1081 1113 1081 1085.2 1081C1057.3 1081 1029.7 1081 1001.8 1081C974 1081 946 1081 918.2 1081C890.3 1081 862.7 1081 834.8 1081C807 1081 779 1081 751.2 1081C723.3 1081 695.7 1081 667.8 1081C640 1081 612 1081 584.2 1081C556.3 1081 528.7 1081 500.8 1081C473 1081 445 1081 417.2 1081C389.3 1081 361.7 1081 333.8 1081C306 1081 278 1081 250.2 1081C222.3 1081 194.7 1081 166.8 1081C139 1081 111 1081 83.2 1081C55.3 1081 27.7 1081 13.8 1081L0 1081Z" fill="#fd8a70"></path><path d="M0 1053L13.8 1050.2C27.7 1047.3 55.3 1041.7 83.2 1041.5C111 1041.3 139 1046.7 166.8 1042.7C194.7 1038.7 222.3 1025.3 250.2 1024.3C278 1023.3 306 1034.7 333.8 1041C361.7 1047.3 389.3 1048.7 417.2 1043.8C445 1039 473 1028 500.8 1026.8C528.7 1025.7 556.3 1034.3 584.2 1039.5C612 1044.7 640 1046.3 667.8 1046.2C695.7 1046 723.3 1044 751.2 1040.7C779 1037.3 807 1032.7 834.8 1027.5C862.7 1022.3 890.3 1016.7 918.2 1020.3C946 1024 974 1037 1001.8 1042.3C1029.7 1047.7 1057.3 1045.3 1085.2 1045.2C1113 1045 1141 1047 1168.8 1040.8C1196.7 1034.7 1224.3 1020.3 1252.2 1020.8C1280 1021.3 1308 1036.7 1335.8 1039.3C1363.7 1042 1391.3 1032 1419.2 1031.7C1447 1031.3 1475 1040.7 1502.8 1044.7C1530.7 1048.7 1558.3 1047.3 1586.2 1042.3C1614 1037.3 1642 1028.7 1669.8 1023.8C1697.7 1019 1725.3 1018 1753.2 1016.7C1781 1015.3 1809 1013.7 1836.8 1012.2C1864.7 1010.7 1892.3 1009.3 1906.2 1008.7L1920 1008L1920 1081L1906.2 1081C1892.3 1081 1864.7 1081 1836.8 1081C1809 1081 1781 1081 1753.2 1081C1725.3 1081 1697.7 1081 1669.8 1081C1642 1081 1614 1081 1586.2 1081C1558.3 1081 1530.7 1081 1502.8 1081C1475 1081 1447 1081 1419.2 1081C1391.3 1081 1363.7 1081 1335.8 1081C1308 1081 1280 1081 1252.2 1081C1224.3 1081 1196.7 1081 1168.8 1081C1141 1081 1113 1081 1085.2 1081C1057.3 1081 1029.7 1081 1001.8 1081C974 1081 946 1081 918.2 1081C890.3 1081 862.7 1081 834.8 1081C807 1081 779 1081 751.2 1081C723.3 1081 695.7 1081 667.8 1081C640 1081 612 1081 584.2 1081C556.3 1081 528.7 1081 500.8 1081C473 1081 445 1081 417.2 1081C389.3 1081 361.7 1081 333.8 1081C306 1081 278 1081 250.2 1081C222.3 1081 194.7 1081 166.8 1081C139 1081 111 1081 83.2 1081C55.3 1081 27.7 1081 13.8 1081L0 1081Z" fill="#ff957d"></path></svg>