<svg id="visual" viewBox="0 0 1920 1080" width="1920" height="1080" xmlns="http://www.w3.org/2000/svg" xmlns:xlink="http://www.w3.org/1999/xlink" version="1.1"><path d="M0 66L13.8 58.8C27.7 51.7 55.3 37.3 83.2 28.3C111 19.3 139 15.7 166.8 15.7C194.7 15.7 222.3 19.3 250.2 21.2C278 23 306 23 333.8 28.3C361.7 33.7 389.3 44.3 417.2 42.5C445 40.7 473 26.3 500.8 26.3C528.7 26.3 556.3 40.7 584.2 47.8C612 55 640 55 667.8 56.8C695.7 58.7 723.3 62.3 751.2 64.2C779 66 807 66 834.8 60.5C862.7 55 890.3 44 918.2 40.3C946 36.7 974 40.3 1001.8 36.8C1029.7 33.3 1057.3 22.7 1085.2 17.3C1113 12 1141 12 1168.8 12C1196.7 12 1224.3 12 1252.2 13.8C1280 15.7 1308 19.3 1335.8 28.3C1363.7 37.3 1391.3 51.7 1419.2 53.3C1447 55 1475 44 1502.8 38.5C1530.7 33 1558.3 33 1586.2 29.5C1614 26 1642 19 1669.8 20.8C1697.7 22.7 1725.3 33.3 1753.2 33.3C1781 33.3 1809 22.7 1836.8 20.8C1864.7 19 1892.3 26 1906.2 29.5L1920 33L1920 0L1906.2 0C1892.3 0 1864.7 0 1836.8 0C1809 0 1781 0 1753.2 0C1725.3 0 1697.7 0 1669.8 0C1642 0 1614 0 1586.2 0C1558.3 0 1530.7 0 1502.8 0C1475 0 1447 0 1419.2 0C1391.3 0 1363.7 0 1335.8 0C1308 0 1280 0 1252.2 0C1224.3 0 1196.7 0 1168.8 0C1141 0 1113 0 1085.2 0C1057.3 0 1029.7 0 1001.8 0C974 0 946 0 918.2 0C890.3 0 862.7 0 834.8 0C807 0 779 0 751.2 0C723.3 0 695.7 0 667.8 0C640 0 612 0 584.2 0C556.3 0 528.7 0 500.8 0C473 0 445 0 417.2 0C389.3 0 361.7 0 333.8 0C306 0 278 0 250.2 0C222.3 0 194.7 0 166.8 0C139 0 111 0 83.2 0C55.3 0 27.7 0 13.8 0L0 0Z" fill="#023859"></path><path d="M0 163L13.8 150.3C27.7 137.7 55.3 112.3 83.2 98C111 83.7 139 80.3 166.8 84C194.7 87.7 222.3 98.3 250.2 100C278 101.7 306 94.3 333.8 105.2C361.7 116 389.3 145 417.2 145C445 145 473 116 500.8 105.2C528.7 94.3 556.3 101.7 584.2 101.7C612 101.7 640 94.3 667.8 90.7C695.7 87 723.3 87 751.2 90.7C779 94.3 807 101.7 834.8 114.3C862.7 127 890.3 145 918.2 146.8C946 148.7 974 134.3 1001.8 125.3C1029.7 116.3 1057.3 112.7 1085.2 98.2C1113 83.7 1141 58.3 1168.8 58.3C1196.7 58.3 1224.3 83.7 1252.2 94.5C1280 105.3 1308 101.7 1335.8 105.3C1363.7 109 1391.3 120 1419.2 127.2C1447 134.3 1475 137.7 1502.8 141.2C1530.7 144.7 1558.3 148.3 1586.2 146.7C1614 145 1642 138 1669.8 138C1697.7 138 1725.3 145 1753.2 143.2C1781 141.3 1809 130.7 1836.8 125.3C1864.7 120 1892.3 120 1906.2 120L1920 120L1920 31L1906.2 27.5C1892.3 24 1864.7 17 1836.8 18.8C1809 20.7 1781 31.3 1753.2 31.3C1725.3 31.3 1697.7 20.7 1669.8 18.8C1642 17 1614 24 1586.2 27.5C1558.3 31 1530.7 31 1502.8 36.5C1475 42 1447 53 1419.2 51.3C1391.3 49.7 1363.7 35.3 1335.8 26.3C1308 17.3 1280 13.7 1252.2 11.8C1224.3 10 1196.7 10 1168.8 10C1141 10 1113 10 1085.2 15.3C1057.3 20.7 1029.7 31.3 1001.8 34.8C974 38.3 946 34.7 918.2 38.3C890.3 42 862.7 53 834.8 58.5C807 64 779 64 751.2 62.2C723.3 60.3 695.7 56.7 667.8 54.8C640 53 612 53 584.2 45.8C556.3 38.7 528.7 24.3 500.8 24.3C473 24.3 445 38.7 417.2 40.5C389.3 42.3 361.7 31.7 333.8 26.3C306 21 278 21 250.2 19.2C222.3 17.3 194.7 13.7 166.8 13.7C139 13.7 111 17.3 83.2 26.3C55.3 35.3 27.7 49.7 13.8 56.8L0 64Z" fill="#42437a"></path><path d="M0 217L13.8 208C27.7 199 55.3 181 83.2 168.3C111 155.7 139 148.3 166.8 143C194.7 137.7 222.3 134.3 250.2 127.2C278 120 306 109 333.8 118C361.7 127 389.3 156 417.2 165C445 174 473 163 500.8 164.7C528.7 166.3 556.3 180.7 584.2 175.3C612 170 640 145 667.8 132.5C695.7 120 723.3 120 751.2 132.5C779 145 807 170 834.8 179C862.7 188 890.3 181 918.2 170.3C946 159.7 974 145.3 1001.8 141.7C1029.7 138 1057.3 145 1085.2 136C1113 127 1141 102 1168.8 98.5C1196.7 95 1224.3 113 1252.2 127.3C1280 141.7 1308 152.3 1335.8 166.7C1363.7 181 1391.3 199 1419.2 209.8C1447 220.7 1475 224.3 1502.8 217.2C1530.7 210 1558.3 192 1586.2 184.8C1614 177.7 1642 181.3 1669.8 186.7C1697.7 192 1725.3 199 1753.2 200.7C1781 202.3 1809 198.7 1836.8 193.3C1864.7 188 1892.3 181 1906.2 177.5L1920 174L1920 118L1906.2 118C1892.3 118 1864.7 118 1836.8 123.3C1809 128.7 1781 139.3 1753.2 141.2C1725.3 143 1697.7 136 1669.8 136C1642 136 1614 143 1586.2 144.7C1558.3 146.3 1530.7 142.7 1502.8 139.2C1475 135.7 1447 132.3 1419.2 125.2C1391.3 118 1363.7 107 1335.8 103.3C1308 99.7 1280 103.3 1252.2 92.5C1224.3 81.7 1196.7 56.3 1168.8 56.3C1141 56.3 1113 81.7 1085.2 96.2C1057.3 110.7 1029.7 114.3 1001.8 123.3C974 132.3 946 146.7 918.2 144.8C890.3 143 862.7 125 834.8 112.3C807 99.7 779 92.3 751.2 88.7C723.3 85 695.7 85 667.8 88.7C640 92.3 612 99.7 584.2 99.7C556.3 99.7 528.7 92.3 500.8 103.2C473 114 445 143 417.2 143C389.3 143 361.7 114 333.8 103.2C306 92.3 278 99.7 250.2 98C222.3 96.3 194.7 85.7 166.8 82C139 78.3 111 81.7 83.2 96C55.3 110.3 27.7 135.7 13.8 148.3L0 161Z" fill="#854586"></path><path d="M0 303L13.8 294C27.7 285 55.3 267 83.2 250.8C111 234.7 139 220.3 166.8 202.3C194.7 184.3 222.3 162.7 250.2 150.2C278 137.7 306 134.3 333.8 156C361.7 177.7 389.3 224.3 417.2 245.8C445 267.3 473 263.7 500.8 269C528.7 274.3 556.3 288.7 584.2 281.5C612 274.3 640 245.7 667.8 226C695.7 206.3 723.3 195.7 751.2 202.8C779 210 807 235 834.8 238.5C862.7 242 890.3 224 918.2 220.5C946 217 974 228 1001.8 226.2C1029.7 224.3 1057.3 209.7 1085.2 197C1113 184.3 1141 173.7 1168.8 179.2C1196.7 184.7 1224.3 206.3 1252.2 217.2C1280 228 1308 228 1335.8 229.8C1363.7 231.7 1391.3 235.3 1419.2 253.3C1447 271.3 1475 303.7 1502.8 309C1530.7 314.3 1558.3 292.7 1586.2 280C1614 267.3 1642 263.7 1669.8 267.3C1697.7 271 1725.3 282 1753.2 274.8C1781 267.7 1809 242.3 1836.8 233.3C1864.7 224.3 1892.3 231.7 1906.2 235.3L1920 239L1920 172L1906.2 175.5C1892.3 179 1864.7 186 1836.8 191.3C1809 196.7 1781 200.3 1753.2 198.7C1725.3 197 1697.7 190 1669.8 184.7C1642 179.3 1614 175.7 1586.2 182.8C1558.3 190 1530.7 208 1502.8 215.2C1475 222.3 1447 218.7 1419.2 207.8C1391.3 197 1363.7 179 1335.8 164.7C1308 150.3 1280 139.7 1252.2 125.3C1224.3 111 1196.7 93 1168.8 96.5C1141 100 1113 125 1085.2 134C1057.3 143 1029.7 136 1001.8 139.7C974 143.3 946 157.7 918.2 168.3C890.3 179 862.7 186 834.8 177C807 168 779 143 751.2 130.5C723.3 118 695.7 118 667.8 130.5C640 143 612 168 584.2 173.3C556.3 178.7 528.7 164.3 500.8 162.7C473 161 445 172 417.2 163C389.3 154 361.7 125 333.8 116C306 107 278 118 250.2 125.2C222.3 132.3 194.7 135.7 166.8 141C139 146.3 111 153.7 83.2 166.3C55.3 179 27.7 197 13.8 206L0 215Z" fill="#c24378"></path><path d="M0 325L13.8 314.2C27.7 303.3 55.3 281.7 83.2 269C111 256.3 139 252.7 166.8 243.7C194.7 234.7 222.3 220.3 250.2 213.2C278 206 306 206 333.8 229.5C361.7 253 389.3 300 417.2 310.8C445 321.7 473 296.3 500.8 298C528.7 299.7 556.3 328.3 584.2 332C612 335.7 640 314.3 667.8 287.3C695.7 260.3 723.3 227.7 751.2 224C779 220.3 807 245.7 834.8 258.3C862.7 271 890.3 271 918.2 272.8C946 274.7 974 278.3 1001.8 276.5C1029.7 274.7 1057.3 267.3 1085.2 260.2C1113 253 1141 246 1168.8 244.2C1196.7 242.3 1224.3 245.7 1252.2 251C1280 256.3 1308 263.7 1335.8 265.5C1363.7 267.3 1391.3 263.7 1419.2 279.8C1447 296 1475 332 1502.8 335.7C1530.7 339.3 1558.3 310.7 1586.2 299.8C1614 289 1642 296 1669.8 299.5C1697.7 303 1725.3 303 1753.2 297.7C1781 292.3 1809 281.7 1836.8 278.2C1864.7 274.7 1892.3 278.3 1906.2 280.2L1920 282L1920 237L1906.2 233.3C1892.3 229.7 1864.7 222.3 1836.8 231.3C1809 240.3 1781 265.7 1753.2 272.8C1725.3 280 1697.7 269 1669.8 265.3C1642 261.7 1614 265.3 1586.2 278C1558.3 290.7 1530.7 312.3 1502.8 307C1475 301.7 1447 269.3 1419.2 251.3C1391.3 233.3 1363.7 229.7 1335.8 227.8C1308 226 1280 226 1252.2 215.2C1224.3 204.3 1196.7 182.7 1168.8 177.2C1141 171.7 1113 182.3 1085.2 195C1057.3 207.7 1029.7 222.3 1001.8 224.2C974 226 946 215 918.2 218.5C890.3 222 862.7 240 834.8 236.5C807 233 779 208 751.2 200.8C723.3 193.7 695.7 204.3 667.8 224C640 243.7 612 272.3 584.2 279.5C556.3 286.7 528.7 272.3 500.8 267C473 261.7 445 265.3 417.2 243.8C389.3 222.3 361.7 175.7 333.8 154C306 132.3 278 135.7 250.2 148.2C222.3 160.7 194.7 182.3 166.8 200.3C139 218.3 111 232.7 83.2 248.8C55.3 265 27.7 283 13.8 292L0 301Z" fill="#ea5556"></path><path d="M0 357L13.8 362.5C27.7 368 55.3 379 83.2 373.7C111 368.3 139 346.7 166.8 343C194.7 339.3 222.3 353.7 250.2 341C278 328.3 306 288.7 333.8 310.3C361.7 332 389.3 415 417.2 425.8C445 436.7 473 375.3 500.8 359.2C528.7 343 556.3 372 584.2 381C612 390 640 379 667.8 352C695.7 325 723.3 282 751.2 278.5C779 275 807 311 834.8 338C862.7 365 890.3 383 918.2 375.7C946 368.3 974 335.7 1001.8 337.3C1029.7 339 1057.3 375 1085.2 371.5C1113 368 1141 325 1168.8 301.7C1196.7 278.3 1224.3 274.7 1252.2 281.8C1280 289 1308 307 1335.8 323.2C1363.7 339.3 1391.3 353.7 1419.2 380.7C1447 407.7 1475 447.3 1502.8 458.2C1530.7 469 1558.3 451 1586.2 440.2C1614 429.3 1642 425.7 1669.8 407.7C1697.7 389.7 1725.3 357.3 1753.2 348.3C1781 339.3 1809 353.7 1836.8 368C1864.7 382.3 1892.3 396.7 1906.2 403.8L1920 411L1920 280L1906.2 278.2C1892.3 276.3 1864.7 272.7 1836.8 276.2C1809 279.7 1781 290.3 1753.2 295.7C1725.3 301 1697.7 301 1669.8 297.5C1642 294 1614 287 1586.2 297.8C1558.3 308.7 1530.7 337.3 1502.8 333.7C1475 330 1447 294 1419.2 277.8C1391.3 261.7 1363.7 265.3 1335.8 263.5C1308 261.7 1280 254.3 1252.2 249C1224.3 243.7 1196.7 240.3 1168.8 242.2C1141 244 1113 251 1085.2 258.2C1057.3 265.3 1029.7 272.7 1001.8 274.5C974 276.3 946 272.7 918.2 270.8C890.3 269 862.7 269 834.8 256.3C807 243.7 779 218.3 751.2 222C723.3 225.7 695.7 258.3 667.8 285.3C640 312.3 612 333.7 584.2 330C556.3 326.3 528.7 297.7 500.8 296C473 294.3 445 319.7 417.2 308.8C389.3 298 361.7 251 333.8 227.5C306 204 278 204 250.2 211.2C222.3 218.3 194.7 232.7 166.8 241.7C139 250.7 111 254.3 83.2 267C55.3 279.7 27.7 301.3 13.8 312.2L0 323Z" fill="#f26444"></path><path d="M0 422L13.8 432.8C27.7 443.7 55.3 465.3 83.2 461.8C111 458.3 139 429.7 166.8 424.3C194.7 419 222.3 437 250.2 428C278 419 306 383 333.8 393.7C361.7 404.3 389.3 461.7 417.2 474.2C445 486.7 473 454.3 500.8 436.3C528.7 418.3 556.3 414.7 584.2 412.8C612 411 640 411 667.8 394.8C695.7 378.7 723.3 346.3 751.2 344.7C779 343 807 372 834.8 400.8C862.7 429.7 890.3 458.3 918.2 454.7C946 451 974 415 1001.8 416.8C1029.7 418.7 1057.3 458.3 1085.2 458.3C1113 458.3 1141 418.7 1168.8 382.7C1196.7 346.7 1224.3 314.3 1252.2 310.7C1280 307 1308 332 1335.8 359C1363.7 386 1391.3 415 1419.2 440.3C1447 465.7 1475 487.3 1502.8 501.7C1530.7 516 1558.3 523 1586.2 510.3C1614 497.7 1642 465.3 1669.8 447.3C1697.7 429.3 1725.3 425.7 1753.2 427.5C1781 429.3 1809 436.7 1836.8 440.3C1864.7 444 1892.3 444 1906.2 444L1920 444L1920 409L1906.2 401.8C1892.3 394.7 1864.7 380.3 1836.8 366C1809 351.7 1781 337.3 1753.2 346.3C1725.3 355.3 1697.7 387.7 1669.8 405.7C1642 423.7 1614 427.3 1586.2 438.2C1558.3 449 1530.7 467 1502.8 456.2C1475 445.3 1447 405.7 1419.2 378.7C1391.3 351.7 1363.7 337.3 1335.8 321.2C1308 305 1280 287 1252.2 279.8C1224.3 272.7 1196.7 276.3 1168.8 299.7C1141 323 1113 366 1085.2 369.5C1057.3 373 1029.7 337 1001.8 335.3C974 333.7 946 366.3 918.2 373.7C890.3 381 862.7 363 834.8 336C807 309 779 273 751.2 276.5C723.3 280 695.7 323 667.8 350C640 377 612 388 584.2 379C556.3 370 528.7 341 500.8 357.2C473 373.3 445 434.7 417.2 423.8C389.3 413 361.7 330 333.8 308.3C306 286.7 278 326.3 250.2 339C222.3 351.7 194.7 337.3 166.8 341C139 344.7 111 366.3 83.2 371.7C55.3 377 27.7 366 13.8 360.5L0 355Z" fill="#f26444"></path><path d="M0 498L13.8 501.5C27.7 505 55.3 512 83.2 508.3C111 504.7 139 490.3 166.8 492.2C194.7 494 222.3 512 250.2 503C278 494 306 458 333.8 463.5C361.7 469 389.3 516 417.2 517.8C445 519.7 473 476.3 500.8 456.5C528.7 436.7 556.3 440.3 584.2 444C612 447.7 640 451.3 667.8 433.3C695.7 415.3 723.3 375.7 751.2 373.8C779 372 807 408 834.8 436.8C862.7 465.7 890.3 487.3 918.2 487.3C946 487.3 974 465.7 1001.8 474.7C1029.7 483.7 1057.3 523.3 1085.2 517.8C1113 512.3 1141 461.7 1168.8 425.7C1196.7 389.7 1224.3 368.3 1252.2 368.3C1280 368.3 1308 389.7 1335.8 416.7C1363.7 443.7 1391.3 476.3 1419.2 499.8C1447 523.3 1475 537.7 1502.8 543C1530.7 548.3 1558.3 544.7 1586.2 535.7C1614 526.7 1642 512.3 1669.8 499.7C1697.7 487 1725.3 476 1753.2 470.5C1781 465 1809 465 1836.8 466.8C1864.7 468.7 1892.3 472.3 1906.2 474.2L1920 476L1920 442L1906.2 442C1892.3 442 1864.7 442 1836.8 438.3C1809 434.7 1781 427.3 1753.2 425.5C1725.3 423.7 1697.7 427.3 1669.8 445.3C1642 463.3 1614 495.7 1586.2 508.3C1558.3 521 1530.7 514 1502.8 499.7C1475 485.3 1447 463.7 1419.2 438.3C1391.3 413 1363.7 384 1335.8 357C1308 330 1280 305 1252.2 308.7C1224.3 312.3 1196.7 344.7 1168.8 380.7C1141 416.7 1113 456.3 1085.2 456.3C1057.3 456.3 1029.7 416.7 1001.8 414.8C974 413 946 449 918.2 452.7C890.3 456.3 862.7 427.7 834.8 398.8C807 370 779 341 751.2 342.7C723.3 344.3 695.7 376.7 667.8 392.8C640 409 612 409 584.2 410.8C556.3 412.7 528.7 416.3 500.8 434.3C473 452.3 445 484.7 417.2 472.2C389.3 459.7 361.7 402.3 333.8 391.7C306 381 278 417 250.2 426C222.3 435 194.7 417 166.8 422.3C139 427.7 111 456.3 83.2 459.8C55.3 463.3 27.7 441.7 13.8 430.8L0 420Z" fill="#ea5556"></path><path d="M0 703L13.8 694C27.7 685 55.3 667 83.2 670.7C111 674.3 139 699.7 166.8 705C194.7 710.3 222.3 695.7 250.2 681.2C278 666.7 306 652.3 333.8 677.7C361.7 703 389.3 768 417.2 759C445 750 473 667 500.8 659.7C528.7 652.3 556.3 720.7 584.2 765.7C612 810.7 640 832.3 667.8 843.2C695.7 854 723.3 854 751.2 809C779 764 807 674 834.8 629C862.7 584 890.3 584 918.2 612.8C946 641.7 974 699.3 1001.8 739C1029.7 778.7 1057.3 800.3 1085.2 780.5C1113 760.7 1141 699.3 1168.8 670.5C1196.7 641.7 1224.3 645.3 1252.2 667C1280 688.7 1308 728.3 1335.8 732C1363.7 735.7 1391.3 703.3 1419.2 696.2C1447 689 1475 707 1502.8 710.5C1530.7 714 1558.3 703 1586.2 683.2C1614 663.3 1642 634.7 1669.8 650.8C1697.7 667 1725.3 728 1753.2 726.2C1781 724.3 1809 659.7 1836.8 627.3C1864.7 595 1892.3 595 1906.2 595L1920 595L1920 474L1906.2 472.2C1892.3 470.3 1864.7 466.7 1836.8 464.8C1809 463 1781 463 1753.2 468.5C1725.3 474 1697.7 485 1669.8 497.7C1642 510.3 1614 524.7 1586.2 533.7C1558.3 542.7 1530.7 546.3 1502.8 541C1475 535.7 1447 521.3 1419.2 497.8C1391.3 474.3 1363.7 441.7 1335.8 414.7C1308 387.7 1280 366.3 1252.2 366.3C1224.3 366.3 1196.7 387.7 1168.8 423.7C1141 459.7 1113 510.3 1085.2 515.8C1057.3 521.3 1029.7 481.7 1001.8 472.7C974 463.7 946 485.3 918.2 485.3C890.3 485.3 862.7 463.7 834.8 434.8C807 406 779 370 751.2 371.8C723.3 373.7 695.7 413.3 667.8 431.3C640 449.3 612 445.7 584.2 442C556.3 438.3 528.7 434.7 500.8 454.5C473 474.3 445 517.7 417.2 515.8C389.3 514 361.7 467 333.8 461.5C306 456 278 492 250.2 501C222.3 510 194.7 492 166.8 490.2C139 488.3 111 502.7 83.2 506.3C55.3 510 27.7 503 13.8 499.5L0 496Z" fill="#c24378"></path><path d="M0 941L13.8 924.7C27.7 908.3 55.3 875.7 83.2 872C111 868.3 139 893.7 166.8 917.2C194.7 940.7 222.3 962.3 250.2 971.3C278 980.3 306 976.7 333.8 974.8C361.7 973 389.3 973 417.2 960.3C445 947.7 473 922.3 500.8 906.2C528.7 890 556.3 883 584.2 892C612 901 640 926 667.8 936.8C695.7 947.7 723.3 944.3 751.2 919.2C779 894 807 847 834.8 834.3C862.7 821.7 890.3 843.3 918.2 866.8C946 890.3 974 915.7 1001.8 940.8C1029.7 966 1057.3 991 1085.2 960.3C1113 929.7 1141 843.3 1168.8 823.5C1196.7 803.7 1224.3 850.3 1252.2 886.3C1280 922.3 1308 947.7 1335.8 949.5C1363.7 951.3 1391.3 929.7 1419.2 926C1447 922.3 1475 936.7 1502.8 929.5C1530.7 922.3 1558.3 893.7 1586.2 872.2C1614 850.7 1642 836.3 1669.8 852.5C1697.7 868.7 1725.3 915.3 1753.2 922.5C1781 929.7 1809 897.3 1836.8 883C1864.7 868.7 1892.3 872.3 1906.2 874.2L1920 876L1920 593L1906.2 593C1892.3 593 1864.7 593 1836.8 625.3C1809 657.7 1781 722.3 1753.2 724.2C1725.3 726 1697.7 665 1669.8 648.8C1642 632.7 1614 661.3 1586.2 681.2C1558.3 701 1530.7 712 1502.8 708.5C1475 705 1447 687 1419.2 694.2C1391.3 701.3 1363.7 733.7 1335.8 730C1308 726.3 1280 686.7 1252.2 665C1224.3 643.3 1196.7 639.7 1168.8 668.5C1141 697.3 1113 758.7 1085.2 778.5C1057.3 798.3 1029.7 776.7 1001.8 737C974 697.3 946 639.7 918.2 610.8C890.3 582 862.7 582 834.8 627C807 672 779 762 751.2 807C723.3 852 695.7 852 667.8 841.2C640 830.3 612 808.7 584.2 763.7C556.3 718.7 528.7 650.3 500.8 657.7C473 665 445 748 417.2 757C389.3 766 361.7 701 333.8 675.7C306 650.3 278 664.7 250.2 679.2C222.3 693.7 194.7 708.3 166.8 703C139 697.7 111 672.3 83.2 668.7C55.3 665 27.7 683 13.8 692L0 701Z" fill="#854586"></path><path d="M0 1049L13.8 1032.7C27.7 1016.3 55.3 983.7 83.2 976.3C111 969 139 987 166.8 1001.5C194.7 1016 222.3 1027 250.2 1032.5C278 1038 306 1038 333.8 1034.3C361.7 1030.7 389.3 1023.3 417.2 1026.8C445 1030.3 473 1044.7 500.8 1039.3C528.7 1034 556.3 1009 584.2 996.5C612 984 640 984 667.8 996.5C695.7 1009 723.3 1034 751.2 1028.5C779 1023 807 987 834.8 970.8C862.7 954.7 890.3 958.3 918.2 974.7C946 991 974 1020 1001.8 1036.2C1029.7 1052.3 1057.3 1055.7 1085.2 1039.3C1113 1023 1141 987 1168.8 967.3C1196.7 947.7 1224.3 944.3 1252.2 955.2C1280 966 1308 991 1335.8 996.3C1363.7 1001.7 1391.3 987.3 1419.2 987.3C1447 987.3 1475 1001.7 1502.8 1007C1530.7 1012.3 1558.3 1008.7 1586.2 1008.7C1614 1008.7 1642 1012.3 1669.8 1010.7C1697.7 1009 1725.3 1002 1753.2 993C1781 984 1809 973 1836.8 973C1864.7 973 1892.3 984 1906.2 989.5L1920 995L1920 874L1906.2 872.2C1892.3 870.3 1864.7 866.7 1836.8 881C1809 895.3 1781 927.7 1753.2 920.5C1725.3 913.3 1697.7 866.7 1669.8 850.5C1642 834.3 1614 848.7 1586.2 870.2C1558.3 891.7 1530.7 920.3 1502.8 927.5C1475 934.7 1447 920.3 1419.2 924C1391.3 927.7 1363.7 949.3 1335.8 947.5C1308 945.7 1280 920.3 1252.2 884.3C1224.3 848.3 1196.7 801.7 1168.8 821.5C1141 841.3 1113 927.7 1085.2 958.3C1057.3 989 1029.7 964 1001.8 938.8C974 913.7 946 888.3 918.2 864.8C890.3 841.3 862.7 819.7 834.8 832.3C807 845 779 892 751.2 917.2C723.3 942.3 695.7 945.7 667.8 934.8C640 924 612 899 584.2 890C556.3 881 528.7 888 500.8 904.2C473 920.3 445 945.7 417.2 958.3C389.3 971 361.7 971 333.8 972.8C306 974.7 278 978.3 250.2 969.3C222.3 960.3 194.7 938.7 166.8 915.2C139 891.7 111 866.3 83.2 870C55.3 873.7 27.7 906.3 13.8 922.7L0 939Z" fill="#42437a"></path><path d="M0 1081L13.8 1081C27.7 1081 55.3 1081 83.2 1081C111 1081 139 1081 166.8 1081C194.7 1081 222.3 1081 250.2 1081C278 1081 306 1081 333.8 1081C361.7 1081 389.3 1081 417.2 1081C445 1081 473 1081 500.8 1081C528.7 1081 556.3 1081 584.2 1081C612 1081 640 1081 667.8 1081C695.7 1081 723.3 1081 751.2 1081C779 1081 807 1081 834.8 1081C862.7 1081 890.3 1081 918.2 1081C946 1081 974 1081 1001.8 1081C1029.7 1081 1057.3 1081 1085.2 1081C1113 1081 1141 1081 1168.8 1081C1196.7 1081 1224.3 1081 1252.2 1081C1280 1081 1308 1081 1335.8 1081C1363.7 1081 1391.3 1081 1419.2 1081C1447 1081 1475 1081 1502.8 1081C1530.7 1081 1558.3 1081 1586.2 1081C1614 1081 1642 1081 1669.8 1081C1697.7 1081 1725.3 1081 1753.2 1081C1781 1081 1809 1081 1836.8 1081C1864.7 1081 1892.3 1081 1906.2 1081L1920 1081L1920 993L1906.2 987.5C1892.3 982 1864.7 971 1836.8 971C1809 971 1781 982 1753.2 991C1725.3 1000 1697.7 1007 1669.8 1008.7C1642 1010.3 1614 1006.7 1586.2 1006.7C1558.3 1006.7 1530.7 1010.3 1502.8 1005C1475 999.7 1447 985.3 1419.2 985.3C1391.3 985.3 1363.7 999.7 1335.8 994.3C1308 989 1280 964 1252.2 953.2C1224.3 942.3 1196.7 945.7 1168.8 965.3C1141 985 1113 1021 1085.2 1037.3C1057.3 1053.7 1029.7 1050.3 1001.8 1034.2C974 1018 946 989 918.2 972.7C890.3 956.3 862.7 952.7 834.8 968.8C807 985 779 1021 751.2 1026.5C723.3 1032 695.7 1007 667.8 994.5C640 982 612 982 584.2 994.5C556.3 1007 528.7 1032 500.8 1037.3C473 1042.7 445 1028.3 417.2 1024.8C389.3 1021.3 361.7 1028.7 333.8 1032.3C306 1036 278 1036 250.2 1030.5C222.3 1025 194.7 1014 166.8 999.5C139 985 111 967 83.2 974.3C55.3 981.7 27.7 1014.3 13.8 1030.7L0 1047Z" fill="#023859"></path></svg>