<svg id="visual" viewBox="0 0 1920 1080" width="1920" height="1080" xmlns="http://www.w3.org/2000/svg" xmlns:xlink="http://www.w3.org/1999/xlink" version="1.1"><path d="M0 55L13.8 60.3C27.7 65.7 55.3 76.3 83.2 69.2C111 62 139 37 166.8 31.7C194.7 26.3 222.3 40.7 250.2 44.2C278 47.7 306 40.3 333.8 44C361.7 47.7 389.3 62.3 417.2 64.2C445 66 473 55 500.8 44.2C528.7 33.3 556.3 22.7 584.2 24.5C612 26.3 640 40.7 667.8 55C695.7 69.3 723.3 83.7 751.2 89C779 94.3 807 90.7 834.8 78.2C862.7 65.7 890.3 44.3 918.2 42.7C946 41 974 59 1001.8 69.7C1029.7 80.3 1057.3 83.7 1085.2 80C1113 76.3 1141 65.7 1168.8 65.7C1196.7 65.7 1224.3 76.3 1252.2 74.5C1280 72.7 1308 58.3 1335.8 60.2C1363.7 62 1391.3 80 1419.2 74.7C1447 69.3 1475 40.7 1502.8 35.3C1530.7 30 1558.3 48 1586.2 60.5C1614 73 1642 80 1669.8 83.5C1697.7 87 1725.3 87 1753.2 87C1781 87 1809 87 1836.8 76.3C1864.7 65.7 1892.3 44.3 1906.2 33.7L1920 23L1920 0L1906.2 0C1892.3 0 1864.7 0 1836.8 0C1809 0 1781 0 1753.2 0C1725.3 0 1697.7 0 1669.8 0C1642 0 1614 0 1586.2 0C1558.3 0 1530.7 0 1502.8 0C1475 0 1447 0 1419.2 0C1391.3 0 1363.7 0 1335.8 0C1308 0 1280 0 1252.2 0C1224.3 0 1196.7 0 1168.8 0C1141 0 1113 0 1085.2 0C1057.3 0 1029.7 0 1001.8 0C974 0 946 0 918.2 0C890.3 0 862.7 0 834.8 0C807 0 779 0 751.2 0C723.3 0 695.7 0 667.8 0C640 0 612 0 584.2 0C556.3 0 528.7 0 500.8 0C473 0 445 0 417.2 0C389.3 0 361.7 0 333.8 0C306 0 278 0 250.2 0C222.3 0 194.7 0 166.8 0C139 0 111 0 83.2 0C55.3 0 27.7 0 13.8 0L0 0Z" fill="#023859"></path><path d="M0 120L13.8 125.3C27.7 130.7 55.3 141.3 83.2 148.5C111 155.7 139 159.3 166.8 168.3C194.7 177.3 222.3 191.7 250.2 191.7C278 191.7 306 177.3 333.8 175.5C361.7 173.7 389.3 184.3 417.2 175.3C445 166.3 473 137.7 500.8 173.7C528.7 209.7 556.3 310.3 584.2 341C612 371.7 640 332.3 667.8 325.2C695.7 318 723.3 343 751.2 321.3C779 299.7 807 231.3 834.8 190C862.7 148.7 890.3 134.3 918.2 138C946 141.7 974 163.3 1001.8 179.5C1029.7 195.7 1057.3 206.3 1085.2 215.3C1113 224.3 1141 231.7 1168.8 229.8C1196.7 228 1224.3 217 1252.2 233.2C1280 249.3 1308 292.7 1335.8 296.3C1363.7 300 1391.3 264 1419.2 240.5C1447 217 1475 206 1502.8 191.5C1530.7 177 1558.3 159 1586.2 182.5C1614 206 1642 271 1669.8 317.8C1697.7 364.7 1725.3 393.3 1753.2 402.3C1781 411.3 1809 400.7 1836.8 362.8C1864.7 325 1892.3 260 1906.2 227.5L1920 195L1920 21L1906.2 31.7C1892.3 42.3 1864.7 63.7 1836.8 74.3C1809 85 1781 85 1753.2 85C1725.3 85 1697.7 85 1669.8 81.5C1642 78 1614 71 1586.2 58.5C1558.3 46 1530.7 28 1502.8 33.3C1475 38.7 1447 67.3 1419.2 72.7C1391.3 78 1363.7 60 1335.8 58.2C1308 56.3 1280 70.7 1252.2 72.5C1224.3 74.3 1196.7 63.7 1168.8 63.7C1141 63.7 1113 74.3 1085.2 78C1057.3 81.7 1029.7 78.3 1001.8 67.7C974 57 946 39 918.2 40.7C890.3 42.3 862.7 63.7 834.8 76.2C807 88.7 779 92.3 751.2 87C723.3 81.7 695.7 67.3 667.8 53C640 38.7 612 24.3 584.2 22.5C556.3 20.7 528.7 31.3 500.8 42.2C473 53 445 64 417.2 62.2C389.3 60.3 361.7 45.7 333.8 42C306 38.3 278 45.7 250.2 42.2C222.3 38.7 194.7 24.3 166.8 29.7C139 35 111 60 83.2 67.2C55.3 74.3 27.7 63.7 13.8 58.3L0 53Z" fill="#1c3d68"></path><path d="M0 239L13.8 240.7C27.7 242.3 55.3 245.7 83.2 238.3C111 231 139 213 166.8 216.7C194.7 220.3 222.3 245.7 250.2 251.2C278 256.7 306 242.3 333.8 253.2C361.7 264 389.3 300 417.2 283.8C445 267.7 473 199.3 500.8 226.3C528.7 253.3 556.3 375.7 584.2 409.8C612 444 640 390 667.8 372C695.7 354 723.3 372 751.2 366.5C779 361 807 332 834.8 292.3C862.7 252.7 890.3 202.3 918.2 204.2C946 206 974 260 1001.8 283.5C1029.7 307 1057.3 300 1085.2 307.2C1113 314.3 1141 335.7 1168.8 326.7C1196.7 317.7 1224.3 278.3 1252.2 292.8C1280 307.3 1308 375.7 1335.8 390C1363.7 404.3 1391.3 364.7 1419.2 339.5C1447 314.3 1475 303.7 1502.8 280.3C1530.7 257 1558.3 221 1586.2 244.3C1614 267.7 1642 350.3 1669.8 415C1697.7 479.7 1725.3 526.3 1753.2 526.3C1781 526.3 1809 479.7 1836.8 434.7C1864.7 389.7 1892.3 346.3 1906.2 324.7L1920 303L1920 193L1906.2 225.5C1892.3 258 1864.7 323 1836.8 360.8C1809 398.7 1781 409.3 1753.2 400.3C1725.3 391.3 1697.7 362.7 1669.8 315.8C1642 269 1614 204 1586.2 180.5C1558.3 157 1530.7 175 1502.8 189.5C1475 204 1447 215 1419.2 238.5C1391.3 262 1363.7 298 1335.8 294.3C1308 290.7 1280 247.3 1252.2 231.2C1224.3 215 1196.7 226 1168.8 227.8C1141 229.7 1113 222.3 1085.2 213.3C1057.3 204.3 1029.7 193.7 1001.8 177.5C974 161.3 946 139.7 918.2 136C890.3 132.3 862.7 146.7 834.8 188C807 229.3 779 297.7 751.2 319.3C723.3 341 695.7 316 667.8 323.2C640 330.3 612 369.7 584.2 339C556.3 308.3 528.7 207.7 500.8 171.7C473 135.7 445 164.3 417.2 173.3C389.3 182.3 361.7 171.7 333.8 173.5C306 175.3 278 189.7 250.2 189.7C222.3 189.7 194.7 175.3 166.8 166.3C139 157.3 111 153.7 83.2 146.5C55.3 139.3 27.7 128.7 13.8 123.3L0 118Z" fill="#354274"></path><path d="M0 433L13.8 436.7C27.7 440.3 55.3 447.7 83.2 433.3C111 419 139 383 166.8 366.7C194.7 350.3 222.3 353.7 250.2 357.2C278 360.7 306 364.3 333.8 380.7C361.7 397 389.3 426 417.2 424.2C445 422.3 473 389.7 500.8 407.7C528.7 425.7 556.3 494.3 584.2 499.8C612 505.3 640 447.7 667.8 426C695.7 404.3 723.3 418.7 751.2 415C779 411.3 807 389.7 834.8 375.3C862.7 361 890.3 354 918.2 363C946 372 974 397 1001.8 404.2C1029.7 411.3 1057.3 400.7 1085.2 413.3C1113 426 1141 462 1168.8 447.5C1196.7 433 1224.3 368 1252.2 373.3C1280 378.7 1308 454.3 1335.8 488.7C1363.7 523 1391.3 516 1419.2 487.2C1447 458.3 1475 407.7 1502.8 366.2C1530.7 324.7 1558.3 292.3 1586.2 341C1614 389.7 1642 519.3 1669.8 586C1697.7 652.7 1725.3 656.3 1753.2 654.5C1781 652.7 1809 645.3 1836.8 591.3C1864.7 537.3 1892.3 436.7 1906.2 386.3L1920 336L1920 301L1906.2 322.7C1892.3 344.3 1864.7 387.7 1836.8 432.7C1809 477.7 1781 524.3 1753.2 524.3C1725.3 524.3 1697.7 477.7 1669.8 413C1642 348.3 1614 265.7 1586.2 242.3C1558.3 219 1530.7 255 1502.8 278.3C1475 301.7 1447 312.3 1419.2 337.5C1391.3 362.7 1363.7 402.3 1335.8 388C1308 373.7 1280 305.3 1252.2 290.8C1224.3 276.3 1196.7 315.7 1168.8 324.7C1141 333.7 1113 312.3 1085.2 305.2C1057.3 298 1029.7 305 1001.8 281.5C974 258 946 204 918.2 202.2C890.3 200.3 862.7 250.7 834.8 290.3C807 330 779 359 751.2 364.5C723.3 370 695.7 352 667.8 370C640 388 612 442 584.2 407.8C556.3 373.7 528.7 251.3 500.8 224.3C473 197.3 445 265.7 417.2 281.8C389.3 298 361.7 262 333.8 251.2C306 240.3 278 254.7 250.2 249.2C222.3 243.7 194.7 218.3 166.8 214.7C139 211 111 229 83.2 236.3C55.3 243.7 27.7 240.3 13.8 238.7L0 237Z" fill="#4f447e"></path><path d="M0 465L13.8 475.8C27.7 486.7 55.3 508.3 83.2 499.3C111 490.3 139 450.7 166.8 432.7C194.7 414.7 222.3 418.3 250.2 416.7C278 415 306 408 333.8 426C361.7 444 389.3 487 417.2 496C445 505 473 480 500.8 490.8C528.7 501.7 556.3 548.3 584.2 557.3C612 566.3 640 537.7 667.8 519.7C695.7 501.7 723.3 494.3 751.2 474.5C779 454.7 807 422.3 834.8 411.5C862.7 400.7 890.3 411.3 918.2 431.2C946 451 974 480 1001.8 480C1029.7 480 1057.3 451 1085.2 463.5C1113 476 1141 530 1168.8 530C1196.7 530 1224.3 476 1252.2 470.7C1280 465.3 1308 508.7 1335.8 533.8C1363.7 559 1391.3 566 1419.2 539C1447 512 1475 451 1502.8 413.3C1530.7 375.7 1558.3 361.3 1586.2 424.3C1614 487.3 1642 627.7 1669.8 685.2C1697.7 742.7 1725.3 717.3 1753.2 704.7C1781 692 1809 692 1836.8 643.5C1864.7 595 1892.3 498 1906.2 449.5L1920 401L1920 334L1906.2 384.3C1892.3 434.7 1864.7 535.3 1836.8 589.3C1809 643.3 1781 650.7 1753.2 652.5C1725.3 654.3 1697.7 650.7 1669.8 584C1642 517.3 1614 387.7 1586.2 339C1558.3 290.3 1530.7 322.7 1502.8 364.2C1475 405.7 1447 456.3 1419.2 485.2C1391.3 514 1363.7 521 1335.8 486.7C1308 452.3 1280 376.7 1252.2 371.3C1224.3 366 1196.7 431 1168.8 445.5C1141 460 1113 424 1085.2 411.3C1057.3 398.7 1029.7 409.3 1001.8 402.2C974 395 946 370 918.2 361C890.3 352 862.7 359 834.8 373.3C807 387.7 779 409.3 751.2 413C723.3 416.7 695.7 402.3 667.8 424C640 445.7 612 503.3 584.2 497.8C556.3 492.3 528.7 423.7 500.8 405.7C473 387.7 445 420.3 417.2 422.2C389.3 424 361.7 395 333.8 378.7C306 362.3 278 358.7 250.2 355.2C222.3 351.7 194.7 348.3 166.8 364.7C139 381 111 417 83.2 431.3C55.3 445.7 27.7 438.3 13.8 434.7L0 431Z" fill="#6a4584"></path><path d="M0 552L13.8 552C27.7 552 55.3 552 83.2 539.3C111 526.7 139 501.3 166.8 488.7C194.7 476 222.3 476 250.2 476C278 476 306 476 333.8 494C361.7 512 389.3 548 417.2 549.8C445 551.7 473 519.3 500.8 530.2C528.7 541 556.3 595 584.2 602.2C612 609.3 640 569.7 667.8 544.5C695.7 519.3 723.3 508.7 751.2 492.5C779 476.3 807 454.7 834.8 454.7C862.7 454.7 890.3 476.3 918.2 492.5C946 508.7 974 519.3 1001.8 512.2C1029.7 505 1057.3 480 1085.2 490.8C1113 501.7 1141 548.3 1168.8 557.3C1196.7 566.3 1224.3 537.7 1252.2 543C1280 548.3 1308 587.7 1335.8 611C1363.7 634.3 1391.3 641.7 1419.2 607.5C1447 573.3 1475 497.7 1502.8 458C1530.7 418.3 1558.3 414.7 1586.2 474.2C1614 533.7 1642 656.3 1669.8 715.8C1697.7 775.3 1725.3 771.7 1753.2 764.3C1781 757 1809 746 1836.8 695.5C1864.7 645 1892.3 555 1906.2 510L1920 465L1920 399L1906.2 447.5C1892.3 496 1864.7 593 1836.8 641.5C1809 690 1781 690 1753.2 702.7C1725.3 715.3 1697.7 740.7 1669.8 683.2C1642 625.7 1614 485.3 1586.2 422.3C1558.3 359.3 1530.7 373.7 1502.8 411.3C1475 449 1447 510 1419.2 537C1391.3 564 1363.7 557 1335.8 531.8C1308 506.7 1280 463.3 1252.2 468.7C1224.3 474 1196.7 528 1168.8 528C1141 528 1113 474 1085.2 461.5C1057.3 449 1029.7 478 1001.8 478C974 478 946 449 918.2 429.2C890.3 409.3 862.7 398.7 834.8 409.5C807 420.3 779 452.7 751.2 472.5C723.3 492.3 695.7 499.7 667.8 517.7C640 535.7 612 564.3 584.2 555.3C556.3 546.3 528.7 499.7 500.8 488.8C473 478 445 503 417.2 494C389.3 485 361.7 442 333.8 424C306 406 278 413 250.2 414.7C222.3 416.3 194.7 412.7 166.8 430.7C139 448.7 111 488.3 83.2 497.3C55.3 506.3 27.7 484.7 13.8 473.8L0 463Z" fill="#854586"></path><path d="M0 822L13.8 827.3C27.7 832.7 55.3 843.3 83.2 828.8C111 814.3 139 774.7 166.8 751.3C194.7 728 222.3 721 250.2 715.7C278 710.3 306 706.7 333.8 722.8C361.7 739 389.3 775 417.2 791.2C445 807.3 473 803.7 500.8 798.3C528.7 793 556.3 786 584.2 798.7C612 811.3 640 843.7 667.8 829.2C695.7 814.7 723.3 753.3 751.2 738.8C779 724.3 807 756.7 834.8 769.3C862.7 782 890.3 775 918.2 780.5C946 786 974 804 1001.8 820.2C1029.7 836.3 1057.3 850.7 1085.2 829C1113 807.3 1141 749.7 1168.8 760.5C1196.7 771.3 1224.3 850.7 1252.2 854.3C1280 858 1308 786 1335.8 769.8C1363.7 753.7 1391.3 793.3 1419.2 795.2C1447 797 1475 761 1502.8 750.2C1530.7 739.3 1558.3 753.7 1586.2 775.2C1614 796.7 1642 825.3 1669.8 854.2C1697.7 883 1725.3 912 1753.2 904.8C1781 897.7 1809 854.3 1836.8 821.8C1864.7 789.3 1892.3 767.7 1906.2 756.8L1920 746L1920 463L1906.2 508C1892.3 553 1864.7 643 1836.8 693.5C1809 744 1781 755 1753.2 762.3C1725.3 769.7 1697.7 773.3 1669.8 713.8C1642 654.3 1614 531.7 1586.2 472.2C1558.3 412.7 1530.7 416.3 1502.8 456C1475 495.7 1447 571.3 1419.2 605.5C1391.3 639.7 1363.7 632.3 1335.8 609C1308 585.7 1280 546.3 1252.2 541C1224.3 535.7 1196.7 564.3 1168.8 555.3C1141 546.3 1113 499.7 1085.2 488.8C1057.3 478 1029.7 503 1001.8 510.2C974 517.3 946 506.7 918.2 490.5C890.3 474.3 862.7 452.7 834.8 452.7C807 452.7 779 474.3 751.2 490.5C723.3 506.7 695.7 517.3 667.8 542.5C640 567.7 612 607.3 584.2 600.2C556.3 593 528.7 539 500.8 528.2C473 517.3 445 549.7 417.2 547.8C389.3 546 361.7 510 333.8 492C306 474 278 474 250.2 474C222.3 474 194.7 474 166.8 486.7C139 499.3 111 524.7 83.2 537.3C55.3 550 27.7 550 13.8 550L0 550Z" fill="#9f4383"></path><path d="M0 865L13.8 870.3C27.7 875.7 55.3 886.3 83.2 873.7C111 861 139 825 166.8 803.5C194.7 782 222.3 775 250.2 775C278 775 306 782 333.8 792.8C361.7 803.7 389.3 818.3 417.2 825.7C445 833 473 833 500.8 838.3C528.7 843.7 556.3 854.3 584.2 865C612 875.7 640 886.3 667.8 872C695.7 857.7 723.3 818.3 751.2 818.3C779 818.3 807 857.7 834.8 864.8C862.7 872 890.3 847 918.2 850.7C946 854.3 974 886.7 1001.8 906.5C1029.7 926.3 1057.3 933.7 1085.2 912C1113 890.3 1141 839.7 1168.8 848.7C1196.7 857.7 1224.3 926.3 1252.2 922.8C1280 919.3 1308 843.7 1335.8 820.2C1363.7 796.7 1391.3 825.3 1419.2 832.5C1447 839.7 1475 825.3 1502.8 814.5C1530.7 803.7 1558.3 796.3 1586.2 814.3C1614 832.3 1642 875.7 1669.8 911.7C1697.7 947.7 1725.3 976.3 1753.2 969.2C1781 962 1809 919 1836.8 877.7C1864.7 836.3 1892.3 796.7 1906.2 776.8L1920 757L1920 744L1906.2 754.8C1892.3 765.7 1864.7 787.3 1836.8 819.8C1809 852.3 1781 895.7 1753.2 902.8C1725.3 910 1697.7 881 1669.8 852.2C1642 823.3 1614 794.7 1586.2 773.2C1558.3 751.7 1530.7 737.3 1502.8 748.2C1475 759 1447 795 1419.2 793.2C1391.3 791.3 1363.7 751.7 1335.8 767.8C1308 784 1280 856 1252.2 852.3C1224.3 848.7 1196.7 769.3 1168.8 758.5C1141 747.7 1113 805.3 1085.2 827C1057.3 848.7 1029.7 834.3 1001.8 818.2C974 802 946 784 918.2 778.5C890.3 773 862.7 780 834.8 767.3C807 754.7 779 722.3 751.2 736.8C723.3 751.3 695.7 812.7 667.8 827.2C640 841.7 612 809.3 584.2 796.7C556.3 784 528.7 791 500.8 796.3C473 801.7 445 805.3 417.2 789.2C389.3 773 361.7 737 333.8 720.8C306 704.7 278 708.3 250.2 713.7C222.3 719 194.7 726 166.8 749.3C139 772.7 111 812.3 83.2 826.8C55.3 841.3 27.7 830.7 13.8 825.3L0 820Z" fill="#b7437d"></path><path d="M0 1005L13.8 994.3C27.7 983.7 55.3 962.3 83.2 953.3C111 944.3 139 947.7 166.8 945.8C194.7 944 222.3 937 250.2 933.5C278 930 306 930 333.8 935.3C361.7 940.7 389.3 951.3 417.2 949.5C445 947.7 473 933.3 500.8 935.2C528.7 937 556.3 955 584.2 958.7C612 962.3 640 951.7 667.8 940.8C695.7 930 723.3 919 751.2 929.7C779 940.3 807 972.7 834.8 979.8C862.7 987 890.3 969 918.2 967.3C946 965.7 974 980.3 1001.8 985.8C1029.7 991.3 1057.3 987.7 1085.2 967.8C1113 948 1141 912 1168.8 917.3C1196.7 922.7 1224.3 969.3 1252.2 974.7C1280 980 1308 944 1335.8 940.5C1363.7 937 1391.3 966 1419.2 975C1447 984 1475 973 1502.8 962.2C1530.7 951.3 1558.3 940.7 1586.2 940.7C1614 940.7 1642 951.3 1669.8 967.5C1697.7 983.7 1725.3 1005.3 1753.2 1007.2C1781 1009 1809 991 1836.8 973C1864.7 955 1892.3 937 1906.2 928L1920 919L1920 755L1906.2 774.8C1892.3 794.7 1864.7 834.3 1836.8 875.7C1809 917 1781 960 1753.2 967.2C1725.3 974.3 1697.7 945.7 1669.8 909.7C1642 873.7 1614 830.3 1586.2 812.3C1558.3 794.3 1530.7 801.7 1502.8 812.5C1475 823.3 1447 837.7 1419.2 830.5C1391.3 823.3 1363.7 794.7 1335.8 818.2C1308 841.7 1280 917.3 1252.2 920.8C1224.3 924.3 1196.7 855.7 1168.8 846.7C1141 837.7 1113 888.3 1085.2 910C1057.3 931.7 1029.7 924.3 1001.8 904.5C974 884.7 946 852.3 918.2 848.7C890.3 845 862.7 870 834.8 862.8C807 855.7 779 816.3 751.2 816.3C723.3 816.3 695.7 855.7 667.8 870C640 884.3 612 873.7 584.2 863C556.3 852.3 528.7 841.7 500.8 836.3C473 831 445 831 417.2 823.7C389.3 816.3 361.7 801.7 333.8 790.8C306 780 278 773 250.2 773C222.3 773 194.7 780 166.8 801.5C139 823 111 859 83.2 871.7C55.3 884.3 27.7 873.7 13.8 868.3L0 863Z" fill="#cc4473"></path><path d="M0 1027L13.8 1019.8C27.7 1012.7 55.3 998.3 83.2 994.7C111 991 139 998 166.8 999.8C194.7 1001.7 222.3 998.3 250.2 987.7C278 977 306 959 333.8 964.3C361.7 969.7 389.3 998.3 417.2 1000C445 1001.7 473 976.3 500.8 976.3C528.7 976.3 556.3 1001.7 584.2 1003.5C612 1005.3 640 983.7 667.8 972.8C695.7 962 723.3 962 751.2 972.8C779 983.7 807 1005.3 834.8 1007.2C862.7 1009 890.3 991 918.2 992.8C946 994.7 974 1016.3 1001.8 1021.7C1029.7 1027 1057.3 1016 1085.2 999.8C1113 983.7 1141 962.3 1168.8 966C1196.7 969.7 1224.3 998.3 1252.2 996.5C1280 994.7 1308 962.3 1335.8 966C1363.7 969.7 1391.3 1009.3 1419.2 1018.3C1447 1027.3 1475 1005.7 1502.8 991.2C1530.7 976.7 1558.3 969.3 1586.2 969.3C1614 969.3 1642 976.7 1669.8 991.2C1697.7 1005.7 1725.3 1027.3 1753.2 1027.3C1781 1027.3 1809 1005.7 1836.8 994.8C1864.7 984 1892.3 984 1906.2 984L1920 984L1920 917L1906.2 926C1892.3 935 1864.7 953 1836.8 971C1809 989 1781 1007 1753.2 1005.2C1725.3 1003.3 1697.7 981.7 1669.8 965.5C1642 949.3 1614 938.7 1586.2 938.7C1558.3 938.7 1530.7 949.3 1502.8 960.2C1475 971 1447 982 1419.2 973C1391.3 964 1363.7 935 1335.8 938.5C1308 942 1280 978 1252.2 972.7C1224.3 967.3 1196.7 920.7 1168.8 915.3C1141 910 1113 946 1085.2 965.8C1057.3 985.7 1029.7 989.3 1001.8 983.8C974 978.3 946 963.7 918.2 965.3C890.3 967 862.7 985 834.8 977.8C807 970.7 779 938.3 751.2 927.7C723.3 917 695.7 928 667.8 938.8C640 949.7 612 960.3 584.2 956.7C556.3 953 528.7 935 500.8 933.2C473 931.3 445 945.7 417.2 947.5C389.3 949.3 361.7 938.7 333.8 933.3C306 928 278 928 250.2 931.5C222.3 935 194.7 942 166.8 943.8C139 945.7 111 942.3 83.2 951.3C55.3 960.3 27.7 981.7 13.8 992.3L0 1003Z" fill="#dd4a66"></path><path d="M0 1038L13.8 1034.3C27.7 1030.7 55.3 1023.3 83.2 1025.2C111 1027 139 1038 166.8 1041.7C194.7 1045.3 222.3 1041.7 250.2 1032.7C278 1023.7 306 1009.3 333.8 1014.7C361.7 1020 389.3 1045 417.2 1045C445 1045 473 1020 500.8 1014.7C528.7 1009.3 556.3 1023.7 584.2 1029C612 1034.3 640 1030.7 667.8 1027C695.7 1023.3 723.3 1019.7 751.2 1025C779 1030.3 807 1044.7 834.8 1046.5C862.7 1048.3 890.3 1037.7 918.2 1036C946 1034.3 974 1041.7 1001.8 1039.8C1029.7 1038 1057.3 1027 1085.2 1018C1113 1009 1141 1002 1168.8 1005.7C1196.7 1009.3 1224.3 1023.7 1252.2 1023.7C1280 1023.7 1308 1009.3 1335.8 1012.8C1363.7 1016.3 1391.3 1037.7 1419.2 1043C1447 1048.3 1475 1037.7 1502.8 1030.5C1530.7 1023.3 1558.3 1019.7 1586.2 1016C1614 1012.3 1642 1008.7 1669.8 1015.8C1697.7 1023 1725.3 1041 1753.2 1044.7C1781 1048.3 1809 1037.7 1836.8 1027C1864.7 1016.3 1892.3 1005.7 1906.2 1000.3L1920 995L1920 982L1906.2 982C1892.3 982 1864.7 982 1836.8 992.8C1809 1003.7 1781 1025.3 1753.2 1025.3C1725.3 1025.3 1697.7 1003.7 1669.8 989.2C1642 974.7 1614 967.3 1586.2 967.3C1558.3 967.3 1530.7 974.7 1502.8 989.2C1475 1003.7 1447 1025.3 1419.2 1016.3C1391.3 1007.3 1363.7 967.7 1335.8 964C1308 960.3 1280 992.7 1252.2 994.5C1224.3 996.3 1196.7 967.7 1168.8 964C1141 960.3 1113 981.7 1085.2 997.8C1057.3 1014 1029.7 1025 1001.8 1019.7C974 1014.3 946 992.7 918.2 990.8C890.3 989 862.7 1007 834.8 1005.2C807 1003.3 779 981.7 751.2 970.8C723.3 960 695.7 960 667.8 970.8C640 981.7 612 1003.3 584.2 1001.5C556.3 999.7 528.7 974.3 500.8 974.3C473 974.3 445 999.7 417.2 998C389.3 996.3 361.7 967.7 333.8 962.3C306 957 278 975 250.2 985.7C222.3 996.3 194.7 999.7 166.8 997.8C139 996 111 989 83.2 992.7C55.3 996.3 27.7 1010.7 13.8 1017.8L0 1025Z" fill="#ea5556"></path><path d="M0 1081L13.8 1081C27.7 1081 55.3 1081 83.2 1081C111 1081 139 1081 166.8 1081C194.7 1081 222.3 1081 250.2 1081C278 1081 306 1081 333.8 1081C361.7 1081 389.3 1081 417.2 1081C445 1081 473 1081 500.8 1081C528.7 1081 556.3 1081 584.2 1081C612 1081 640 1081 667.8 1081C695.7 1081 723.3 1081 751.2 1081C779 1081 807 1081 834.8 1081C862.7 1081 890.3 1081 918.2 1081C946 1081 974 1081 1001.8 1081C1029.7 1081 1057.3 1081 1085.2 1081C1113 1081 1141 1081 1168.8 1081C1196.7 1081 1224.3 1081 1252.2 1081C1280 1081 1308 1081 1335.8 1081C1363.7 1081 1391.3 1081 1419.2 1081C1447 1081 1475 1081 1502.8 1081C1530.7 1081 1558.3 1081 1586.2 1081C1614 1081 1642 1081 1669.8 1081C1697.7 1081 1725.3 1081 1753.2 1081C1781 1081 1809 1081 1836.8 1081C1864.7 1081 1892.3 1081 1906.2 1081L1920 1081L1920 993L1906.2 998.3C1892.3 1003.7 1864.7 1014.3 1836.8 1025C1809 1035.7 1781 1046.3 1753.2 1042.7C1725.3 1039 1697.7 1021 1669.8 1013.8C1642 1006.7 1614 1010.3 1586.2 1014C1558.3 1017.7 1530.7 1021.3 1502.8 1028.5C1475 1035.7 1447 1046.3 1419.2 1041C1391.3 1035.7 1363.7 1014.3 1335.8 1010.8C1308 1007.3 1280 1021.7 1252.2 1021.7C1224.3 1021.7 1196.7 1007.3 1168.8 1003.7C1141 1000 1113 1007 1085.2 1016C1057.3 1025 1029.7 1036 1001.8 1037.8C974 1039.7 946 1032.3 918.2 1034C890.3 1035.7 862.7 1046.3 834.8 1044.5C807 1042.7 779 1028.3 751.2 1023C723.3 1017.7 695.7 1021.3 667.8 1025C640 1028.7 612 1032.3 584.2 1027C556.3 1021.7 528.7 1007.3 500.8 1012.7C473 1018 445 1043 417.2 1043C389.3 1043 361.7 1018 333.8 1012.7C306 1007.3 278 1021.7 250.2 1030.7C222.3 1039.7 194.7 1043.3 166.8 1039.7C139 1036 111 1025 83.2 1023.2C55.3 1021.3 27.7 1028.7 13.8 1032.3L0 1036Z" fill="#f26444"></path></svg>