<svg id="visual" viewBox="0 0 1920 1080" width="1920" height="1080" xmlns="http://www.w3.org/2000/svg" xmlns:xlink="http://www.w3.org/1999/xlink" version="1.1"><path d="M0 282L13.8 278.3C27.7 274.7 55.3 267.3 83.2 260.2C111 253 139 246 166.8 222.7C194.7 199.3 222.3 159.7 250.2 181.2C278 202.7 306 285.3 333.8 312.3C361.7 339.3 389.3 310.7 417.2 290.8C445 271 473 260 500.8 225.8C528.7 191.7 556.3 134.3 584.2 92.8C612 51.3 640 25.7 667.8 56.2C695.7 86.7 723.3 173.3 751.2 186.2C779 199 807 138 834.8 109.2C862.7 80.3 890.3 83.7 918.2 87.2C946 90.7 974 94.3 1001.8 90.8C1029.7 87.3 1057.3 76.7 1085.2 161.3C1113 246 1141 426 1168.8 460.2C1196.7 494.3 1224.3 382.7 1252.2 287.2C1280 191.7 1308 112.3 1335.8 90.7C1363.7 69 1391.3 105 1419.2 155.5C1447 206 1475 271 1502.8 312.5C1530.7 354 1558.3 372 1586.2 355.8C1614 339.7 1642 289.3 1669.8 269.5C1697.7 249.7 1725.3 260.3 1753.2 262C1781 263.7 1809 256.3 1836.8 260C1864.7 263.7 1892.3 278.3 1906.2 285.7L1920 293L1920 0L1906.2 0C1892.3 0 1864.7 0 1836.8 0C1809 0 1781 0 1753.2 0C1725.3 0 1697.7 0 1669.8 0C1642 0 1614 0 1586.2 0C1558.3 0 1530.7 0 1502.8 0C1475 0 1447 0 1419.2 0C1391.3 0 1363.7 0 1335.8 0C1308 0 1280 0 1252.2 0C1224.3 0 1196.7 0 1168.8 0C1141 0 1113 0 1085.2 0C1057.3 0 1029.7 0 1001.8 0C974 0 946 0 918.2 0C890.3 0 862.7 0 834.8 0C807 0 779 0 751.2 0C723.3 0 695.7 0 667.8 0C640 0 612 0 584.2 0C556.3 0 528.7 0 500.8 0C473 0 445 0 417.2 0C389.3 0 361.7 0 333.8 0C306 0 278 0 250.2 0C222.3 0 194.7 0 166.8 0C139 0 111 0 83.2 0C55.3 0 27.7 0 13.8 0L0 0Z" fill="#023859"></path><path d="M0 325L13.8 323.2C27.7 321.3 55.3 317.7 83.2 303.3C111 289 139 264 166.8 240.7C194.7 217.3 222.3 195.7 250.2 233.3C278 271 306 368 333.8 396.8C361.7 425.7 389.3 386.3 417.2 372C445 357.7 473 368.3 500.8 341.3C528.7 314.3 556.3 249.7 584.2 188.5C612 127.3 640 69.7 667.8 102C695.7 134.3 723.3 256.7 751.2 276.5C779 296.3 807 213.7 834.8 174C862.7 134.3 890.3 137.7 918.2 148.3C946 159 974 177 1001.8 178.8C1029.7 180.7 1057.3 166.3 1085.2 240.2C1113 314 1141 476 1168.8 515.7C1196.7 555.3 1224.3 472.7 1252.2 384.5C1280 296.3 1308 202.7 1335.8 184.7C1363.7 166.7 1391.3 224.3 1419.2 276.5C1447 328.7 1475 375.3 1502.8 407.7C1530.7 440 1558.3 458 1586.2 441.8C1614 425.7 1642 375.3 1669.8 350.2C1697.7 325 1725.3 325 1753.2 328.7C1781 332.3 1809 339.7 1836.8 336C1864.7 332.3 1892.3 317.7 1906.2 310.3L1920 303L1920 291L1906.2 283.7C1892.3 276.3 1864.7 261.7 1836.8 258C1809 254.3 1781 261.7 1753.2 260C1725.3 258.3 1697.7 247.7 1669.8 267.5C1642 287.3 1614 337.7 1586.2 353.8C1558.3 370 1530.7 352 1502.8 310.5C1475 269 1447 204 1419.2 153.5C1391.3 103 1363.7 67 1335.8 88.7C1308 110.3 1280 189.7 1252.2 285.2C1224.3 380.7 1196.7 492.3 1168.8 458.2C1141 424 1113 244 1085.2 159.3C1057.3 74.7 1029.7 85.3 1001.8 88.8C974 92.3 946 88.7 918.2 85.2C890.3 81.7 862.7 78.3 834.8 107.2C807 136 779 197 751.2 184.5C723.3 172 695.7 86 667.8 55.5C640 25 612 50 584.2 91.2C556.3 132.3 528.7 189.7 500.8 223.8C473 258 445 269 417.2 288.8C389.3 308.7 361.7 337.3 333.8 310.3C306 283.3 278 200.7 250.2 179.2C222.3 157.7 194.7 197.3 166.8 220.7C139 244 111 251 83.2 258.2C55.3 265.3 27.7 272.7 13.8 276.3L0 280Z" fill="#42437a"></path><path d="M0 379L13.8 391.7C27.7 404.3 55.3 429.7 83.2 429.7C111 429.7 139 404.3 166.8 404.3C194.7 404.3 222.3 429.7 250.2 451.3C278 473 306 491 333.8 487.3C361.7 483.7 389.3 458.3 417.2 481.7C445 505 473 577 500.8 569.8C528.7 562.7 556.3 476.3 584.2 436.7C612 397 640 404 667.8 420.2C695.7 436.3 723.3 461.7 751.2 461.7C779 461.7 807 436.3 834.8 414.7C862.7 393 890.3 375 918.2 366C946 357 974 357 1001.8 389.5C1029.7 422 1057.3 487 1085.2 551.8C1113 616.7 1141 681.3 1168.8 665.2C1196.7 649 1224.3 552 1252.2 501.7C1280 451.3 1308 447.7 1335.8 462C1363.7 476.3 1391.3 508.7 1419.2 519.5C1447 530.3 1475 519.7 1502.8 523.3C1530.7 527 1558.3 545 1586.2 550.3C1614 555.7 1642 548.3 1669.8 532C1697.7 515.7 1725.3 490.3 1753.2 467C1781 443.7 1809 422.3 1836.8 400.8C1864.7 379.3 1892.3 357.7 1906.2 346.8L1920 336L1920 301L1906.2 308.3C1892.3 315.7 1864.7 330.3 1836.8 334C1809 337.7 1781 330.3 1753.2 326.7C1725.3 323 1697.7 323 1669.8 348.2C1642 373.3 1614 423.7 1586.2 439.8C1558.3 456 1530.7 438 1502.8 405.7C1475 373.3 1447 326.7 1419.2 274.5C1391.3 222.3 1363.7 164.7 1335.8 182.7C1308 200.7 1280 294.3 1252.2 382.5C1224.3 470.7 1196.7 553.3 1168.8 513.7C1141 474 1113 312 1085.2 238.2C1057.3 164.3 1029.7 178.7 1001.8 176.8C974 175 946 157 918.2 146.3C890.3 135.7 862.7 132.3 834.8 172C807 211.7 779 294.3 751.2 274.5C723.3 254.7 695.7 132.3 667.8 100C640 67.7 612 125.3 584.2 186.5C556.3 247.7 528.7 312.3 500.8 339.3C473 366.3 445 355.7 417.2 370C389.3 384.3 361.7 423.7 333.8 394.8C306 366 278 269 250.2 231.3C222.3 193.7 194.7 215.3 166.8 238.7C139 262 111 287 83.2 301.3C55.3 315.7 27.7 319.3 13.8 321.2L0 323Z" fill="#854586"></path><path d="M0 433L13.8 438.3C27.7 443.7 55.3 454.3 83.2 449C111 443.7 139 422.3 166.8 422.3C194.7 422.3 222.3 443.7 250.2 467C278 490.3 306 515.7 333.8 510.3C361.7 505 389.3 469 417.2 487C445 505 473 577 500.8 580.7C528.7 584.3 556.3 519.7 584.2 483.7C612 447.7 640 440.3 667.8 452.8C695.7 465.3 723.3 497.7 751.2 506.7C779 515.7 807 501.3 834.8 485.2C862.7 469 890.3 451 918.2 429.3C946 407.7 974 382.3 1001.8 413C1029.7 443.7 1057.3 530.3 1085.2 607.8C1113 685.3 1141 753.7 1168.8 728.3C1196.7 703 1224.3 584 1252.2 537.2C1280 490.3 1308 515.7 1335.8 528.3C1363.7 541 1391.3 541 1419.2 548.2C1447 555.3 1475 569.7 1502.8 580.5C1530.7 591.3 1558.3 598.7 1586.2 596.8C1614 595 1642 584 1669.8 575C1697.7 566 1725.3 559 1753.2 548.3C1781 537.7 1809 523.3 1836.8 501.7C1864.7 480 1892.3 451 1906.2 436.5L1920 422L1920 334L1906.2 344.8C1892.3 355.7 1864.7 377.3 1836.8 398.8C1809 420.3 1781 441.7 1753.2 465C1725.3 488.3 1697.7 513.7 1669.8 530C1642 546.3 1614 553.7 1586.2 548.3C1558.3 543 1530.7 525 1502.8 521.3C1475 517.7 1447 528.3 1419.2 517.5C1391.3 506.7 1363.7 474.3 1335.8 460C1308 445.7 1280 449.3 1252.2 499.7C1224.3 550 1196.7 647 1168.8 663.2C1141 679.3 1113 614.7 1085.2 549.8C1057.3 485 1029.7 420 1001.8 387.5C974 355 946 355 918.2 364C890.3 373 862.7 391 834.8 412.7C807 434.3 779 459.7 751.2 459.7C723.3 459.7 695.7 434.3 667.8 418.2C640 402 612 395 584.2 434.7C556.3 474.3 528.7 560.7 500.8 567.8C473 575 445 503 417.2 479.7C389.3 456.3 361.7 481.7 333.8 485.3C306 489 278 471 250.2 449.3C222.3 427.7 194.7 402.3 166.8 402.3C139 402.3 111 427.7 83.2 427.7C55.3 427.7 27.7 402.3 13.8 389.7L0 377Z" fill="#c24378"></path><path d="M0 660L13.8 670.8C27.7 681.7 55.3 703.3 83.2 685.3C111 667.3 139 609.7 166.8 606C194.7 602.3 222.3 652.7 250.2 652.7C278 652.7 306 602.3 333.8 586.2C361.7 570 389.3 588 417.2 615C445 642 473 678 500.8 672.5C528.7 667 556.3 620 584.2 596.5C612 573 640 573 667.8 574.8C695.7 576.7 723.3 580.3 751.2 585.8C779 591.3 807 598.7 834.8 591.5C862.7 584.3 890.3 562.7 918.2 537.5C946 512.3 974 483.7 1001.8 510.7C1029.7 537.7 1057.3 620.3 1085.2 681.5C1113 742.7 1141 782.3 1168.8 782.3C1196.7 782.3 1224.3 742.7 1252.2 724.7C1280 706.7 1308 710.3 1335.8 692.3C1363.7 674.3 1391.3 634.7 1419.2 652.7C1447 670.7 1475 746.3 1502.8 757.2C1530.7 768 1558.3 714 1586.2 694.2C1614 674.3 1642 688.7 1669.8 690.5C1697.7 692.3 1725.3 681.7 1753.2 694.3C1781 707 1809 743 1836.8 743C1864.7 743 1892.3 707 1906.2 689L1920 671L1920 420L1906.2 434.5C1892.3 449 1864.7 478 1836.8 499.7C1809 521.3 1781 535.7 1753.2 546.3C1725.3 557 1697.7 564 1669.8 573C1642 582 1614 593 1586.2 594.8C1558.3 596.7 1530.7 589.3 1502.8 578.5C1475 567.7 1447 553.3 1419.2 546.2C1391.3 539 1363.7 539 1335.8 526.3C1308 513.7 1280 488.3 1252.2 535.2C1224.3 582 1196.7 701 1168.8 726.3C1141 751.7 1113 683.3 1085.2 605.8C1057.3 528.3 1029.7 441.7 1001.8 411C974 380.3 946 405.7 918.2 427.3C890.3 449 862.7 467 834.8 483.2C807 499.3 779 513.7 751.2 504.7C723.3 495.7 695.7 463.3 667.8 450.8C640 438.3 612 445.7 584.2 481.7C556.3 517.7 528.7 582.3 500.8 578.7C473 575 445 503 417.2 485C389.3 467 361.7 503 333.8 508.3C306 513.7 278 488.3 250.2 465C222.3 441.7 194.7 420.3 166.8 420.3C139 420.3 111 441.7 83.2 447C55.3 452.3 27.7 441.7 13.8 436.3L0 431Z" fill="#ea5556"></path><path d="M0 671L13.8 681.7C27.7 692.3 55.3 713.7 83.2 710C111 706.3 139 677.7 166.8 676C194.7 674.3 222.3 699.7 250.2 696C278 692.3 306 659.7 333.8 652.3C361.7 645 389.3 663 417.2 691.8C445 720.7 473 760.3 500.8 753.2C528.7 746 556.3 692 584.2 668.7C612 645.3 640 652.7 667.8 658.2C695.7 663.7 723.3 667.3 751.2 663.7C779 660 807 649 834.8 640C862.7 631 890.3 624 918.2 609.7C946 595.3 974 573.7 1001.8 593.3C1029.7 613 1057.3 674 1085.2 724.3C1113 774.7 1141 814.3 1168.8 823.3C1196.7 832.3 1224.3 810.7 1252.2 787.3C1280 764 1308 739 1335.8 717.5C1363.7 696 1391.3 678 1419.2 697.8C1447 717.7 1475 775.3 1502.8 778.8C1530.7 782.3 1558.3 731.7 1586.2 717.2C1614 702.7 1642 724.3 1669.8 728C1697.7 731.7 1725.3 717.3 1753.2 728.2C1781 739 1809 775 1836.8 771.3C1864.7 767.7 1892.3 724.3 1906.2 702.7L1920 681L1920 669L1906.2 687C1892.3 705 1864.7 741 1836.8 741C1809 741 1781 705 1753.2 692.3C1725.3 679.7 1697.7 690.3 1669.8 688.5C1642 686.7 1614 672.3 1586.2 692.2C1558.3 712 1530.7 766 1502.8 755.2C1475 744.3 1447 668.7 1419.2 650.7C1391.3 632.7 1363.7 672.3 1335.8 690.3C1308 708.3 1280 704.7 1252.2 722.7C1224.3 740.7 1196.7 780.3 1168.8 780.3C1141 780.3 1113 740.7 1085.2 679.5C1057.3 618.3 1029.7 535.7 1001.8 508.7C974 481.7 946 510.3 918.2 535.5C890.3 560.7 862.7 582.3 834.8 589.5C807 596.7 779 589.3 751.2 583.8C723.3 578.3 695.7 574.7 667.8 572.8C640 571 612 571 584.2 594.5C556.3 618 528.7 665 500.8 670.5C473 676 445 640 417.2 613C389.3 586 361.7 568 333.8 584.2C306 600.3 278 650.7 250.2 650.7C222.3 650.7 194.7 600.3 166.8 604C139 607.7 111 665.3 83.2 683.3C55.3 701.3 27.7 679.7 13.8 668.8L0 658Z" fill="#f26444"></path><path d="M0 768L13.8 775.2C27.7 782.3 55.3 796.7 83.2 793C111 789.3 139 767.7 166.8 765.8C194.7 764 222.3 782 250.2 764C278 746 306 692 333.8 674C361.7 656 389.3 674 417.2 701C445 728 473 764 500.8 756.8C528.7 749.7 556.3 699.3 584.2 681.3C612 663.3 640 677.7 667.8 683C695.7 688.3 723.3 684.7 751.2 684.7C779 684.7 807 688.3 834.8 692C862.7 695.7 890.3 699.3 918.2 690.3C946 681.3 974 659.7 1001.8 672.3C1029.7 685 1057.3 732 1085.2 769.8C1113 807.7 1141 836.3 1168.8 847C1196.7 857.7 1224.3 850.3 1252.2 827C1280 803.7 1308 764.3 1335.8 739.2C1363.7 714 1391.3 703 1419.2 735.3C1447 767.7 1475 843.3 1502.8 850.5C1530.7 857.7 1558.3 796.3 1586.2 771.2C1614 746 1642 757 1669.8 758.8C1697.7 760.7 1725.3 753.3 1753.2 767.7C1781 782 1809 818 1836.8 825.2C1864.7 832.3 1892.3 810.7 1906.2 799.8L1920 789L1920 679L1906.2 700.7C1892.3 722.3 1864.7 765.7 1836.8 769.3C1809 773 1781 737 1753.2 726.2C1725.3 715.3 1697.7 729.7 1669.8 726C1642 722.3 1614 700.7 1586.2 715.2C1558.3 729.7 1530.7 780.3 1502.8 776.8C1475 773.3 1447 715.7 1419.2 695.8C1391.3 676 1363.7 694 1335.8 715.5C1308 737 1280 762 1252.2 785.3C1224.3 808.7 1196.7 830.3 1168.8 821.3C1141 812.3 1113 772.7 1085.2 722.3C1057.3 672 1029.7 611 1001.8 591.3C974 571.7 946 593.3 918.2 607.7C890.3 622 862.7 629 834.8 638C807 647 779 658 751.2 661.7C723.3 665.3 695.7 661.7 667.8 656.2C640 650.7 612 643.3 584.2 666.7C556.3 690 528.7 744 500.8 751.2C473 758.3 445 718.7 417.2 689.8C389.3 661 361.7 643 333.8 650.3C306 657.7 278 690.3 250.2 694C222.3 697.7 194.7 672.3 166.8 674C139 675.7 111 704.3 83.2 708C55.3 711.7 27.7 690.3 13.8 679.7L0 669Z" fill="#f26444"></path><path d="M0 779L13.8 789.7C27.7 800.3 55.3 821.7 83.2 839.7C111 857.7 139 872.3 166.8 886.8C194.7 901.3 222.3 915.7 250.2 886.8C278 858 306 786 333.8 780.5C361.7 775 389.3 836 417.2 857.5C445 879 473 861 500.8 846.7C528.7 832.3 556.3 821.7 584.2 802C612 782.3 640 753.7 667.8 755.5C695.7 757.3 723.3 789.7 751.2 818.3C779 847 807 872 834.8 864.8C862.7 857.7 890.3 818.3 918.2 798.7C946 779 974 779 1001.8 795.2C1029.7 811.3 1057.3 843.7 1085.2 859.8C1113 876 1141 876 1168.8 876C1196.7 876 1224.3 876 1252.2 868.8C1280 861.7 1308 847.3 1335.8 847.3C1363.7 847.3 1391.3 861.7 1419.2 879.7C1447 897.7 1475 919.3 1502.8 917.5C1530.7 915.7 1558.3 890.3 1586.2 890.3C1614 890.3 1642 915.7 1669.8 899.5C1697.7 883.3 1725.3 825.7 1753.2 823.8C1781 822 1809 876 1836.8 885C1864.7 894 1892.3 858 1906.2 840L1920 822L1920 787L1906.2 797.8C1892.3 808.7 1864.7 830.3 1836.8 823.2C1809 816 1781 780 1753.2 765.7C1725.3 751.3 1697.7 758.7 1669.8 756.8C1642 755 1614 744 1586.2 769.2C1558.3 794.3 1530.7 855.7 1502.8 848.5C1475 841.3 1447 765.7 1419.2 733.3C1391.3 701 1363.7 712 1335.8 737.2C1308 762.3 1280 801.7 1252.2 825C1224.3 848.3 1196.7 855.7 1168.8 845C1141 834.3 1113 805.7 1085.2 767.8C1057.3 730 1029.7 683 1001.8 670.3C974 657.7 946 679.3 918.2 688.3C890.3 697.3 862.7 693.7 834.8 690C807 686.3 779 682.7 751.2 682.7C723.3 682.7 695.7 686.3 667.8 681C640 675.7 612 661.3 584.2 679.3C556.3 697.3 528.7 747.7 500.8 754.8C473 762 445 726 417.2 699C389.3 672 361.7 654 333.8 672C306 690 278 744 250.2 762C222.3 780 194.7 762 166.8 763.8C139 765.7 111 787.3 83.2 791C55.3 794.7 27.7 780.3 13.8 773.2L0 766Z" fill="#ea5556"></path><path d="M0 779L13.8 800.5C27.7 822 55.3 865 83.2 886.5C111 908 139 908 166.8 917C194.7 926 222.3 944 250.2 915.2C278 886.3 306 810.7 333.8 805.3C361.7 800 389.3 865 417.2 888.5C445 912 473 894 500.8 888.5C528.7 883 556.3 890 584.2 877.3C612 864.7 640 832.3 667.8 823.3C695.7 814.3 723.3 828.7 751.2 853.8C779 879 807 915 834.8 916.8C862.7 918.7 890.3 886.3 918.2 870.2C946 854 974 854 1001.8 863C1029.7 872 1057.3 890 1085.2 899C1113 908 1141 908 1168.8 915.2C1196.7 922.3 1224.3 936.7 1252.2 933.2C1280 929.7 1308 908.3 1335.8 895.8C1363.7 883.3 1391.3 879.7 1419.2 903C1447 926.3 1475 976.7 1502.8 980.2C1530.7 983.7 1558.3 940.3 1586.2 929.5C1614 918.7 1642 940.3 1669.8 927.8C1697.7 915.3 1725.3 868.7 1753.2 874.2C1781 879.7 1809 937.3 1836.8 940.8C1864.7 944.3 1892.3 893.7 1906.2 868.3L1920 843L1920 820L1906.2 838C1892.3 856 1864.7 892 1836.8 883C1809 874 1781 820 1753.2 821.8C1725.3 823.7 1697.7 881.3 1669.8 897.5C1642 913.7 1614 888.3 1586.2 888.3C1558.3 888.3 1530.7 913.7 1502.8 915.5C1475 917.3 1447 895.7 1419.2 877.7C1391.3 859.7 1363.7 845.3 1335.8 845.3C1308 845.3 1280 859.7 1252.2 866.8C1224.3 874 1196.7 874 1168.8 874C1141 874 1113 874 1085.2 857.8C1057.3 841.7 1029.7 809.3 1001.8 793.2C974 777 946 777 918.2 796.7C890.3 816.3 862.7 855.7 834.8 862.8C807 870 779 845 751.2 816.3C723.3 787.7 695.7 755.3 667.8 753.5C640 751.7 612 780.3 584.2 800C556.3 819.7 528.7 830.3 500.8 844.7C473 859 445 877 417.2 855.5C389.3 834 361.7 773 333.8 778.5C306 784 278 856 250.2 884.8C222.3 913.7 194.7 899.3 166.8 884.8C139 870.3 111 855.7 83.2 837.7C55.3 819.7 27.7 798.3 13.8 787.7L0 777Z" fill="#c24378"></path><path d="M0 930L13.8 942.5C27.7 955 55.3 980 83.2 990.8C111 1001.7 139 998.3 166.8 998.3C194.7 998.3 222.3 1001.7 250.2 981.8C278 962 306 919 333.8 908.3C361.7 897.7 389.3 919.3 417.2 930.2C445 941 473 941 500.8 933.7C528.7 926.3 556.3 911.7 584.2 909.8C612 908 640 919 667.8 920.8C695.7 922.7 723.3 915.3 751.2 918.8C779 922.3 807 936.7 834.8 936.7C862.7 936.7 890.3 922.3 918.2 927.8C946 933.3 974 958.7 1001.8 960.5C1029.7 962.3 1057.3 940.7 1085.2 935.2C1113 929.7 1141 940.3 1168.8 945.7C1196.7 951 1224.3 951 1252.2 951C1280 951 1308 951 1335.8 963.7C1363.7 976.3 1391.3 1001.7 1419.2 1014.3C1447 1027 1475 1027 1502.8 1016.2C1530.7 1005.3 1558.3 983.7 1586.2 981.8C1614 980 1642 998 1669.8 989C1697.7 980 1725.3 944 1753.2 942.2C1781 940.3 1809 972.7 1836.8 969.2C1864.7 965.7 1892.3 926.3 1906.2 906.7L1920 887L1920 841L1906.2 866.3C1892.3 891.7 1864.7 942.3 1836.8 938.8C1809 935.3 1781 877.7 1753.2 872.2C1725.3 866.7 1697.7 913.3 1669.8 925.8C1642 938.3 1614 916.7 1586.2 927.5C1558.3 938.3 1530.7 981.7 1502.8 978.2C1475 974.7 1447 924.3 1419.2 901C1391.3 877.7 1363.7 881.3 1335.8 893.8C1308 906.3 1280 927.7 1252.2 931.2C1224.3 934.7 1196.7 920.3 1168.8 913.2C1141 906 1113 906 1085.2 897C1057.3 888 1029.7 870 1001.8 861C974 852 946 852 918.2 868.2C890.3 884.3 862.7 916.7 834.8 914.8C807 913 779 877 751.2 851.8C723.3 826.7 695.7 812.3 667.8 821.3C640 830.3 612 862.7 584.2 875.3C556.3 888 528.7 881 500.8 886.5C473 892 445 910 417.2 886.5C389.3 863 361.7 798 333.8 803.3C306 808.7 278 884.3 250.2 913.2C222.3 942 194.7 924 166.8 915C139 906 111 906 83.2 884.5C55.3 863 27.7 820 13.8 798.5L0 777Z" fill="#854586"></path><path d="M0 1070L13.8 1068.2C27.7 1066.3 55.3 1062.7 83.2 1064.5C111 1066.3 139 1073.7 166.8 1072C194.7 1070.3 222.3 1059.7 250.2 1047C278 1034.3 306 1019.7 333.8 1023.2C361.7 1026.7 389.3 1048.3 417.2 1053.8C445 1059.3 473 1048.7 500.8 1046.8C528.7 1045 556.3 1052 584.2 1044.8C612 1037.7 640 1016.3 667.8 1014.7C695.7 1013 723.3 1031 751.2 1034.5C779 1038 807 1027 834.8 1025.2C862.7 1023.3 890.3 1030.7 918.2 1037.8C946 1045 974 1052 1001.8 1053.8C1029.7 1055.7 1057.3 1052.3 1085.2 1041.7C1113 1031 1141 1013 1168.8 1009.3C1196.7 1005.7 1224.3 1016.3 1252.2 1023.5C1280 1030.7 1308 1034.3 1335.8 1039.7C1363.7 1045 1391.3 1052 1419.2 1053.8C1447 1055.7 1475 1052.3 1502.8 1045.2C1530.7 1038 1558.3 1027 1586.2 1027C1614 1027 1642 1038 1669.8 1038C1697.7 1038 1725.3 1027 1753.2 1021.5C1781 1016 1809 1016 1836.8 1014.2C1864.7 1012.3 1892.3 1008.7 1906.2 1006.8L1920 1005L1920 885L1906.2 904.7C1892.3 924.3 1864.7 963.7 1836.8 967.2C1809 970.7 1781 938.3 1753.2 940.2C1725.3 942 1697.7 978 1669.8 987C1642 996 1614 978 1586.2 979.8C1558.3 981.7 1530.7 1003.3 1502.8 1014.2C1475 1025 1447 1025 1419.2 1012.3C1391.3 999.7 1363.7 974.3 1335.8 961.7C1308 949 1280 949 1252.2 949C1224.3 949 1196.7 949 1168.8 943.7C1141 938.3 1113 927.7 1085.2 933.2C1057.3 938.7 1029.7 960.3 1001.8 958.5C974 956.7 946 931.3 918.2 925.8C890.3 920.3 862.7 934.7 834.8 934.7C807 934.7 779 920.3 751.2 916.8C723.3 913.3 695.7 920.7 667.8 918.8C640 917 612 906 584.2 907.8C556.3 909.7 528.7 924.3 500.8 931.7C473 939 445 939 417.2 928.2C389.3 917.3 361.7 895.7 333.8 906.3C306 917 278 960 250.2 979.8C222.3 999.7 194.7 996.3 166.8 996.3C139 996.3 111 999.7 83.2 988.8C55.3 978 27.7 953 13.8 940.5L0 928Z" fill="#42437a"></path><path d="M0 1081L13.8 1081C27.7 1081 55.3 1081 83.2 1081C111 1081 139 1081 166.8 1081C194.7 1081 222.3 1081 250.2 1081C278 1081 306 1081 333.8 1081C361.7 1081 389.3 1081 417.2 1081C445 1081 473 1081 500.8 1081C528.7 1081 556.3 1081 584.2 1081C612 1081 640 1081 667.8 1081C695.7 1081 723.3 1081 751.2 1081C779 1081 807 1081 834.8 1081C862.7 1081 890.3 1081 918.2 1081C946 1081 974 1081 1001.8 1081C1029.7 1081 1057.3 1081 1085.2 1081C1113 1081 1141 1081 1168.8 1081C1196.7 1081 1224.3 1081 1252.2 1081C1280 1081 1308 1081 1335.8 1081C1363.7 1081 1391.3 1081 1419.2 1081C1447 1081 1475 1081 1502.8 1081C1530.7 1081 1558.3 1081 1586.2 1081C1614 1081 1642 1081 1669.8 1081C1697.7 1081 1725.3 1081 1753.2 1081C1781 1081 1809 1081 1836.8 1081C1864.7 1081 1892.3 1081 1906.2 1081L1920 1081L1920 1003L1906.2 1004.8C1892.3 1006.7 1864.7 1010.3 1836.8 1012.2C1809 1014 1781 1014 1753.2 1019.5C1725.3 1025 1697.7 1036 1669.8 1036C1642 1036 1614 1025 1586.2 1025C1558.3 1025 1530.7 1036 1502.8 1043.2C1475 1050.3 1447 1053.7 1419.2 1051.8C1391.3 1050 1363.7 1043 1335.8 1037.7C1308 1032.3 1280 1028.7 1252.2 1021.5C1224.3 1014.3 1196.7 1003.7 1168.8 1007.3C1141 1011 1113 1029 1085.2 1039.7C1057.3 1050.3 1029.7 1053.7 1001.8 1051.8C974 1050 946 1043 918.2 1035.8C890.3 1028.7 862.7 1021.3 834.8 1023.2C807 1025 779 1036 751.2 1032.5C723.3 1029 695.7 1011 667.8 1012.7C640 1014.3 612 1035.7 584.2 1042.8C556.3 1050 528.7 1043 500.8 1044.8C473 1046.7 445 1057.3 417.2 1051.8C389.3 1046.3 361.7 1024.7 333.8 1021.2C306 1017.7 278 1032.3 250.2 1045C222.3 1057.7 194.7 1068.3 166.8 1070C139 1071.7 111 1064.3 83.2 1062.5C55.3 1060.7 27.7 1064.3 13.8 1066.2L0 1068Z" fill="#023859"></path></svg>