<svg id="visual" viewBox="0 0 1920 1080" width="1920" height="1080" xmlns="http://www.w3.org/2000/svg" xmlns:xlink="http://www.w3.org/1999/xlink" version="1.1"><path d="M0 66L13.8 60.5C27.7 55 55.3 44 83.2 45.8C111 47.7 139 62.3 166.8 62.3C194.7 62.3 222.3 47.7 250.2 38.7C278 29.7 306 26.3 333.8 30C361.7 33.7 389.3 44.3 417.2 64C445 83.7 473 112.3 500.8 117.7C528.7 123 556.3 105 584.2 97.8C612 90.7 640 94.3 667.8 87.2C695.7 80 723.3 62 751.2 58.5C779 55 807 66 834.8 69.7C862.7 73.3 890.3 69.7 918.2 75C946 80.3 974 94.7 1001.8 98.2C1029.7 101.7 1057.3 94.3 1085.2 83.5C1113 72.7 1141 58.3 1168.8 53C1196.7 47.7 1224.3 51.3 1252.2 47.8C1280 44.3 1308 33.7 1335.8 28.3C1363.7 23 1391.3 23 1419.2 24.7C1447 26.3 1475 29.7 1502.8 36.8C1530.7 44 1558.3 55 1586.2 64C1614 73 1642 80 1669.8 85.3C1697.7 90.7 1725.3 94.3 1753.2 94.3C1781 94.3 1809 90.7 1836.8 96.2C1864.7 101.7 1892.3 116.3 1906.2 123.7L1920 131L1920 0L1906.2 0C1892.3 0 1864.7 0 1836.8 0C1809 0 1781 0 1753.2 0C1725.3 0 1697.7 0 1669.8 0C1642 0 1614 0 1586.2 0C1558.3 0 1530.7 0 1502.8 0C1475 0 1447 0 1419.2 0C1391.3 0 1363.7 0 1335.8 0C1308 0 1280 0 1252.2 0C1224.3 0 1196.7 0 1168.8 0C1141 0 1113 0 1085.2 0C1057.3 0 1029.7 0 1001.8 0C974 0 946 0 918.2 0C890.3 0 862.7 0 834.8 0C807 0 779 0 751.2 0C723.3 0 695.7 0 667.8 0C640 0 612 0 584.2 0C556.3 0 528.7 0 500.8 0C473 0 445 0 417.2 0C389.3 0 361.7 0 333.8 0C306 0 278 0 250.2 0C222.3 0 194.7 0 166.8 0C139 0 111 0 83.2 0C55.3 0 27.7 0 13.8 0L0 0Z" fill="#f26444"></path><path d="M0 217L13.8 211.7C27.7 206.3 55.3 195.7 83.2 184.8C111 174 139 163 166.8 152.2C194.7 141.3 222.3 130.7 250.2 119.8C278 109 306 98 333.8 108.8C361.7 119.7 389.3 152.3 417.2 177.7C445 203 473 221 500.8 226.3C528.7 231.7 556.3 224.3 584.2 215.3C612 206.3 640 195.7 667.8 186.7C695.7 177.7 723.3 170.3 751.2 170.3C779 170.3 807 177.7 834.8 183C862.7 188.3 890.3 191.7 918.2 198.8C946 206 974 217 1001.8 208C1029.7 199 1057.3 170 1085.2 143C1113 116 1141 91 1168.8 82C1196.7 73 1224.3 80 1252.2 83.5C1280 87 1308 87 1335.8 94.3C1363.7 101.7 1391.3 116.3 1419.2 118.2C1447 120 1475 109 1502.8 119.7C1530.7 130.3 1558.3 162.7 1586.2 166.3C1614 170 1642 145 1669.8 143.3C1697.7 141.7 1725.3 163.3 1753.2 165.2C1781 167 1809 149 1836.8 163.3C1864.7 177.7 1892.3 224.3 1906.2 247.7L1920 271L1920 129L1906.2 121.7C1892.3 114.3 1864.7 99.7 1836.8 94.2C1809 88.7 1781 92.3 1753.2 92.3C1725.3 92.3 1697.7 88.7 1669.8 83.3C1642 78 1614 71 1586.2 62C1558.3 53 1530.7 42 1502.8 34.8C1475 27.7 1447 24.3 1419.2 22.7C1391.3 21 1363.7 21 1335.8 26.3C1308 31.7 1280 42.3 1252.2 45.8C1224.3 49.3 1196.7 45.7 1168.8 51C1141 56.3 1113 70.7 1085.2 81.5C1057.3 92.3 1029.7 99.7 1001.8 96.2C974 92.7 946 78.3 918.2 73C890.3 67.7 862.7 71.3 834.8 67.7C807 64 779 53 751.2 56.5C723.3 60 695.7 78 667.8 85.2C640 92.3 612 88.7 584.2 95.8C556.3 103 528.7 121 500.8 115.7C473 110.3 445 81.7 417.2 62C389.3 42.3 361.7 31.7 333.8 28C306 24.3 278 27.7 250.2 36.7C222.3 45.7 194.7 60.3 166.8 60.3C139 60.3 111 45.7 83.2 43.8C55.3 42 27.7 53 13.8 58.5L0 64Z" fill="#ea5556"></path><path d="M0 239L13.8 246.2C27.7 253.3 55.3 267.7 83.2 262.2C111 256.7 139 231.3 166.8 220.5C194.7 209.7 222.3 213.3 250.2 200.8C278 188.3 306 159.7 333.8 170.5C361.7 181.3 389.3 231.7 417.2 271.2C445 310.7 473 339.3 500.8 332.2C528.7 325 556.3 282 584.2 271.2C612 260.3 640 281.7 667.8 278C695.7 274.3 723.3 245.7 751.2 238.5C779 231.3 807 245.7 834.8 261.8C862.7 278 890.3 296 918.2 314C946 332 974 350 1001.8 350C1029.7 350 1057.3 332 1085.2 288.8C1113 245.7 1141 177.3 1168.8 146.8C1196.7 116.3 1224.3 123.7 1252.2 129C1280 134.3 1308 137.7 1335.8 168.2C1363.7 198.7 1391.3 256.3 1419.2 276.2C1447 296 1475 278 1502.8 274.5C1530.7 271 1558.3 282 1586.2 271.2C1614 260.3 1642 227.7 1669.8 215C1697.7 202.3 1725.3 209.7 1753.2 204.3C1781 199 1809 181 1836.8 199C1864.7 217 1892.3 271 1906.2 298L1920 325L1920 269L1906.2 245.7C1892.3 222.3 1864.7 175.7 1836.8 161.3C1809 147 1781 165 1753.2 163.2C1725.3 161.3 1697.7 139.7 1669.8 141.3C1642 143 1614 168 1586.2 164.3C1558.3 160.7 1530.7 128.3 1502.8 117.7C1475 107 1447 118 1419.2 116.2C1391.3 114.3 1363.7 99.7 1335.8 92.3C1308 85 1280 85 1252.2 81.5C1224.3 78 1196.7 71 1168.8 80C1141 89 1113 114 1085.2 141C1057.3 168 1029.7 197 1001.8 206C974 215 946 204 918.2 196.8C890.3 189.7 862.7 186.3 834.8 181C807 175.7 779 168.3 751.2 168.3C723.3 168.3 695.7 175.7 667.8 184.7C640 193.7 612 204.3 584.2 213.3C556.3 222.3 528.7 229.7 500.8 224.3C473 219 445 201 417.2 175.7C389.3 150.3 361.7 117.7 333.8 106.8C306 96 278 107 250.2 117.8C222.3 128.7 194.7 139.3 166.8 150.2C139 161 111 172 83.2 182.8C55.3 193.7 27.7 204.3 13.8 209.7L0 215Z" fill="#dd4a66"></path><path d="M0 271L13.8 283.7C27.7 296.3 55.3 321.7 83.2 328.8C111 336 139 325 166.8 307C194.7 289 222.3 264 250.2 253.2C278 242.3 306 245.7 333.8 261.8C361.7 278 389.3 307 417.2 330.5C445 354 473 372 500.8 370.2C528.7 368.3 556.3 346.7 584.2 341.2C612 335.7 640 346.3 667.8 333.7C695.7 321 723.3 285 751.2 277.8C779 270.7 807 292.3 834.8 314C862.7 335.7 890.3 357.3 918.2 375.3C946 393.3 974 407.7 1001.8 411.3C1029.7 415 1057.3 408 1085.2 361.2C1113 314.3 1141 227.7 1168.8 197C1196.7 166.3 1224.3 191.7 1252.2 208C1280 224.3 1308 231.7 1335.8 251.5C1363.7 271.3 1391.3 303.7 1419.2 325.2C1447 346.7 1475 357.3 1502.8 355.5C1530.7 353.7 1558.3 339.3 1586.2 312.3C1614 285.3 1642 245.7 1669.8 238.5C1697.7 231.3 1725.3 256.7 1753.2 254.8C1781 253 1809 224 1836.8 238.3C1864.7 252.7 1892.3 310.3 1906.2 339.2L1920 368L1920 323L1906.2 296C1892.3 269 1864.7 215 1836.8 197C1809 179 1781 197 1753.2 202.3C1725.3 207.7 1697.7 200.3 1669.8 213C1642 225.7 1614 258.3 1586.2 269.2C1558.3 280 1530.7 269 1502.8 272.5C1475 276 1447 294 1419.2 274.2C1391.3 254.3 1363.7 196.7 1335.8 166.2C1308 135.7 1280 132.3 1252.2 127C1224.3 121.7 1196.7 114.3 1168.8 144.8C1141 175.3 1113 243.7 1085.2 286.8C1057.3 330 1029.7 348 1001.8 348C974 348 946 330 918.2 312C890.3 294 862.7 276 834.8 259.8C807 243.7 779 229.3 751.2 236.5C723.3 243.7 695.7 272.3 667.8 276C640 279.7 612 258.3 584.2 269.2C556.3 280 528.7 323 500.8 330.2C473 337.3 445 308.7 417.2 269.2C389.3 229.7 361.7 179.3 333.8 168.5C306 157.7 278 186.3 250.2 198.8C222.3 211.3 194.7 207.7 166.8 218.5C139 229.3 111 254.7 83.2 260.2C55.3 265.7 27.7 251.3 13.8 244.2L0 237Z" fill="#cc4473"></path><path d="M0 390L13.8 447.5C27.7 505 55.3 620 83.2 645.2C111 670.3 139 605.7 166.8 584.2C194.7 562.7 222.3 584.3 250.2 559.2C278 534 306 462 333.8 444C361.7 426 389.3 462 417.2 469.2C445 476.3 473 454.7 500.8 447.5C528.7 440.3 556.3 447.7 584.2 483.7C612 519.7 640 584.3 667.8 591.5C695.7 598.7 723.3 548.3 751.2 510.5C779 472.7 807 447.3 834.8 474.3C862.7 501.3 890.3 580.7 918.2 591.5C946 602.3 974 544.7 1001.8 530.2C1029.7 515.7 1057.3 544.3 1085.2 557C1113 569.7 1141 566.3 1168.8 519.7C1196.7 473 1224.3 383 1252.2 343.3C1280 303.7 1308 314.3 1335.8 361C1363.7 407.7 1391.3 490.3 1419.2 519.2C1447 548 1475 523 1502.8 521.3C1530.7 519.7 1558.3 541.3 1586.2 526.8C1614 512.3 1642 461.7 1669.8 467C1697.7 472.3 1725.3 533.7 1753.2 566.2C1781 598.7 1809 602.3 1836.8 595.2C1864.7 588 1892.3 570 1906.2 561L1920 552L1920 366L1906.2 337.2C1892.3 308.3 1864.7 250.7 1836.8 236.3C1809 222 1781 251 1753.2 252.8C1725.3 254.7 1697.7 229.3 1669.8 236.5C1642 243.7 1614 283.3 1586.2 310.3C1558.3 337.3 1530.7 351.7 1502.8 353.5C1475 355.3 1447 344.7 1419.2 323.2C1391.3 301.7 1363.7 269.3 1335.8 249.5C1308 229.7 1280 222.3 1252.2 206C1224.3 189.7 1196.7 164.3 1168.8 195C1141 225.7 1113 312.3 1085.2 359.2C1057.3 406 1029.7 413 1001.8 409.3C974 405.7 946 391.3 918.2 373.3C890.3 355.3 862.7 333.7 834.8 312C807 290.3 779 268.7 751.2 275.8C723.3 283 695.7 319 667.8 331.7C640 344.3 612 333.7 584.2 339.2C556.3 344.7 528.7 366.3 500.8 368.2C473 370 445 352 417.2 328.5C389.3 305 361.7 276 333.8 259.8C306 243.7 278 240.3 250.2 251.2C222.3 262 194.7 287 166.8 305C139 323 111 334 83.2 326.8C55.3 319.7 27.7 294.3 13.8 281.7L0 269Z" fill="#b7437d"></path><path d="M0 401L13.8 467.5C27.7 534 55.3 667 83.2 692.2C111 717.3 139 634.7 166.8 609.5C194.7 584.3 222.3 616.7 250.2 593.2C278 569.7 306 490.3 333.8 467C361.7 443.7 389.3 476.3 417.2 487.2C445 498 473 487 500.8 481.5C528.7 476 556.3 476 584.2 510.2C612 544.3 640 612.7 667.8 623.5C695.7 634.3 723.3 587.7 751.2 550C779 512.3 807 483.7 834.8 512.5C862.7 541.3 890.3 627.7 918.2 634.8C946 642 974 570 1001.8 552C1029.7 534 1057.3 570 1085.2 586.2C1113 602.3 1141 598.7 1168.8 555.5C1196.7 512.3 1224.3 429.7 1252.2 391.8C1280 354 1308 361 1335.8 402.3C1363.7 443.7 1391.3 519.3 1419.2 551.8C1447 584.3 1475 573.7 1502.8 570C1530.7 566.3 1558.3 569.7 1586.2 549.8C1614 530 1642 487 1669.8 492.5C1697.7 498 1725.3 552 1753.2 580.8C1781 609.7 1809 613.3 1836.8 607.8C1864.7 602.3 1892.3 587.7 1906.2 580.3L1920 573L1920 550L1906.2 559C1892.3 568 1864.7 586 1836.8 593.2C1809 600.3 1781 596.7 1753.2 564.2C1725.3 531.7 1697.7 470.3 1669.8 465C1642 459.7 1614 510.3 1586.2 524.8C1558.3 539.3 1530.7 517.7 1502.8 519.3C1475 521 1447 546 1419.2 517.2C1391.3 488.3 1363.7 405.7 1335.8 359C1308 312.3 1280 301.7 1252.2 341.3C1224.3 381 1196.7 471 1168.8 517.7C1141 564.3 1113 567.7 1085.2 555C1057.3 542.3 1029.7 513.7 1001.8 528.2C974 542.7 946 600.3 918.2 589.5C890.3 578.7 862.7 499.3 834.8 472.3C807 445.3 779 470.7 751.2 508.5C723.3 546.3 695.7 596.7 667.8 589.5C640 582.3 612 517.7 584.2 481.7C556.3 445.7 528.7 438.3 500.8 445.5C473 452.7 445 474.3 417.2 467.2C389.3 460 361.7 424 333.8 442C306 460 278 532 250.2 557.2C222.3 582.3 194.7 560.7 166.8 582.2C139 603.7 111 668.3 83.2 643.2C55.3 618 27.7 503 13.8 445.5L0 388Z" fill="#9f4383"></path><path d="M0 476L13.8 531.8C27.7 587.7 55.3 699.3 83.2 719.2C111 739 139 667 166.8 643.7C194.7 620.3 222.3 645.7 250.2 618.7C278 591.7 306 512.3 333.8 496C361.7 479.7 389.3 526.3 417.2 539C445 551.7 473 530.3 500.8 516C528.7 501.7 556.3 494.3 584.2 530.3C612 566.3 640 645.7 667.8 667.3C695.7 689 723.3 653 751.2 615.2C779 577.3 807 537.7 834.8 561C862.7 584.3 890.3 670.7 918.2 677.8C946 685 974 613 1001.8 598.7C1029.7 584.3 1057.3 627.7 1085.2 645.7C1113 663.7 1141 656.3 1168.8 604C1196.7 551.7 1224.3 454.3 1252.2 414.7C1280 375 1308 393 1335.8 436.3C1363.7 479.7 1391.3 548.3 1419.2 584.3C1447 620.3 1475 623.7 1502.8 627.2C1530.7 630.7 1558.3 634.3 1586.2 611C1614 587.7 1642 537.3 1669.8 542.8C1697.7 548.3 1725.3 609.7 1753.2 642C1781 674.3 1809 677.7 1836.8 663.2C1864.7 648.7 1892.3 616.3 1906.2 600.2L1920 584L1920 571L1906.2 578.3C1892.3 585.7 1864.7 600.3 1836.8 605.8C1809 611.3 1781 607.7 1753.2 578.8C1725.3 550 1697.7 496 1669.8 490.5C1642 485 1614 528 1586.2 547.8C1558.3 567.7 1530.7 564.3 1502.8 568C1475 571.7 1447 582.3 1419.2 549.8C1391.3 517.3 1363.7 441.7 1335.8 400.3C1308 359 1280 352 1252.2 389.8C1224.3 427.7 1196.7 510.3 1168.8 553.5C1141 596.7 1113 600.3 1085.2 584.2C1057.3 568 1029.7 532 1001.8 550C974 568 946 640 918.2 632.8C890.3 625.7 862.7 539.3 834.8 510.5C807 481.7 779 510.3 751.2 548C723.3 585.7 695.7 632.3 667.8 621.5C640 610.7 612 542.3 584.2 508.2C556.3 474 528.7 474 500.8 479.5C473 485 445 496 417.2 485.2C389.3 474.3 361.7 441.7 333.8 465C306 488.3 278 567.7 250.2 591.2C222.3 614.7 194.7 582.3 166.8 607.5C139 632.7 111 715.3 83.2 690.2C55.3 665 27.7 532 13.8 465.5L0 399Z" fill="#854586"></path><path d="M0 552L13.8 606C27.7 660 55.3 768 83.2 789.5C111 811 139 746 166.8 713.5C194.7 681 222.3 681 250.2 648.7C278 616.3 306 551.7 333.8 544.5C361.7 537.3 389.3 587.7 417.2 593C445 598.3 473 558.7 500.8 546.2C528.7 533.7 556.3 548.3 584.2 593.3C612 638.3 640 713.7 667.8 733.3C695.7 753 723.3 717 751.2 681C779 645 807 609 834.8 623.5C862.7 638 890.3 703 918.2 701.3C946 699.7 974 631.3 1001.8 616.8C1029.7 602.3 1057.3 641.7 1085.2 661.3C1113 681 1141 681 1168.8 636C1196.7 591 1224.3 501 1252.2 465C1280 429 1308 447 1335.8 486.7C1363.7 526.3 1391.3 587.7 1419.2 616.5C1447 645.3 1475 641.7 1502.8 648.8C1530.7 656 1558.3 674 1586.2 657.8C1614 641.7 1642 591.3 1669.8 589.5C1697.7 587.7 1725.3 634.3 1753.2 674C1781 713.7 1809 746.3 1836.8 742.8C1864.7 739.3 1892.3 699.7 1906.2 679.8L1920 660L1920 582L1906.2 598.2C1892.3 614.3 1864.7 646.7 1836.8 661.2C1809 675.7 1781 672.3 1753.2 640C1725.3 607.7 1697.7 546.3 1669.8 540.8C1642 535.3 1614 585.7 1586.2 609C1558.3 632.3 1530.7 628.7 1502.8 625.2C1475 621.7 1447 618.3 1419.2 582.3C1391.3 546.3 1363.7 477.7 1335.8 434.3C1308 391 1280 373 1252.2 412.7C1224.3 452.3 1196.7 549.7 1168.8 602C1141 654.3 1113 661.7 1085.2 643.7C1057.3 625.7 1029.7 582.3 1001.8 596.7C974 611 946 683 918.2 675.8C890.3 668.7 862.7 582.3 834.8 559C807 535.7 779 575.3 751.2 613.2C723.3 651 695.7 687 667.8 665.3C640 643.7 612 564.3 584.2 528.3C556.3 492.3 528.7 499.7 500.8 514C473 528.3 445 549.7 417.2 537C389.3 524.3 361.7 477.7 333.8 494C306 510.3 278 589.7 250.2 616.7C222.3 643.7 194.7 618.3 166.8 641.7C139 665 111 737 83.2 717.2C55.3 697.3 27.7 585.7 13.8 529.8L0 474Z" fill="#6a4584"></path><path d="M0 703L13.8 740.8C27.7 778.7 55.3 854.3 83.2 885C111 915.7 139 901.3 166.8 876.2C194.7 851 222.3 815 250.2 771.7C278 728.3 306 677.7 333.8 663.2C361.7 648.7 389.3 670.3 417.2 690.2C445 710 473 728 500.8 717.2C528.7 706.3 556.3 666.7 584.2 688.3C612 710 640 793 667.8 830.8C695.7 868.7 723.3 861.3 751.2 830.7C779 800 807 746 834.8 740.7C862.7 735.3 890.3 778.7 918.2 776.8C946 775 974 728 1001.8 722.5C1029.7 717 1057.3 753 1085.2 778.3C1113 803.7 1141 818.3 1168.8 787.8C1196.7 757.3 1224.3 681.7 1252.2 640.2C1280 598.7 1308 591.3 1335.8 625.5C1363.7 659.7 1391.3 735.3 1419.2 771.3C1447 807.3 1475 803.7 1502.8 819.8C1530.7 836 1558.3 872 1586.2 866.7C1614 861.3 1642 814.7 1669.8 811.2C1697.7 807.7 1725.3 847.3 1753.2 870.7C1781 894 1809 901 1836.8 879.3C1864.7 857.7 1892.3 807.3 1906.2 782.2L1920 757L1920 658L1906.2 677.8C1892.3 697.7 1864.7 737.3 1836.8 740.8C1809 744.3 1781 711.7 1753.2 672C1725.3 632.3 1697.7 585.7 1669.8 587.5C1642 589.3 1614 639.7 1586.2 655.8C1558.3 672 1530.7 654 1502.8 646.8C1475 639.7 1447 643.3 1419.2 614.5C1391.3 585.7 1363.7 524.3 1335.8 484.7C1308 445 1280 427 1252.2 463C1224.3 499 1196.7 589 1168.8 634C1141 679 1113 679 1085.2 659.3C1057.3 639.7 1029.7 600.3 1001.8 614.8C974 629.3 946 697.7 918.2 699.3C890.3 701 862.7 636 834.8 621.5C807 607 779 643 751.2 679C723.3 715 695.7 751 667.8 731.3C640 711.7 612 636.3 584.2 591.3C556.3 546.3 528.7 531.7 500.8 544.2C473 556.7 445 596.3 417.2 591C389.3 585.7 361.7 535.3 333.8 542.5C306 549.7 278 614.3 250.2 646.7C222.3 679 194.7 679 166.8 711.5C139 744 111 809 83.2 787.5C55.3 766 27.7 658 13.8 604L0 550Z" fill="#4f447e"></path><path d="M0 1038L13.8 1039.8C27.7 1041.7 55.3 1045.3 83.2 1039.8C111 1034.3 139 1019.7 166.8 1001.7C194.7 983.7 222.3 962.3 250.2 969.7C278 977 306 1013 333.8 1013C361.7 1013 389.3 977 417.2 977C445 977 473 1013 500.8 1018.3C528.7 1023.7 556.3 998.3 584.2 989.3C612 980.3 640 987.7 667.8 985.8C695.7 984 723.3 973 751.2 973C779 973 807 984 834.8 989.5C862.7 995 890.3 995 918.2 995C946 995 974 995 1001.8 995C1029.7 995 1057.3 995 1085.2 991.3C1113 987.7 1141 980.3 1168.8 978.5C1196.7 976.7 1224.3 980.3 1252.2 973.2C1280 966 1308 948 1335.8 957C1363.7 966 1391.3 1002 1419.2 1012.8C1447 1023.7 1475 1009.3 1502.8 1007.5C1530.7 1005.7 1558.3 1016.3 1586.2 1014.5C1614 1012.7 1642 998.3 1669.8 989.3C1697.7 980.3 1725.3 976.7 1753.2 978.5C1781 980.3 1809 987.7 1836.8 991.3C1864.7 995 1892.3 995 1906.2 995L1920 995L1920 755L1906.2 780.2C1892.3 805.3 1864.7 855.7 1836.8 877.3C1809 899 1781 892 1753.2 868.7C1725.3 845.3 1697.7 805.7 1669.8 809.2C1642 812.7 1614 859.3 1586.2 864.7C1558.3 870 1530.7 834 1502.8 817.8C1475 801.7 1447 805.3 1419.2 769.3C1391.3 733.3 1363.7 657.7 1335.8 623.5C1308 589.3 1280 596.7 1252.2 638.2C1224.3 679.7 1196.7 755.3 1168.8 785.8C1141 816.3 1113 801.7 1085.2 776.3C1057.3 751 1029.7 715 1001.8 720.5C974 726 946 773 918.2 774.8C890.3 776.7 862.7 733.3 834.8 738.7C807 744 779 798 751.2 828.7C723.3 859.3 695.7 866.7 667.8 828.8C640 791 612 708 584.2 686.3C556.3 664.7 528.7 704.3 500.8 715.2C473 726 445 708 417.2 688.2C389.3 668.3 361.7 646.7 333.8 661.2C306 675.7 278 726.3 250.2 769.7C222.3 813 194.7 849 166.8 874.2C139 899.3 111 913.7 83.2 883C55.3 852.3 27.7 776.7 13.8 738.8L0 701Z" fill="#354274"></path><path d="M0 1059L13.8 1060.8C27.7 1062.7 55.3 1066.3 83.2 1066.3C111 1066.3 139 1062.7 166.8 1055.5C194.7 1048.3 222.3 1037.7 250.2 1037.7C278 1037.7 306 1048.3 333.8 1048.3C361.7 1048.3 389.3 1037.7 417.2 1039.5C445 1041.3 473 1055.7 500.8 1050.3C528.7 1045 556.3 1020 584.2 1018.2C612 1016.3 640 1037.7 667.8 1039.3C695.7 1041 723.3 1023 751.2 1023C779 1023 807 1041 834.8 1050C862.7 1059 890.3 1059 918.2 1060.8C946 1062.7 974 1066.3 1001.8 1057.3C1029.7 1048.3 1057.3 1026.7 1085.2 1023.2C1113 1019.7 1141 1034.3 1168.8 1034.3C1196.7 1034.3 1224.3 1019.7 1252.2 1014.2C1280 1008.7 1308 1012.3 1335.8 1021.3C1363.7 1030.3 1391.3 1044.7 1419.2 1046.5C1447 1048.3 1475 1037.7 1502.8 1037.7C1530.7 1037.7 1558.3 1048.3 1586.2 1055.5C1614 1062.7 1642 1066.3 1669.8 1062.8C1697.7 1059.3 1725.3 1048.7 1753.2 1041.5C1781 1034.3 1809 1030.7 1836.8 1028.8C1864.7 1027 1892.3 1027 1906.2 1027L1920 1027L1920 993L1906.2 993C1892.3 993 1864.7 993 1836.8 989.3C1809 985.7 1781 978.3 1753.2 976.5C1725.3 974.7 1697.7 978.3 1669.8 987.3C1642 996.3 1614 1010.7 1586.2 1012.5C1558.3 1014.3 1530.7 1003.7 1502.8 1005.5C1475 1007.3 1447 1021.7 1419.2 1010.8C1391.3 1000 1363.7 964 1335.8 955C1308 946 1280 964 1252.2 971.2C1224.3 978.3 1196.7 974.7 1168.8 976.5C1141 978.3 1113 985.7 1085.2 989.3C1057.3 993 1029.7 993 1001.8 993C974 993 946 993 918.2 993C890.3 993 862.7 993 834.8 987.5C807 982 779 971 751.2 971C723.3 971 695.7 982 667.8 983.8C640 985.7 612 978.3 584.2 987.3C556.3 996.3 528.7 1021.7 500.8 1016.3C473 1011 445 975 417.2 975C389.3 975 361.7 1011 333.8 1011C306 1011 278 975 250.2 967.7C222.3 960.3 194.7 981.7 166.8 999.7C139 1017.7 111 1032.3 83.2 1037.8C55.3 1043.3 27.7 1039.7 13.8 1037.8L0 1036Z" fill="#1c3d68"></path><path d="M0 1081L13.8 1081C27.7 1081 55.3 1081 83.2 1081C111 1081 139 1081 166.8 1081C194.7 1081 222.3 1081 250.2 1081C278 1081 306 1081 333.8 1081C361.7 1081 389.3 1081 417.2 1081C445 1081 473 1081 500.8 1081C528.7 1081 556.3 1081 584.2 1081C612 1081 640 1081 667.8 1081C695.7 1081 723.3 1081 751.2 1081C779 1081 807 1081 834.8 1081C862.7 1081 890.3 1081 918.2 1081C946 1081 974 1081 1001.8 1081C1029.7 1081 1057.3 1081 1085.2 1081C1113 1081 1141 1081 1168.8 1081C1196.7 1081 1224.3 1081 1252.2 1081C1280 1081 1308 1081 1335.8 1081C1363.7 1081 1391.3 1081 1419.2 1081C1447 1081 1475 1081 1502.8 1081C1530.7 1081 1558.3 1081 1586.2 1081C1614 1081 1642 1081 1669.8 1081C1697.7 1081 1725.3 1081 1753.2 1081C1781 1081 1809 1081 1836.8 1081C1864.7 1081 1892.3 1081 1906.2 1081L1920 1081L1920 1025L1906.2 1025C1892.3 1025 1864.7 1025 1836.8 1026.8C1809 1028.7 1781 1032.3 1753.2 1039.5C1725.3 1046.7 1697.7 1057.3 1669.8 1060.8C1642 1064.3 1614 1060.7 1586.2 1053.5C1558.3 1046.3 1530.7 1035.7 1502.8 1035.7C1475 1035.7 1447 1046.3 1419.2 1044.5C1391.3 1042.7 1363.7 1028.3 1335.8 1019.3C1308 1010.3 1280 1006.7 1252.2 1012.2C1224.3 1017.7 1196.7 1032.3 1168.8 1032.3C1141 1032.3 1113 1017.7 1085.2 1021.2C1057.3 1024.7 1029.7 1046.3 1001.8 1055.3C974 1064.3 946 1060.7 918.2 1058.8C890.3 1057 862.7 1057 834.8 1048C807 1039 779 1021 751.2 1021C723.3 1021 695.7 1039 667.8 1037.3C640 1035.7 612 1014.3 584.2 1016.2C556.3 1018 528.7 1043 500.8 1048.3C473 1053.7 445 1039.3 417.2 1037.5C389.3 1035.7 361.7 1046.3 333.8 1046.3C306 1046.3 278 1035.7 250.2 1035.7C222.3 1035.7 194.7 1046.3 166.8 1053.5C139 1060.7 111 1064.3 83.2 1064.3C55.3 1064.3 27.7 1060.7 13.8 1058.8L0 1057Z" fill="#023859"></path></svg>