<svg id="visual" viewBox="0 0 1920 1080" width="1920" height="1080" xmlns="http://www.w3.org/2000/svg" xmlns:xlink="http://www.w3.org/1999/xlink" version="1.1"><rect x="0" y="0" width="1920" height="1080" fill="#023859"></rect><path d="M0 904L13.8 911.3C27.7 918.7 55.3 933.3 83.2 938.2C111 943 139 938 166.8 930.8C194.7 923.7 222.3 914.3 250.2 914.7C278 915 306 925 333.8 930.8C361.7 936.7 389.3 938.3 417.2 944.7C445 951 473 962 500.8 969C528.7 976 556.3 979 584.2 974.5C612 970 640 958 667.8 955.8C695.7 953.7 723.3 961.3 751.2 956.2C779 951 807 933 834.8 931.2C862.7 929.3 890.3 943.7 918.2 943.7C946 943.7 974 929.3 1001.8 931C1029.7 932.7 1057.3 950.3 1085.2 956.5C1113 962.7 1141 957.3 1168.8 952.8C1196.7 948.3 1224.3 944.7 1252.2 938.5C1280 932.3 1308 923.7 1335.8 929.2C1363.7 934.7 1391.3 954.3 1419.2 953C1447 951.7 1475 929.3 1502.8 929.3C1530.7 929.3 1558.3 951.7 1586.2 958.2C1614 964.7 1642 955.3 1669.8 949.7C1697.7 944 1725.3 942 1753.2 937C1781 932 1809 924 1836.8 930.3C1864.7 936.7 1892.3 957.3 1906.2 967.7L1920 978L1920 1081L1906.2 1081C1892.3 1081 1864.7 1081 1836.8 1081C1809 1081 1781 1081 1753.2 1081C1725.3 1081 1697.7 1081 1669.8 1081C1642 1081 1614 1081 1586.2 1081C1558.3 1081 1530.7 1081 1502.8 1081C1475 1081 1447 1081 1419.2 1081C1391.3 1081 1363.7 1081 1335.8 1081C1308 1081 1280 1081 1252.2 1081C1224.3 1081 1196.7 1081 1168.8 1081C1141 1081 1113 1081 1085.2 1081C1057.3 1081 1029.7 1081 1001.8 1081C974 1081 946 1081 918.2 1081C890.3 1081 862.7 1081 834.8 1081C807 1081 779 1081 751.2 1081C723.3 1081 695.7 1081 667.8 1081C640 1081 612 1081 584.2 1081C556.3 1081 528.7 1081 500.8 1081C473 1081 445 1081 417.2 1081C389.3 1081 361.7 1081 333.8 1081C306 1081 278 1081 250.2 1081C222.3 1081 194.7 1081 166.8 1081C139 1081 111 1081 83.2 1081C55.3 1081 27.7 1081 13.8 1081L0 1081Z" fill="#b6462f"></path><path d="M0 977L13.8 974C27.7 971 55.3 965 83.2 958.2C111 951.3 139 943.7 166.8 948C194.7 952.3 222.3 968.7 250.2 970.2C278 971.7 306 958.3 333.8 957.3C361.7 956.3 389.3 967.7 417.2 974.5C445 981.3 473 983.7 500.8 978.8C528.7 974 556.3 962 584.2 957.2C612 952.3 640 954.7 667.8 951.8C695.7 949 723.3 941 751.2 945.3C779 949.7 807 966.3 834.8 970.2C862.7 974 890.3 965 918.2 965.7C946 966.3 974 976.7 1001.8 972.7C1029.7 968.7 1057.3 950.3 1085.2 948.3C1113 946.3 1141 960.7 1168.8 969C1196.7 977.3 1224.3 979.7 1252.2 980C1280 980.3 1308 978.7 1335.8 970.2C1363.7 961.7 1391.3 946.3 1419.2 947.5C1447 948.7 1475 966.3 1502.8 965.3C1530.7 964.3 1558.3 944.7 1586.2 938.5C1614 932.3 1642 939.7 1669.8 942.8C1697.7 946 1725.3 945 1753.2 952.7C1781 960.3 1809 976.7 1836.8 977.8C1864.7 979 1892.3 965 1906.2 958L1920 951L1920 1081L1906.2 1081C1892.3 1081 1864.7 1081 1836.8 1081C1809 1081 1781 1081 1753.2 1081C1725.3 1081 1697.7 1081 1669.8 1081C1642 1081 1614 1081 1586.2 1081C1558.3 1081 1530.7 1081 1502.8 1081C1475 1081 1447 1081 1419.2 1081C1391.3 1081 1363.7 1081 1335.8 1081C1308 1081 1280 1081 1252.2 1081C1224.3 1081 1196.7 1081 1168.8 1081C1141 1081 1113 1081 1085.2 1081C1057.3 1081 1029.7 1081 1001.8 1081C974 1081 946 1081 918.2 1081C890.3 1081 862.7 1081 834.8 1081C807 1081 779 1081 751.2 1081C723.3 1081 695.7 1081 667.8 1081C640 1081 612 1081 584.2 1081C556.3 1081 528.7 1081 500.8 1081C473 1081 445 1081 417.2 1081C389.3 1081 361.7 1081 333.8 1081C306 1081 278 1081 250.2 1081C222.3 1081 194.7 1081 166.8 1081C139 1081 111 1081 83.2 1081C55.3 1081 27.7 1081 13.8 1081L0 1081Z" fill="#c54d34"></path><path d="M0 959L13.8 963.3C27.7 967.7 55.3 976.3 83.2 974C111 971.7 139 958.3 166.8 951.8C194.7 945.3 222.3 945.7 250.2 945C278 944.3 306 942.7 333.8 949.5C361.7 956.3 389.3 971.7 417.2 981.5C445 991.3 473 995.7 500.8 989.2C528.7 982.7 556.3 965.3 584.2 957C612 948.7 640 949.3 667.8 952.7C695.7 956 723.3 962 751.2 961.3C779 960.7 807 953.3 834.8 953.8C862.7 954.3 890.3 962.7 918.2 964.5C946 966.3 974 961.7 1001.8 967.2C1029.7 972.7 1057.3 988.3 1085.2 994.7C1113 1001 1141 998 1168.8 993.5C1196.7 989 1224.3 983 1252.2 975.5C1280 968 1308 959 1335.8 958.7C1363.7 958.3 1391.3 966.7 1419.2 968.5C1447 970.3 1475 965.7 1502.8 966.7C1530.7 967.7 1558.3 974.3 1586.2 977.7C1614 981 1642 981 1669.8 977.5C1697.7 974 1725.3 967 1753.2 964.5C1781 962 1809 964 1836.8 962.8C1864.7 961.7 1892.3 957.3 1906.2 955.2L1920 953L1920 1081L1906.2 1081C1892.3 1081 1864.7 1081 1836.8 1081C1809 1081 1781 1081 1753.2 1081C1725.3 1081 1697.7 1081 1669.8 1081C1642 1081 1614 1081 1586.2 1081C1558.3 1081 1530.7 1081 1502.8 1081C1475 1081 1447 1081 1419.2 1081C1391.3 1081 1363.7 1081 1335.8 1081C1308 1081 1280 1081 1252.2 1081C1224.3 1081 1196.7 1081 1168.8 1081C1141 1081 1113 1081 1085.2 1081C1057.3 1081 1029.7 1081 1001.8 1081C974 1081 946 1081 918.2 1081C890.3 1081 862.7 1081 834.8 1081C807 1081 779 1081 751.2 1081C723.3 1081 695.7 1081 667.8 1081C640 1081 612 1081 584.2 1081C556.3 1081 528.7 1081 500.8 1081C473 1081 445 1081 417.2 1081C389.3 1081 361.7 1081 333.8 1081C306 1081 278 1081 250.2 1081C222.3 1081 194.7 1081 166.8 1081C139 1081 111 1081 83.2 1081C55.3 1081 27.7 1081 13.8 1081L0 1081Z" fill="#d45539"></path><path d="M0 1012L13.8 1007C27.7 1002 55.3 992 83.2 987.2C111 982.3 139 982.7 166.8 981.3C194.7 980 222.3 977 250.2 979.2C278 981.3 306 988.7 333.8 993.2C361.7 997.7 389.3 999.3 417.2 996C445 992.7 473 984.3 500.8 977.3C528.7 970.3 556.3 964.7 584.2 963C612 961.3 640 963.7 667.8 968.8C695.7 974 723.3 982 751.2 980.7C779 979.3 807 968.7 834.8 972.3C862.7 976 890.3 994 918.2 1000.8C946 1007.7 974 1003.3 1001.8 997.5C1029.7 991.7 1057.3 984.3 1085.2 982.2C1113 980 1141 983 1168.8 984.2C1196.7 985.3 1224.3 984.7 1252.2 988C1280 991.3 1308 998.7 1335.8 1000.3C1363.7 1002 1391.3 998 1419.2 991.8C1447 985.7 1475 977.3 1502.8 974.7C1530.7 972 1558.3 975 1586.2 974.8C1614 974.7 1642 971.3 1669.8 976C1697.7 980.7 1725.3 993.3 1753.2 999.5C1781 1005.7 1809 1005.3 1836.8 1000C1864.7 994.7 1892.3 984.3 1906.2 979.2L1920 974L1920 1081L1906.2 1081C1892.3 1081 1864.7 1081 1836.8 1081C1809 1081 1781 1081 1753.2 1081C1725.3 1081 1697.7 1081 1669.8 1081C1642 1081 1614 1081 1586.2 1081C1558.3 1081 1530.7 1081 1502.8 1081C1475 1081 1447 1081 1419.2 1081C1391.3 1081 1363.7 1081 1335.8 1081C1308 1081 1280 1081 1252.2 1081C1224.3 1081 1196.7 1081 1168.8 1081C1141 1081 1113 1081 1085.2 1081C1057.3 1081 1029.7 1081 1001.8 1081C974 1081 946 1081 918.2 1081C890.3 1081 862.7 1081 834.8 1081C807 1081 779 1081 751.2 1081C723.3 1081 695.7 1081 667.8 1081C640 1081 612 1081 584.2 1081C556.3 1081 528.7 1081 500.8 1081C473 1081 445 1081 417.2 1081C389.3 1081 361.7 1081 333.8 1081C306 1081 278 1081 250.2 1081C222.3 1081 194.7 1081 166.8 1081C139 1081 111 1081 83.2 1081C55.3 1081 27.7 1081 13.8 1081L0 1081Z" fill="#e35c3f"></path><path d="M0 977L13.8 978.8C27.7 980.7 55.3 984.3 83.2 985.5C111 986.7 139 985.3 166.8 983.3C194.7 981.3 222.3 978.7 250.2 981.5C278 984.3 306 992.7 333.8 995.8C361.7 999 389.3 997 417.2 995.7C445 994.3 473 993.7 500.8 995.7C528.7 997.7 556.3 1002.3 584.2 1004.5C612 1006.7 640 1006.3 667.8 1008.3C695.7 1010.3 723.3 1014.7 751.2 1012.7C779 1010.7 807 1002.3 834.8 995.5C862.7 988.7 890.3 983.3 918.2 986.3C946 989.3 974 1000.7 1001.8 1003C1029.7 1005.3 1057.3 998.7 1085.2 994.8C1113 991 1141 990 1168.8 987.7C1196.7 985.3 1224.3 981.7 1252.2 983.5C1280 985.3 1308 992.7 1335.8 995C1363.7 997.3 1391.3 994.7 1419.2 993C1447 991.3 1475 990.7 1502.8 993C1530.7 995.3 1558.3 1000.7 1586.2 1003.3C1614 1006 1642 1006 1669.8 1002.7C1697.7 999.3 1725.3 992.7 1753.2 991.5C1781 990.3 1809 994.7 1836.8 999.8C1864.7 1005 1892.3 1011 1906.2 1014L1920 1017L1920 1081L1906.2 1081C1892.3 1081 1864.7 1081 1836.8 1081C1809 1081 1781 1081 1753.2 1081C1725.3 1081 1697.7 1081 1669.8 1081C1642 1081 1614 1081 1586.2 1081C1558.3 1081 1530.7 1081 1502.8 1081C1475 1081 1447 1081 1419.2 1081C1391.3 1081 1363.7 1081 1335.8 1081C1308 1081 1280 1081 1252.2 1081C1224.3 1081 1196.7 1081 1168.8 1081C1141 1081 1113 1081 1085.2 1081C1057.3 1081 1029.7 1081 1001.8 1081C974 1081 946 1081 918.2 1081C890.3 1081 862.7 1081 834.8 1081C807 1081 779 1081 751.2 1081C723.3 1081 695.7 1081 667.8 1081C640 1081 612 1081 584.2 1081C556.3 1081 528.7 1081 500.8 1081C473 1081 445 1081 417.2 1081C389.3 1081 361.7 1081 333.8 1081C306 1081 278 1081 250.2 1081C222.3 1081 194.7 1081 166.8 1081C139 1081 111 1081 83.2 1081C55.3 1081 27.7 1081 13.8 1081L0 1081Z" fill="#f26444"></path><path d="M0 1000L13.8 1005.3C27.7 1010.7 55.3 1021.3 83.2 1023.3C111 1025.3 139 1018.7 166.8 1013.2C194.7 1007.7 222.3 1003.3 250.2 1006.8C278 1010.3 306 1021.7 333.8 1027.3C361.7 1033 389.3 1033 417.2 1031.7C445 1030.3 473 1027.7 500.8 1025.2C528.7 1022.7 556.3 1020.3 584.2 1019.7C612 1019 640 1020 667.8 1019.5C695.7 1019 723.3 1017 751.2 1016.5C779 1016 807 1017 834.8 1017.3C862.7 1017.7 890.3 1017.3 918.2 1013.8C946 1010.3 974 1003.7 1001.8 1000.2C1029.7 996.7 1057.3 996.3 1085.2 998.3C1113 1000.3 1141 1004.7 1168.8 1010.3C1196.7 1016 1224.3 1023 1252.2 1025.5C1280 1028 1308 1026 1335.8 1022.5C1363.7 1019 1391.3 1014 1419.2 1013.8C1447 1013.7 1475 1018.3 1502.8 1022.8C1530.7 1027.3 1558.3 1031.7 1586.2 1029.7C1614 1027.7 1642 1019.3 1669.8 1018C1697.7 1016.7 1725.3 1022.3 1753.2 1026.2C1781 1030 1809 1032 1836.8 1031C1864.7 1030 1892.3 1026 1906.2 1024L1920 1022L1920 1081L1906.2 1081C1892.3 1081 1864.7 1081 1836.8 1081C1809 1081 1781 1081 1753.2 1081C1725.3 1081 1697.7 1081 1669.8 1081C1642 1081 1614 1081 1586.2 1081C1558.3 1081 1530.7 1081 1502.8 1081C1475 1081 1447 1081 1419.2 1081C1391.3 1081 1363.7 1081 1335.8 1081C1308 1081 1280 1081 1252.2 1081C1224.3 1081 1196.7 1081 1168.8 1081C1141 1081 1113 1081 1085.2 1081C1057.3 1081 1029.7 1081 1001.8 1081C974 1081 946 1081 918.2 1081C890.3 1081 862.7 1081 834.8 1081C807 1081 779 1081 751.2 1081C723.3 1081 695.7 1081 667.8 1081C640 1081 612 1081 584.2 1081C556.3 1081 528.7 1081 500.8 1081C473 1081 445 1081 417.2 1081C389.3 1081 361.7 1081 333.8 1081C306 1081 278 1081 250.2 1081C222.3 1081 194.7 1081 166.8 1081C139 1081 111 1081 83.2 1081C55.3 1081 27.7 1081 13.8 1081L0 1081Z" fill="#f67152"></path><path d="M0 1047L13.8 1045.3C27.7 1043.7 55.3 1040.3 83.2 1039.2C111 1038 139 1039 166.8 1040C194.7 1041 222.3 1042 250.2 1039.8C278 1037.7 306 1032.3 333.8 1028.8C361.7 1025.3 389.3 1023.7 417.2 1024.8C445 1026 473 1030 500.8 1028.7C528.7 1027.3 556.3 1020.7 584.2 1017.5C612 1014.3 640 1014.7 667.8 1017.3C695.7 1020 723.3 1025 751.2 1025.3C779 1025.7 807 1021.3 834.8 1020C862.7 1018.7 890.3 1020.3 918.2 1025.3C946 1030.3 974 1038.7 1001.8 1042.8C1029.7 1047 1057.3 1047 1085.2 1042C1113 1037 1141 1027 1168.8 1026.5C1196.7 1026 1224.3 1035 1252.2 1039.7C1280 1044.3 1308 1044.7 1335.8 1042.7C1363.7 1040.7 1391.3 1036.3 1419.2 1033.2C1447 1030 1475 1028 1502.8 1025.5C1530.7 1023 1558.3 1020 1586.2 1018.8C1614 1017.7 1642 1018.3 1669.8 1021.8C1697.7 1025.3 1725.3 1031.7 1753.2 1035.3C1781 1039 1809 1040 1836.8 1039.2C1864.7 1038.3 1892.3 1035.7 1906.2 1034.3L1920 1033L1920 1081L1906.2 1081C1892.3 1081 1864.7 1081 1836.8 1081C1809 1081 1781 1081 1753.2 1081C1725.3 1081 1697.7 1081 1669.8 1081C1642 1081 1614 1081 1586.2 1081C1558.3 1081 1530.7 1081 1502.8 1081C1475 1081 1447 1081 1419.2 1081C1391.3 1081 1363.7 1081 1335.8 1081C1308 1081 1280 1081 1252.2 1081C1224.3 1081 1196.7 1081 1168.8 1081C1141 1081 1113 1081 1085.2 1081C1057.3 1081 1029.7 1081 1001.8 1081C974 1081 946 1081 918.2 1081C890.3 1081 862.7 1081 834.8 1081C807 1081 779 1081 751.2 1081C723.3 1081 695.7 1081 667.8 1081C640 1081 612 1081 584.2 1081C556.3 1081 528.7 1081 500.8 1081C473 1081 445 1081 417.2 1081C389.3 1081 361.7 1081 333.8 1081C306 1081 278 1081 250.2 1081C222.3 1081 194.7 1081 166.8 1081C139 1081 111 1081 83.2 1081C55.3 1081 27.7 1081 13.8 1081L0 1081Z" fill="#f97d61"></path><path d="M0 1040L13.8 1043C27.7 1046 55.3 1052 83.2 1051.8C111 1051.7 139 1045.3 166.8 1043.2C194.7 1041 222.3 1043 250.2 1043.3C278 1043.7 306 1042.3 333.8 1042.2C361.7 1042 389.3 1043 417.2 1044.5C445 1046 473 1048 500.8 1049.8C528.7 1051.7 556.3 1053.3 584.2 1050.8C612 1048.3 640 1041.7 667.8 1041.7C695.7 1041.7 723.3 1048.3 751.2 1049C779 1049.7 807 1044.3 834.8 1042.2C862.7 1040 890.3 1041 918.2 1040.3C946 1039.7 974 1037.3 1001.8 1036.5C1029.7 1035.7 1057.3 1036.3 1085.2 1039.7C1113 1043 1141 1049 1168.8 1049.8C1196.7 1050.7 1224.3 1046.3 1252.2 1045.8C1280 1045.3 1308 1048.7 1335.8 1048.8C1363.7 1049 1391.3 1046 1419.2 1045.3C1447 1044.7 1475 1046.3 1502.8 1045.8C1530.7 1045.3 1558.3 1042.7 1586.2 1042C1614 1041.3 1642 1042.7 1669.8 1044C1697.7 1045.3 1725.3 1046.7 1753.2 1047.5C1781 1048.3 1809 1048.7 1836.8 1048.7C1864.7 1048.7 1892.3 1048.3 1906.2 1048.2L1920 1048L1920 1081L1906.2 1081C1892.3 1081 1864.7 1081 1836.8 1081C1809 1081 1781 1081 1753.2 1081C1725.3 1081 1697.7 1081 1669.8 1081C1642 1081 1614 1081 1586.2 1081C1558.3 1081 1530.7 1081 1502.8 1081C1475 1081 1447 1081 1419.2 1081C1391.3 1081 1363.7 1081 1335.8 1081C1308 1081 1280 1081 1252.2 1081C1224.3 1081 1196.7 1081 1168.8 1081C1141 1081 1113 1081 1085.2 1081C1057.3 1081 1029.7 1081 1001.8 1081C974 1081 946 1081 918.2 1081C890.3 1081 862.7 1081 834.8 1081C807 1081 779 1081 751.2 1081C723.3 1081 695.7 1081 667.8 1081C640 1081 612 1081 584.2 1081C556.3 1081 528.7 1081 500.8 1081C473 1081 445 1081 417.2 1081C389.3 1081 361.7 1081 333.8 1081C306 1081 278 1081 250.2 1081C222.3 1081 194.7 1081 166.8 1081C139 1081 111 1081 83.2 1081C55.3 1081 27.7 1081 13.8 1081L0 1081Z" fill="#fc896f"></path><path d="M0 1050L13.8 1050C27.7 1050 55.3 1050 83.2 1051.8C111 1053.7 139 1057.3 166.8 1056.8C194.7 1056.3 222.3 1051.7 250.2 1052.5C278 1053.3 306 1059.7 333.8 1060.3C361.7 1061 389.3 1056 417.2 1054.2C445 1052.3 473 1053.7 500.8 1054.3C528.7 1055 556.3 1055 584.2 1057C612 1059 640 1063 667.8 1064C695.7 1065 723.3 1063 751.2 1062.8C779 1062.7 807 1064.3 834.8 1065.3C862.7 1066.3 890.3 1066.7 918.2 1064.2C946 1061.7 974 1056.3 1001.8 1054C1029.7 1051.7 1057.3 1052.3 1085.2 1053.7C1113 1055 1141 1057 1168.8 1057.2C1196.7 1057.3 1224.3 1055.7 1252.2 1056.5C1280 1057.3 1308 1060.7 1335.8 1060.5C1363.7 1060.3 1391.3 1056.7 1419.2 1054.2C1447 1051.7 1475 1050.3 1502.8 1049.3C1530.7 1048.3 1558.3 1047.7 1586.2 1047.7C1614 1047.7 1642 1048.3 1669.8 1050.7C1697.7 1053 1725.3 1057 1753.2 1058.8C1781 1060.7 1809 1060.3 1836.8 1061.2C1864.7 1062 1892.3 1064 1906.2 1065L1920 1066L1920 1081L1906.2 1081C1892.3 1081 1864.7 1081 1836.8 1081C1809 1081 1781 1081 1753.2 1081C1725.3 1081 1697.7 1081 1669.8 1081C1642 1081 1614 1081 1586.2 1081C1558.3 1081 1530.7 1081 1502.8 1081C1475 1081 1447 1081 1419.2 1081C1391.3 1081 1363.7 1081 1335.8 1081C1308 1081 1280 1081 1252.2 1081C1224.3 1081 1196.7 1081 1168.8 1081C1141 1081 1113 1081 1085.2 1081C1057.3 1081 1029.7 1081 1001.8 1081C974 1081 946 1081 918.2 1081C890.3 1081 862.7 1081 834.8 1081C807 1081 779 1081 751.2 1081C723.3 1081 695.7 1081 667.8 1081C640 1081 612 1081 584.2 1081C556.3 1081 528.7 1081 500.8 1081C473 1081 445 1081 417.2 1081C389.3 1081 361.7 1081 333.8 1081C306 1081 278 1081 250.2 1081C222.3 1081 194.7 1081 166.8 1081C139 1081 111 1081 83.2 1081C55.3 1081 27.7 1081 13.8 1081L0 1081Z" fill="#ff957d"></path></svg>