<svg id="visual" viewBox="0 0 1920 1080" width="1920" height="1080" xmlns="http://www.w3.org/2000/svg" xmlns:xlink="http://www.w3.org/1999/xlink" version="1.1"><rect x="0" y="0" width="1920" height="1080" fill="#023859"></rect><path d="M0 845L13.8 852.8C27.7 860.7 55.3 876.3 83.2 877.2C111 878 139 864 166.8 855.2C194.7 846.3 222.3 842.7 250.2 848.8C278 855 306 871 333.8 883.3C361.7 895.7 389.3 904.3 417.2 914C445 923.7 473 934.3 500.8 930.2C528.7 926 556.3 907 584.2 892.5C612 878 640 868 667.8 877.5C695.7 887 723.3 916 751.2 914.8C779 913.7 807 882.3 834.8 868.5C862.7 854.7 890.3 858.3 918.2 865.5C946 872.7 974 883.3 1001.8 889.2C1029.7 895 1057.3 896 1085.2 887.3C1113 878.7 1141 860.3 1168.8 859.7C1196.7 859 1224.3 876 1252.2 890.8C1280 905.7 1308 918.3 1335.8 913.7C1363.7 909 1391.3 887 1419.2 887.7C1447 888.3 1475 911.7 1502.8 909.7C1530.7 907.7 1558.3 880.3 1586.2 878.7C1614 877 1642 901 1669.8 906.5C1697.7 912 1725.3 899 1753.2 900.5C1781 902 1809 918 1836.8 919.7C1864.7 921.3 1892.3 908.7 1906.2 902.3L1920 896L1920 1081L1906.2 1081C1892.3 1081 1864.7 1081 1836.8 1081C1809 1081 1781 1081 1753.2 1081C1725.3 1081 1697.7 1081 1669.8 1081C1642 1081 1614 1081 1586.2 1081C1558.3 1081 1530.7 1081 1502.8 1081C1475 1081 1447 1081 1419.2 1081C1391.3 1081 1363.7 1081 1335.8 1081C1308 1081 1280 1081 1252.2 1081C1224.3 1081 1196.7 1081 1168.8 1081C1141 1081 1113 1081 1085.2 1081C1057.3 1081 1029.7 1081 1001.8 1081C974 1081 946 1081 918.2 1081C890.3 1081 862.7 1081 834.8 1081C807 1081 779 1081 751.2 1081C723.3 1081 695.7 1081 667.8 1081C640 1081 612 1081 584.2 1081C556.3 1081 528.7 1081 500.8 1081C473 1081 445 1081 417.2 1081C389.3 1081 361.7 1081 333.8 1081C306 1081 278 1081 250.2 1081C222.3 1081 194.7 1081 166.8 1081C139 1081 111 1081 83.2 1081C55.3 1081 27.7 1081 13.8 1081L0 1081Z" fill="#b6462f"></path><path d="M0 931L13.8 931C27.7 931 55.3 931 83.2 932.3C111 933.7 139 936.3 166.8 940.2C194.7 944 222.3 949 250.2 948.5C278 948 306 942 333.8 940.3C361.7 938.7 389.3 941.3 417.2 940.2C445 939 473 934 500.8 929.2C528.7 924.3 556.3 919.7 584.2 917C612 914.3 640 913.7 667.8 919C695.7 924.3 723.3 935.7 751.2 941.8C779 948 807 949 834.8 947.8C862.7 946.7 890.3 943.3 918.2 937.5C946 931.7 974 923.3 1001.8 920.8C1029.7 918.3 1057.3 921.7 1085.2 926.7C1113 931.7 1141 938.3 1168.8 948.7C1196.7 959 1224.3 973 1252.2 967.3C1280 961.7 1308 936.3 1335.8 933.8C1363.7 931.3 1391.3 951.7 1419.2 956.2C1447 960.7 1475 949.3 1502.8 938.8C1530.7 928.3 1558.3 918.7 1586.2 922.5C1614 926.3 1642 943.7 1669.8 944.2C1697.7 944.7 1725.3 928.3 1753.2 927.5C1781 926.7 1809 941.3 1836.8 943.8C1864.7 946.3 1892.3 936.7 1906.2 931.8L1920 927L1920 1081L1906.2 1081C1892.3 1081 1864.7 1081 1836.8 1081C1809 1081 1781 1081 1753.2 1081C1725.3 1081 1697.7 1081 1669.8 1081C1642 1081 1614 1081 1586.2 1081C1558.3 1081 1530.7 1081 1502.8 1081C1475 1081 1447 1081 1419.2 1081C1391.3 1081 1363.7 1081 1335.8 1081C1308 1081 1280 1081 1252.2 1081C1224.3 1081 1196.7 1081 1168.8 1081C1141 1081 1113 1081 1085.2 1081C1057.3 1081 1029.7 1081 1001.8 1081C974 1081 946 1081 918.2 1081C890.3 1081 862.7 1081 834.8 1081C807 1081 779 1081 751.2 1081C723.3 1081 695.7 1081 667.8 1081C640 1081 612 1081 584.2 1081C556.3 1081 528.7 1081 500.8 1081C473 1081 445 1081 417.2 1081C389.3 1081 361.7 1081 333.8 1081C306 1081 278 1081 250.2 1081C222.3 1081 194.7 1081 166.8 1081C139 1081 111 1081 83.2 1081C55.3 1081 27.7 1081 13.8 1081L0 1081Z" fill="#f26444"></path><path d="M0 1006L13.8 1007.8C27.7 1009.7 55.3 1013.3 83.2 1007.2C111 1001 139 985 166.8 980C194.7 975 222.3 981 250.2 983C278 985 306 983 333.8 983.2C361.7 983.3 389.3 985.7 417.2 990.3C445 995 473 1002 500.8 998.7C528.7 995.3 556.3 981.7 584.2 979.3C612 977 640 986 667.8 989.5C695.7 993 723.3 991 751.2 992.3C779 993.7 807 998.3 834.8 998C862.7 997.7 890.3 992.3 918.2 996.7C946 1001 974 1015 1001.8 1019.7C1029.7 1024.3 1057.3 1019.7 1085.2 1017.5C1113 1015.3 1141 1015.7 1168.8 1014.2C1196.7 1012.7 1224.3 1009.3 1252.2 1008.7C1280 1008 1308 1010 1335.8 1009C1363.7 1008 1391.3 1004 1419.2 1000.3C1447 996.7 1475 993.3 1502.8 992.2C1530.7 991 1558.3 992 1586.2 993C1614 994 1642 995 1669.8 991.5C1697.7 988 1725.3 980 1753.2 978.7C1781 977.3 1809 982.7 1836.8 981.7C1864.7 980.7 1892.3 973.3 1906.2 969.7L1920 966L1920 1081L1906.2 1081C1892.3 1081 1864.7 1081 1836.8 1081C1809 1081 1781 1081 1753.2 1081C1725.3 1081 1697.7 1081 1669.8 1081C1642 1081 1614 1081 1586.2 1081C1558.3 1081 1530.7 1081 1502.8 1081C1475 1081 1447 1081 1419.2 1081C1391.3 1081 1363.7 1081 1335.8 1081C1308 1081 1280 1081 1252.2 1081C1224.3 1081 1196.7 1081 1168.8 1081C1141 1081 1113 1081 1085.2 1081C1057.3 1081 1029.7 1081 1001.8 1081C974 1081 946 1081 918.2 1081C890.3 1081 862.7 1081 834.8 1081C807 1081 779 1081 751.2 1081C723.3 1081 695.7 1081 667.8 1081C640 1081 612 1081 584.2 1081C556.3 1081 528.7 1081 500.8 1081C473 1081 445 1081 417.2 1081C389.3 1081 361.7 1081 333.8 1081C306 1081 278 1081 250.2 1081C222.3 1081 194.7 1081 166.8 1081C139 1081 111 1081 83.2 1081C55.3 1081 27.7 1081 13.8 1081L0 1081Z" fill="#ff957d"></path></svg>