<svg id="visual" viewBox="0 0 1920 1080" width="1920" height="1080" xmlns="http://www.w3.org/2000/svg" xmlns:xlink="http://www.w3.org/1999/xlink" version="1.1"><rect x="0" y="0" width="1920" height="1080" fill="#023859"></rect><path d="M0 233L13.8 225.2C27.7 217.3 55.3 201.7 83.2 200.8C111 200 139 214 166.8 222.8C194.7 231.7 222.3 235.3 250.2 229.2C278 223 306 207 333.8 194.7C361.7 182.3 389.3 173.7 417.2 164C445 154.3 473 143.7 500.8 147.8C528.7 152 556.3 171 584.2 185.5C612 200 640 210 667.8 200.5C695.7 191 723.3 162 751.2 163.2C779 164.3 807 195.7 834.8 209.5C862.7 223.3 890.3 219.7 918.2 212.5C946 205.3 974 194.7 1001.8 188.8C1029.7 183 1057.3 182 1085.2 190.7C1113 199.3 1141 217.7 1168.8 218.3C1196.7 219 1224.3 202 1252.2 187.2C1280 172.3 1308 159.7 1335.8 164.3C1363.7 169 1391.3 191 1419.2 190.3C1447 189.7 1475 166.3 1502.8 168.3C1530.7 170.3 1558.3 197.7 1586.2 199.3C1614 201 1642 177 1669.8 171.5C1697.7 166 1725.3 179 1753.2 177.5C1781 176 1809 160 1836.8 158.3C1864.7 156.7 1892.3 169.3 1906.2 175.7L1920 182L1920 0L1906.2 0C1892.3 0 1864.7 0 1836.8 0C1809 0 1781 0 1753.2 0C1725.3 0 1697.7 0 1669.8 0C1642 0 1614 0 1586.2 0C1558.3 0 1530.7 0 1502.8 0C1475 0 1447 0 1419.2 0C1391.3 0 1363.7 0 1335.8 0C1308 0 1280 0 1252.2 0C1224.3 0 1196.7 0 1168.8 0C1141 0 1113 0 1085.2 0C1057.3 0 1029.7 0 1001.8 0C974 0 946 0 918.2 0C890.3 0 862.7 0 834.8 0C807 0 779 0 751.2 0C723.3 0 695.7 0 667.8 0C640 0 612 0 584.2 0C556.3 0 528.7 0 500.8 0C473 0 445 0 417.2 0C389.3 0 361.7 0 333.8 0C306 0 278 0 250.2 0C222.3 0 194.7 0 166.8 0C139 0 111 0 83.2 0C55.3 0 27.7 0 13.8 0L0 0Z" fill="#b6462f"></path><path d="M0 147L13.8 147C27.7 147 55.3 147 83.2 145.7C111 144.3 139 141.7 166.8 137.8C194.7 134 222.3 129 250.2 129.5C278 130 306 136 333.8 137.7C361.7 139.3 389.3 136.7 417.2 137.8C445 139 473 144 500.8 148.8C528.7 153.7 556.3 158.3 584.2 161C612 163.7 640 164.3 667.8 159C695.7 153.7 723.3 142.3 751.2 136.2C779 130 807 129 834.8 130.2C862.7 131.3 890.3 134.7 918.2 140.5C946 146.3 974 154.7 1001.8 157.2C1029.7 159.7 1057.3 156.3 1085.2 151.3C1113 146.3 1141 139.7 1168.8 129.3C1196.7 119 1224.3 105 1252.2 110.7C1280 116.3 1308 141.7 1335.8 144.2C1363.7 146.7 1391.3 126.3 1419.2 121.8C1447 117.3 1475 128.7 1502.8 139.2C1530.7 149.7 1558.3 159.3 1586.2 155.5C1614 151.7 1642 134.3 1669.8 133.8C1697.7 133.3 1725.3 149.7 1753.2 150.5C1781 151.3 1809 136.7 1836.8 134.2C1864.7 131.7 1892.3 141.3 1906.2 146.2L1920 151L1920 0L1906.2 0C1892.3 0 1864.7 0 1836.8 0C1809 0 1781 0 1753.2 0C1725.3 0 1697.7 0 1669.8 0C1642 0 1614 0 1586.2 0C1558.3 0 1530.7 0 1502.8 0C1475 0 1447 0 1419.2 0C1391.3 0 1363.7 0 1335.8 0C1308 0 1280 0 1252.2 0C1224.3 0 1196.7 0 1168.8 0C1141 0 1113 0 1085.2 0C1057.3 0 1029.7 0 1001.8 0C974 0 946 0 918.2 0C890.3 0 862.7 0 834.8 0C807 0 779 0 751.2 0C723.3 0 695.7 0 667.8 0C640 0 612 0 584.2 0C556.3 0 528.7 0 500.8 0C473 0 445 0 417.2 0C389.3 0 361.7 0 333.8 0C306 0 278 0 250.2 0C222.3 0 194.7 0 166.8 0C139 0 111 0 83.2 0C55.3 0 27.7 0 13.8 0L0 0Z" fill="#f26444"></path><path d="M0 72L13.8 70.2C27.7 68.3 55.3 64.7 83.2 70.8C111 77 139 93 166.8 98C194.7 103 222.3 97 250.2 95C278 93 306 95 333.8 94.8C361.7 94.7 389.3 92.3 417.2 87.7C445 83 473 76 500.8 79.3C528.7 82.7 556.3 96.3 584.2 98.7C612 101 640 92 667.8 88.5C695.7 85 723.3 87 751.2 85.7C779 84.3 807 79.7 834.8 80C862.7 80.3 890.3 85.7 918.2 81.3C946 77 974 63 1001.8 58.3C1029.7 53.7 1057.3 58.3 1085.2 60.5C1113 62.7 1141 62.3 1168.8 63.8C1196.7 65.3 1224.3 68.7 1252.2 69.3C1280 70 1308 68 1335.8 69C1363.7 70 1391.3 74 1419.2 77.7C1447 81.3 1475 84.7 1502.8 85.8C1530.7 87 1558.3 86 1586.2 85C1614 84 1642 83 1669.8 86.5C1697.7 90 1725.3 98 1753.2 99.3C1781 100.7 1809 95.3 1836.8 96.3C1864.7 97.3 1892.3 104.7 1906.2 108.3L1920 112L1920 0L1906.2 0C1892.3 0 1864.7 0 1836.8 0C1809 0 1781 0 1753.2 0C1725.3 0 1697.7 0 1669.8 0C1642 0 1614 0 1586.2 0C1558.3 0 1530.7 0 1502.8 0C1475 0 1447 0 1419.2 0C1391.3 0 1363.7 0 1335.8 0C1308 0 1280 0 1252.2 0C1224.3 0 1196.7 0 1168.8 0C1141 0 1113 0 1085.2 0C1057.3 0 1029.7 0 1001.8 0C974 0 946 0 918.2 0C890.3 0 862.7 0 834.8 0C807 0 779 0 751.2 0C723.3 0 695.7 0 667.8 0C640 0 612 0 584.2 0C556.3 0 528.7 0 500.8 0C473 0 445 0 417.2 0C389.3 0 361.7 0 333.8 0C306 0 278 0 250.2 0C222.3 0 194.7 0 166.8 0C139 0 111 0 83.2 0C55.3 0 27.7 0 13.8 0L0 0Z" fill="#ff957d"></path></svg>