<svg id="visual" viewBox="0 0 1920 1080" width="1920" height="1080" xmlns="http://www.w3.org/2000/svg" xmlns:xlink="http://www.w3.org/1999/xlink" version="1.1"><rect x="0" y="0" width="1920" height="1080" fill="#023859"></rect><path d="M0 376L13.8 368.3C27.7 360.7 55.3 345.3 83.2 347.5C111 349.7 139 369.3 166.8 386.3C194.7 403.3 222.3 417.7 250.2 425C278 432.3 306 432.7 333.8 425.2C361.7 417.7 389.3 402.3 417.2 395C445 387.7 473 388.3 500.8 378.5C528.7 368.7 556.3 348.3 584.2 338.5C612 328.7 640 329.3 667.8 347.3C695.7 365.3 723.3 400.7 751.2 406.5C779 412.3 807 388.7 834.8 389.2C862.7 389.7 890.3 414.3 918.2 418C946 421.7 974 404.3 1001.8 383.2C1029.7 362 1057.3 337 1085.2 328.3C1113 319.7 1141 327.3 1168.8 346.5C1196.7 365.7 1224.3 396.3 1252.2 397C1280 397.7 1308 368.3 1335.8 370.5C1363.7 372.7 1391.3 406.3 1419.2 422.7C1447 439 1475 438 1502.8 430C1530.7 422 1558.3 407 1586.2 409.7C1614 412.3 1642 432.7 1669.8 424.7C1697.7 416.7 1725.3 380.3 1753.2 359.2C1781 338 1809 332 1836.8 327.8C1864.7 323.7 1892.3 321.3 1906.2 320.2L1920 319L1920 0L1906.2 0C1892.3 0 1864.7 0 1836.8 0C1809 0 1781 0 1753.2 0C1725.3 0 1697.7 0 1669.8 0C1642 0 1614 0 1586.2 0C1558.3 0 1530.7 0 1502.8 0C1475 0 1447 0 1419.2 0C1391.3 0 1363.7 0 1335.8 0C1308 0 1280 0 1252.2 0C1224.3 0 1196.7 0 1168.8 0C1141 0 1113 0 1085.2 0C1057.3 0 1029.7 0 1001.8 0C974 0 946 0 918.2 0C890.3 0 862.7 0 834.8 0C807 0 779 0 751.2 0C723.3 0 695.7 0 667.8 0C640 0 612 0 584.2 0C556.3 0 528.7 0 500.8 0C473 0 445 0 417.2 0C389.3 0 361.7 0 333.8 0C306 0 278 0 250.2 0C222.3 0 194.7 0 166.8 0C139 0 111 0 83.2 0C55.3 0 27.7 0 13.8 0L0 0Z" fill="#b6462f"></path><path d="M0 381L13.8 368.2C27.7 355.3 55.3 329.7 83.2 329.5C111 329.3 139 354.7 166.8 357.3C194.7 360 222.3 340 250.2 327.7C278 315.3 306 310.7 333.8 317C361.7 323.3 389.3 340.7 417.2 356.7C445 372.7 473 387.3 500.8 375.7C528.7 364 556.3 326 584.2 326.7C612 327.3 640 366.7 667.8 379C695.7 391.3 723.3 376.7 751.2 369C779 361.3 807 360.7 834.8 355.8C862.7 351 890.3 342 918.2 338.8C946 335.7 974 338.3 1001.8 333.7C1029.7 329 1057.3 317 1085.2 318C1113 319 1141 333 1168.8 347.7C1196.7 362.3 1224.3 377.7 1252.2 372C1280 366.3 1308 339.7 1335.8 340.7C1363.7 341.7 1391.3 370.3 1419.2 386.8C1447 403.3 1475 407.7 1502.8 396.5C1530.7 385.3 1558.3 358.7 1586.2 339C1614 319.3 1642 306.7 1669.8 307.7C1697.7 308.7 1725.3 323.3 1753.2 332C1781 340.7 1809 343.3 1836.8 343.8C1864.7 344.3 1892.3 342.7 1906.2 341.8L1920 341L1920 0L1906.2 0C1892.3 0 1864.7 0 1836.8 0C1809 0 1781 0 1753.2 0C1725.3 0 1697.7 0 1669.8 0C1642 0 1614 0 1586.2 0C1558.3 0 1530.7 0 1502.8 0C1475 0 1447 0 1419.2 0C1391.3 0 1363.7 0 1335.8 0C1308 0 1280 0 1252.2 0C1224.3 0 1196.7 0 1168.8 0C1141 0 1113 0 1085.2 0C1057.3 0 1029.7 0 1001.8 0C974 0 946 0 918.2 0C890.3 0 862.7 0 834.8 0C807 0 779 0 751.2 0C723.3 0 695.7 0 667.8 0C640 0 612 0 584.2 0C556.3 0 528.7 0 500.8 0C473 0 445 0 417.2 0C389.3 0 361.7 0 333.8 0C306 0 278 0 250.2 0C222.3 0 194.7 0 166.8 0C139 0 111 0 83.2 0C55.3 0 27.7 0 13.8 0L0 0Z" fill="#c34c34"></path><path d="M0 240L13.8 248.5C27.7 257 55.3 274 83.2 280.5C111 287 139 283 166.8 276.3C194.7 269.7 222.3 260.3 250.2 275C278 289.7 306 328.3 333.8 329.5C361.7 330.7 389.3 294.3 417.2 287.8C445 281.3 473 304.7 500.8 322.7C528.7 340.7 556.3 353.3 584.2 353.2C612 353 640 340 667.8 334C695.7 328 723.3 329 751.2 320.8C779 312.7 807 295.3 834.8 293.3C862.7 291.3 890.3 304.7 918.2 313.3C946 322 974 326 1001.8 328.5C1029.7 331 1057.3 332 1085.2 328.5C1113 325 1141 317 1168.8 307.7C1196.7 298.3 1224.3 287.7 1252.2 282.7C1280 277.7 1308 278.3 1335.8 291.8C1363.7 305.3 1391.3 331.7 1419.2 329.7C1447 327.7 1475 297.3 1502.8 280.8C1530.7 264.3 1558.3 261.7 1586.2 264.7C1614 267.7 1642 276.3 1669.8 283.2C1697.7 290 1725.3 295 1753.2 297.7C1781 300.3 1809 300.7 1836.8 312C1864.7 323.3 1892.3 345.7 1906.2 356.8L1920 368L1920 0L1906.2 0C1892.3 0 1864.7 0 1836.8 0C1809 0 1781 0 1753.2 0C1725.3 0 1697.7 0 1669.8 0C1642 0 1614 0 1586.2 0C1558.3 0 1530.7 0 1502.8 0C1475 0 1447 0 1419.2 0C1391.3 0 1363.7 0 1335.8 0C1308 0 1280 0 1252.2 0C1224.3 0 1196.7 0 1168.8 0C1141 0 1113 0 1085.2 0C1057.3 0 1029.7 0 1001.8 0C974 0 946 0 918.2 0C890.3 0 862.7 0 834.8 0C807 0 779 0 751.2 0C723.3 0 695.7 0 667.8 0C640 0 612 0 584.2 0C556.3 0 528.7 0 500.8 0C473 0 445 0 417.2 0C389.3 0 361.7 0 333.8 0C306 0 278 0 250.2 0C222.3 0 194.7 0 166.8 0C139 0 111 0 83.2 0C55.3 0 27.7 0 13.8 0L0 0Z" fill="#d05338"></path><path d="M0 229L13.8 228.3C27.7 227.7 55.3 226.3 83.2 226.8C111 227.3 139 229.7 166.8 239.2C194.7 248.7 222.3 265.3 250.2 275.7C278 286 306 290 333.8 283.5C361.7 277 389.3 260 417.2 260.2C445 260.3 473 277.7 500.8 284.2C528.7 290.7 556.3 286.3 584.2 292.2C612 298 640 314 667.8 320.3C695.7 326.7 723.3 323.3 751.2 317.8C779 312.3 807 304.7 834.8 296C862.7 287.3 890.3 277.7 918.2 277C946 276.3 974 284.7 1001.8 276.5C1029.7 268.3 1057.3 243.7 1085.2 247.8C1113 252 1141 285 1168.8 291.2C1196.7 297.3 1224.3 276.7 1252.2 267.5C1280 258.3 1308 260.7 1335.8 268.2C1363.7 275.7 1391.3 288.3 1419.2 297.8C1447 307.3 1475 313.7 1502.8 308.3C1530.7 303 1558.3 286 1586.2 274.5C1614 263 1642 257 1669.8 259.7C1697.7 262.3 1725.3 273.7 1753.2 274.5C1781 275.3 1809 265.7 1836.8 257.3C1864.7 249 1892.3 242 1906.2 238.5L1920 235L1920 0L1906.2 0C1892.3 0 1864.7 0 1836.8 0C1809 0 1781 0 1753.2 0C1725.3 0 1697.7 0 1669.8 0C1642 0 1614 0 1586.2 0C1558.3 0 1530.7 0 1502.8 0C1475 0 1447 0 1419.2 0C1391.3 0 1363.7 0 1335.8 0C1308 0 1280 0 1252.2 0C1224.3 0 1196.7 0 1168.8 0C1141 0 1113 0 1085.2 0C1057.3 0 1029.7 0 1001.8 0C974 0 946 0 918.2 0C890.3 0 862.7 0 834.8 0C807 0 779 0 751.2 0C723.3 0 695.7 0 667.8 0C640 0 612 0 584.2 0C556.3 0 528.7 0 500.8 0C473 0 445 0 417.2 0C389.3 0 361.7 0 333.8 0C306 0 278 0 250.2 0C222.3 0 194.7 0 166.8 0C139 0 111 0 83.2 0C55.3 0 27.7 0 13.8 0L0 0Z" fill="#de5a3d"></path><path d="M0 271L13.8 258.5C27.7 246 55.3 221 83.2 206.3C111 191.7 139 187.3 166.8 186.5C194.7 185.7 222.3 188.3 250.2 205.7C278 223 306 255 333.8 267.5C361.7 280 389.3 273 417.2 272.8C445 272.7 473 279.3 500.8 279.7C528.7 280 556.3 274 584.2 270.7C612 267.3 640 266.7 667.8 258.7C695.7 250.7 723.3 235.3 751.2 232.3C779 229.3 807 238.7 834.8 247.8C862.7 257 890.3 266 918.2 268.5C946 271 974 267 1001.8 253C1029.7 239 1057.3 215 1085.2 217.8C1113 220.7 1141 250.3 1168.8 261.3C1196.7 272.3 1224.3 264.7 1252.2 247.5C1280 230.3 1308 203.7 1335.8 193.2C1363.7 182.7 1391.3 188.3 1419.2 202.2C1447 216 1475 238 1502.8 246.5C1530.7 255 1558.3 250 1586.2 246.8C1614 243.7 1642 242.3 1669.8 239.2C1697.7 236 1725.3 231 1753.2 221.8C1781 212.7 1809 199.3 1836.8 201.7C1864.7 204 1892.3 222 1906.2 231L1920 240L1920 0L1906.2 0C1892.3 0 1864.7 0 1836.8 0C1809 0 1781 0 1753.2 0C1725.3 0 1697.7 0 1669.8 0C1642 0 1614 0 1586.2 0C1558.3 0 1530.7 0 1502.8 0C1475 0 1447 0 1419.2 0C1391.3 0 1363.7 0 1335.8 0C1308 0 1280 0 1252.2 0C1224.3 0 1196.7 0 1168.8 0C1141 0 1113 0 1085.2 0C1057.3 0 1029.7 0 1001.8 0C974 0 946 0 918.2 0C890.3 0 862.7 0 834.8 0C807 0 779 0 751.2 0C723.3 0 695.7 0 667.8 0C640 0 612 0 584.2 0C556.3 0 528.7 0 500.8 0C473 0 445 0 417.2 0C389.3 0 361.7 0 333.8 0C306 0 278 0 250.2 0C222.3 0 194.7 0 166.8 0C139 0 111 0 83.2 0C55.3 0 27.7 0 13.8 0L0 0Z" fill="#eb6142"></path><path d="M0 200L13.8 198C27.7 196 55.3 192 83.2 193.5C111 195 139 202 166.8 207C194.7 212 222.3 215 250.2 205.2C278 195.3 306 172.7 333.8 176.2C361.7 179.7 389.3 209.3 417.2 221.5C445 233.7 473 228.3 500.8 214.3C528.7 200.3 556.3 177.7 584.2 179.8C612 182 640 209 667.8 209.3C695.7 209.7 723.3 183.3 751.2 176.8C779 170.3 807 183.7 834.8 189.3C862.7 195 890.3 193 918.2 195.2C946 197.3 974 203.7 1001.8 203.2C1029.7 202.7 1057.3 195.3 1085.2 199.8C1113 204.3 1141 220.7 1168.8 224C1196.7 227.3 1224.3 217.7 1252.2 212.5C1280 207.3 1308 206.7 1335.8 208.5C1363.7 210.3 1391.3 214.7 1419.2 209.7C1447 204.7 1475 190.3 1502.8 182.5C1530.7 174.7 1558.3 173.3 1586.2 183.3C1614 193.3 1642 214.7 1669.8 223.3C1697.7 232 1725.3 228 1753.2 216.8C1781 205.7 1809 187.3 1836.8 177.7C1864.7 168 1892.3 167 1906.2 166.5L1920 166L1920 0L1906.2 0C1892.3 0 1864.7 0 1836.8 0C1809 0 1781 0 1753.2 0C1725.3 0 1697.7 0 1669.8 0C1642 0 1614 0 1586.2 0C1558.3 0 1530.7 0 1502.8 0C1475 0 1447 0 1419.2 0C1391.3 0 1363.7 0 1335.8 0C1308 0 1280 0 1252.2 0C1224.3 0 1196.7 0 1168.8 0C1141 0 1113 0 1085.2 0C1057.3 0 1029.7 0 1001.8 0C974 0 946 0 918.2 0C890.3 0 862.7 0 834.8 0C807 0 779 0 751.2 0C723.3 0 695.7 0 667.8 0C640 0 612 0 584.2 0C556.3 0 528.7 0 500.8 0C473 0 445 0 417.2 0C389.3 0 361.7 0 333.8 0C306 0 278 0 250.2 0C222.3 0 194.7 0 166.8 0C139 0 111 0 83.2 0C55.3 0 27.7 0 13.8 0L0 0Z" fill="#f46a4a"></path><path d="M0 180L13.8 172.7C27.7 165.3 55.3 150.7 83.2 146.3C111 142 139 148 166.8 156.7C194.7 165.3 222.3 176.7 250.2 179.2C278 181.7 306 175.3 333.8 166.3C361.7 157.3 389.3 145.7 417.2 147.2C445 148.7 473 163.3 500.8 171.3C528.7 179.3 556.3 180.7 584.2 177.5C612 174.3 640 166.7 667.8 160.2C695.7 153.7 723.3 148.3 751.2 141.5C779 134.7 807 126.3 834.8 124.5C862.7 122.7 890.3 127.3 918.2 128.8C946 130.3 974 128.7 1001.8 134.2C1029.7 139.7 1057.3 152.3 1085.2 160C1113 167.7 1141 170.3 1168.8 175.3C1196.7 180.3 1224.3 187.7 1252.2 185.2C1280 182.7 1308 170.3 1335.8 168.2C1363.7 166 1391.3 174 1419.2 176.5C1447 179 1475 176 1502.8 172.3C1530.7 168.7 1558.3 164.3 1586.2 163.2C1614 162 1642 164 1669.8 167.2C1697.7 170.3 1725.3 174.7 1753.2 174.2C1781 173.7 1809 168.3 1836.8 170.5C1864.7 172.7 1892.3 182.3 1906.2 187.2L1920 192L1920 0L1906.2 0C1892.3 0 1864.7 0 1836.8 0C1809 0 1781 0 1753.2 0C1725.3 0 1697.7 0 1669.8 0C1642 0 1614 0 1586.2 0C1558.3 0 1530.7 0 1502.8 0C1475 0 1447 0 1419.2 0C1391.3 0 1363.7 0 1335.8 0C1308 0 1280 0 1252.2 0C1224.3 0 1196.7 0 1168.8 0C1141 0 1113 0 1085.2 0C1057.3 0 1029.7 0 1001.8 0C974 0 946 0 918.2 0C890.3 0 862.7 0 834.8 0C807 0 779 0 751.2 0C723.3 0 695.7 0 667.8 0C640 0 612 0 584.2 0C556.3 0 528.7 0 500.8 0C473 0 445 0 417.2 0C389.3 0 361.7 0 333.8 0C306 0 278 0 250.2 0C222.3 0 194.7 0 166.8 0C139 0 111 0 83.2 0C55.3 0 27.7 0 13.8 0L0 0Z" fill="#f77557"></path><path d="M0 129L13.8 128.2C27.7 127.3 55.3 125.7 83.2 122.2C111 118.7 139 113.3 166.8 109C194.7 104.7 222.3 101.3 250.2 106.2C278 111 306 124 333.8 127.2C361.7 130.3 389.3 123.7 417.2 116C445 108.3 473 99.7 500.8 94.7C528.7 89.7 556.3 88.3 584.2 89.7C612 91 640 95 667.8 101.5C695.7 108 723.3 117 751.2 115.3C779 113.7 807 101.3 834.8 105.2C862.7 109 890.3 129 918.2 133.8C946 138.7 974 128.3 1001.8 125.3C1029.7 122.3 1057.3 126.7 1085.2 128C1113 129.3 1141 127.7 1168.8 129.8C1196.7 132 1224.3 138 1252.2 131.3C1280 124.7 1308 105.3 1335.8 106.2C1363.7 107 1391.3 128 1419.2 132.3C1447 136.7 1475 124.3 1502.8 123.5C1530.7 122.7 1558.3 133.3 1586.2 130C1614 126.7 1642 109.3 1669.8 105.7C1697.7 102 1725.3 112 1753.2 112.5C1781 113 1809 104 1836.8 102.5C1864.7 101 1892.3 107 1906.2 110L1920 113L1920 0L1906.2 0C1892.3 0 1864.7 0 1836.8 0C1809 0 1781 0 1753.2 0C1725.3 0 1697.7 0 1669.8 0C1642 0 1614 0 1586.2 0C1558.3 0 1530.7 0 1502.8 0C1475 0 1447 0 1419.2 0C1391.3 0 1363.7 0 1335.8 0C1308 0 1280 0 1252.2 0C1224.3 0 1196.7 0 1168.8 0C1141 0 1113 0 1085.2 0C1057.3 0 1029.7 0 1001.8 0C974 0 946 0 918.2 0C890.3 0 862.7 0 834.8 0C807 0 779 0 751.2 0C723.3 0 695.7 0 667.8 0C640 0 612 0 584.2 0C556.3 0 528.7 0 500.8 0C473 0 445 0 417.2 0C389.3 0 361.7 0 333.8 0C306 0 278 0 250.2 0C222.3 0 194.7 0 166.8 0C139 0 111 0 83.2 0C55.3 0 27.7 0 13.8 0L0 0Z" fill="#fa8064"></path><path d="M0 55L13.8 64.7C27.7 74.3 55.3 93.7 83.2 93.5C111 93.3 139 73.7 166.8 67C194.7 60.3 222.3 66.7 250.2 68C278 69.3 306 65.7 333.8 63.7C361.7 61.7 389.3 61.3 417.2 65C445 68.7 473 76.3 500.8 77.2C528.7 78 556.3 72 584.2 74.8C612 77.7 640 89.3 667.8 94.2C695.7 99 723.3 97 751.2 94.3C779 91.7 807 88.3 834.8 90.7C862.7 93 890.3 101 918.2 100.7C946 100.3 974 91.7 1001.8 85.7C1029.7 79.7 1057.3 76.3 1085.2 74C1113 71.7 1141 70.3 1168.8 73.8C1196.7 77.3 1224.3 85.7 1252.2 86C1280 86.3 1308 78.7 1335.8 78.2C1363.7 77.7 1391.3 84.3 1419.2 83.7C1447 83 1475 75 1502.8 72.8C1530.7 70.7 1558.3 74.3 1586.2 75.2C1614 76 1642 74 1669.8 73.2C1697.7 72.3 1725.3 72.7 1753.2 76C1781 79.3 1809 85.7 1836.8 84.3C1864.7 83 1892.3 74 1906.2 69.5L1920 65L1920 0L1906.2 0C1892.3 0 1864.7 0 1836.8 0C1809 0 1781 0 1753.2 0C1725.3 0 1697.7 0 1669.8 0C1642 0 1614 0 1586.2 0C1558.3 0 1530.7 0 1502.8 0C1475 0 1447 0 1419.2 0C1391.3 0 1363.7 0 1335.8 0C1308 0 1280 0 1252.2 0C1224.3 0 1196.7 0 1168.8 0C1141 0 1113 0 1085.2 0C1057.3 0 1029.7 0 1001.8 0C974 0 946 0 918.2 0C890.3 0 862.7 0 834.8 0C807 0 779 0 751.2 0C723.3 0 695.7 0 667.8 0C640 0 612 0 584.2 0C556.3 0 528.7 0 500.8 0C473 0 445 0 417.2 0C389.3 0 361.7 0 333.8 0C306 0 278 0 250.2 0C222.3 0 194.7 0 166.8 0C139 0 111 0 83.2 0C55.3 0 27.7 0 13.8 0L0 0Z" fill="#fd8a70"></path><path d="M0 25L13.8 27.8C27.7 30.7 55.3 36.3 83.2 36.5C111 36.7 139 31.3 166.8 35.3C194.7 39.3 222.3 52.7 250.2 53.7C278 54.7 306 43.3 333.8 37C361.7 30.7 389.3 29.3 417.2 34.2C445 39 473 50 500.8 51.2C528.7 52.3 556.3 43.7 584.2 38.5C612 33.3 640 31.7 667.8 31.8C695.7 32 723.3 34 751.2 37.3C779 40.7 807 45.3 834.8 50.5C862.7 55.7 890.3 61.3 918.2 57.7C946 54 974 41 1001.8 35.7C1029.7 30.3 1057.3 32.7 1085.2 32.8C1113 33 1141 31 1168.8 37.2C1196.7 43.3 1224.3 57.7 1252.2 57.2C1280 56.7 1308 41.3 1335.8 38.7C1363.7 36 1391.3 46 1419.2 46.3C1447 46.7 1475 37.3 1502.8 33.3C1530.7 29.3 1558.3 30.7 1586.2 35.7C1614 40.7 1642 49.3 1669.8 54.2C1697.7 59 1725.3 60 1753.2 61.3C1781 62.7 1809 64.3 1836.8 65.8C1864.7 67.3 1892.3 68.7 1906.2 69.3L1920 70L1920 0L1906.2 0C1892.3 0 1864.7 0 1836.8 0C1809 0 1781 0 1753.2 0C1725.3 0 1697.7 0 1669.8 0C1642 0 1614 0 1586.2 0C1558.3 0 1530.7 0 1502.8 0C1475 0 1447 0 1419.2 0C1391.3 0 1363.7 0 1335.8 0C1308 0 1280 0 1252.2 0C1224.3 0 1196.7 0 1168.8 0C1141 0 1113 0 1085.2 0C1057.3 0 1029.7 0 1001.8 0C974 0 946 0 918.2 0C890.3 0 862.7 0 834.8 0C807 0 779 0 751.2 0C723.3 0 695.7 0 667.8 0C640 0 612 0 584.2 0C556.3 0 528.7 0 500.8 0C473 0 445 0 417.2 0C389.3 0 361.7 0 333.8 0C306 0 278 0 250.2 0C222.3 0 194.7 0 166.8 0C139 0 111 0 83.2 0C55.3 0 27.7 0 13.8 0L0 0Z" fill="#ff957d"></path></svg>