<svg id="visual" viewBox="0 0 1920 1080" width="1920" height="1080" xmlns="http://www.w3.org/2000/svg" xmlns:xlink="http://www.w3.org/1999/xlink" version="1.1"><rect x="0" y="0" width="1920" height="1080" fill="#023859"></rect><path d="M0 174L13.8 166.7C27.7 159.3 55.3 144.7 83.2 139.8C111 135 139 140 166.8 147.2C194.7 154.3 222.3 163.7 250.2 163.3C278 163 306 153 333.8 147.2C361.7 141.3 389.3 139.7 417.2 133.3C445 127 473 116 500.8 109C528.7 102 556.3 99 584.2 103.5C612 108 640 120 667.8 122.2C695.7 124.3 723.3 116.7 751.2 121.8C779 127 807 145 834.8 146.8C862.7 148.7 890.3 134.3 918.2 134.3C946 134.3 974 148.7 1001.8 147C1029.7 145.3 1057.3 127.7 1085.2 121.5C1113 115.3 1141 120.7 1168.8 125.2C1196.7 129.7 1224.3 133.3 1252.2 139.5C1280 145.7 1308 154.3 1335.8 148.8C1363.7 143.3 1391.3 123.7 1419.2 125C1447 126.3 1475 148.7 1502.8 148.7C1530.7 148.7 1558.3 126.3 1586.2 119.8C1614 113.3 1642 122.7 1669.8 128.3C1697.7 134 1725.3 136 1753.2 141C1781 146 1809 154 1836.8 147.7C1864.7 141.3 1892.3 120.7 1906.2 110.3L1920 100L1920 0L1906.2 0C1892.3 0 1864.7 0 1836.8 0C1809 0 1781 0 1753.2 0C1725.3 0 1697.7 0 1669.8 0C1642 0 1614 0 1586.2 0C1558.3 0 1530.7 0 1502.8 0C1475 0 1447 0 1419.2 0C1391.3 0 1363.7 0 1335.8 0C1308 0 1280 0 1252.2 0C1224.3 0 1196.7 0 1168.8 0C1141 0 1113 0 1085.2 0C1057.3 0 1029.7 0 1001.8 0C974 0 946 0 918.2 0C890.3 0 862.7 0 834.8 0C807 0 779 0 751.2 0C723.3 0 695.7 0 667.8 0C640 0 612 0 584.2 0C556.3 0 528.7 0 500.8 0C473 0 445 0 417.2 0C389.3 0 361.7 0 333.8 0C306 0 278 0 250.2 0C222.3 0 194.7 0 166.8 0C139 0 111 0 83.2 0C55.3 0 27.7 0 13.8 0L0 0Z" fill="#b6462f"></path><path d="M0 101L13.8 104C27.7 107 55.3 113 83.2 119.8C111 126.7 139 134.3 166.8 130C194.7 125.7 222.3 109.3 250.2 107.8C278 106.3 306 119.7 333.8 120.7C361.7 121.7 389.3 110.3 417.2 103.5C445 96.7 473 94.3 500.8 99.2C528.7 104 556.3 116 584.2 120.8C612 125.7 640 123.3 667.8 126.2C695.7 129 723.3 137 751.2 132.7C779 128.3 807 111.7 834.8 107.8C862.7 104 890.3 113 918.2 112.3C946 111.7 974 101.3 1001.8 105.3C1029.7 109.3 1057.3 127.7 1085.2 129.7C1113 131.7 1141 117.3 1168.8 109C1196.7 100.7 1224.3 98.3 1252.2 98C1280 97.7 1308 99.3 1335.8 107.8C1363.7 116.3 1391.3 131.7 1419.2 130.5C1447 129.3 1475 111.7 1502.8 112.7C1530.7 113.7 1558.3 133.3 1586.2 139.5C1614 145.7 1642 138.3 1669.8 135.2C1697.7 132 1725.3 133 1753.2 125.3C1781 117.7 1809 101.3 1836.8 100.2C1864.7 99 1892.3 113 1906.2 120L1920 127L1920 0L1906.2 0C1892.3 0 1864.7 0 1836.8 0C1809 0 1781 0 1753.2 0C1725.3 0 1697.7 0 1669.8 0C1642 0 1614 0 1586.2 0C1558.3 0 1530.7 0 1502.8 0C1475 0 1447 0 1419.2 0C1391.3 0 1363.7 0 1335.8 0C1308 0 1280 0 1252.2 0C1224.3 0 1196.7 0 1168.8 0C1141 0 1113 0 1085.2 0C1057.3 0 1029.7 0 1001.8 0C974 0 946 0 918.2 0C890.3 0 862.7 0 834.8 0C807 0 779 0 751.2 0C723.3 0 695.7 0 667.8 0C640 0 612 0 584.2 0C556.3 0 528.7 0 500.8 0C473 0 445 0 417.2 0C389.3 0 361.7 0 333.8 0C306 0 278 0 250.2 0C222.3 0 194.7 0 166.8 0C139 0 111 0 83.2 0C55.3 0 27.7 0 13.8 0L0 0Z" fill="#c54d34"></path><path d="M0 119L13.8 114.7C27.7 110.3 55.3 101.7 83.2 104C111 106.3 139 119.7 166.8 126.2C194.7 132.7 222.3 132.3 250.2 133C278 133.7 306 135.3 333.8 128.5C361.7 121.7 389.3 106.3 417.2 96.5C445 86.7 473 82.3 500.8 88.8C528.7 95.3 556.3 112.7 584.2 121C612 129.3 640 128.7 667.8 125.3C695.7 122 723.3 116 751.2 116.7C779 117.3 807 124.7 834.8 124.2C862.7 123.7 890.3 115.3 918.2 113.5C946 111.7 974 116.3 1001.8 110.8C1029.7 105.3 1057.3 89.7 1085.2 83.3C1113 77 1141 80 1168.8 84.5C1196.7 89 1224.3 95 1252.2 102.5C1280 110 1308 119 1335.8 119.3C1363.7 119.7 1391.3 111.3 1419.2 109.5C1447 107.7 1475 112.3 1502.8 111.3C1530.7 110.3 1558.3 103.7 1586.2 100.3C1614 97 1642 97 1669.8 100.5C1697.7 104 1725.3 111 1753.2 113.5C1781 116 1809 114 1836.8 115.2C1864.7 116.3 1892.3 120.7 1906.2 122.8L1920 125L1920 0L1906.2 0C1892.3 0 1864.7 0 1836.8 0C1809 0 1781 0 1753.2 0C1725.3 0 1697.7 0 1669.8 0C1642 0 1614 0 1586.2 0C1558.3 0 1530.7 0 1502.8 0C1475 0 1447 0 1419.2 0C1391.3 0 1363.7 0 1335.8 0C1308 0 1280 0 1252.2 0C1224.3 0 1196.7 0 1168.8 0C1141 0 1113 0 1085.2 0C1057.3 0 1029.7 0 1001.8 0C974 0 946 0 918.2 0C890.3 0 862.7 0 834.8 0C807 0 779 0 751.2 0C723.3 0 695.7 0 667.8 0C640 0 612 0 584.2 0C556.3 0 528.7 0 500.8 0C473 0 445 0 417.2 0C389.3 0 361.7 0 333.8 0C306 0 278 0 250.2 0C222.3 0 194.7 0 166.8 0C139 0 111 0 83.2 0C55.3 0 27.7 0 13.8 0L0 0Z" fill="#d45539"></path><path d="M0 66L13.8 71C27.7 76 55.3 86 83.2 90.8C111 95.7 139 95.3 166.8 96.7C194.7 98 222.3 101 250.2 98.8C278 96.7 306 89.3 333.8 84.8C361.7 80.3 389.3 78.7 417.2 82C445 85.3 473 93.7 500.8 100.7C528.7 107.7 556.3 113.3 584.2 115C612 116.7 640 114.3 667.8 109.2C695.7 104 723.3 96 751.2 97.3C779 98.7 807 109.3 834.8 105.7C862.7 102 890.3 84 918.2 77.2C946 70.3 974 74.7 1001.8 80.5C1029.7 86.3 1057.3 93.7 1085.2 95.8C1113 98 1141 95 1168.8 93.8C1196.7 92.7 1224.3 93.3 1252.2 90C1280 86.7 1308 79.3 1335.8 77.7C1363.7 76 1391.3 80 1419.2 86.2C1447 92.3 1475 100.7 1502.8 103.3C1530.7 106 1558.3 103 1586.2 103.2C1614 103.3 1642 106.7 1669.8 102C1697.7 97.3 1725.3 84.7 1753.2 78.5C1781 72.3 1809 72.7 1836.8 78C1864.7 83.3 1892.3 93.7 1906.2 98.8L1920 104L1920 0L1906.2 0C1892.3 0 1864.7 0 1836.8 0C1809 0 1781 0 1753.2 0C1725.3 0 1697.7 0 1669.8 0C1642 0 1614 0 1586.2 0C1558.3 0 1530.7 0 1502.8 0C1475 0 1447 0 1419.2 0C1391.3 0 1363.7 0 1335.8 0C1308 0 1280 0 1252.2 0C1224.3 0 1196.7 0 1168.8 0C1141 0 1113 0 1085.2 0C1057.3 0 1029.7 0 1001.8 0C974 0 946 0 918.2 0C890.3 0 862.7 0 834.8 0C807 0 779 0 751.2 0C723.3 0 695.7 0 667.8 0C640 0 612 0 584.2 0C556.3 0 528.7 0 500.8 0C473 0 445 0 417.2 0C389.3 0 361.7 0 333.8 0C306 0 278 0 250.2 0C222.3 0 194.7 0 166.8 0C139 0 111 0 83.2 0C55.3 0 27.7 0 13.8 0L0 0Z" fill="#e35c3f"></path><path d="M0 101L13.8 99.2C27.7 97.3 55.3 93.7 83.2 92.5C111 91.3 139 92.7 166.8 94.7C194.7 96.7 222.3 99.3 250.2 96.5C278 93.7 306 85.3 333.8 82.2C361.7 79 389.3 81 417.2 82.3C445 83.7 473 84.3 500.8 82.3C528.7 80.3 556.3 75.7 584.2 73.5C612 71.3 640 71.7 667.8 69.7C695.7 67.7 723.3 63.3 751.2 65.3C779 67.3 807 75.7 834.8 82.5C862.7 89.3 890.3 94.7 918.2 91.7C946 88.7 974 77.3 1001.8 75C1029.7 72.7 1057.3 79.3 1085.2 83.2C1113 87 1141 88 1168.8 90.3C1196.7 92.7 1224.3 96.3 1252.2 94.5C1280 92.7 1308 85.3 1335.8 83C1363.7 80.7 1391.3 83.3 1419.2 85C1447 86.7 1475 87.3 1502.8 85C1530.7 82.7 1558.3 77.3 1586.2 74.7C1614 72 1642 72 1669.8 75.3C1697.7 78.7 1725.3 85.3 1753.2 86.5C1781 87.7 1809 83.3 1836.8 78.2C1864.7 73 1892.3 67 1906.2 64L1920 61L1920 0L1906.2 0C1892.3 0 1864.7 0 1836.8 0C1809 0 1781 0 1753.2 0C1725.3 0 1697.7 0 1669.8 0C1642 0 1614 0 1586.2 0C1558.3 0 1530.7 0 1502.8 0C1475 0 1447 0 1419.2 0C1391.3 0 1363.7 0 1335.8 0C1308 0 1280 0 1252.2 0C1224.3 0 1196.7 0 1168.8 0C1141 0 1113 0 1085.2 0C1057.3 0 1029.7 0 1001.8 0C974 0 946 0 918.2 0C890.3 0 862.7 0 834.8 0C807 0 779 0 751.2 0C723.3 0 695.7 0 667.8 0C640 0 612 0 584.2 0C556.3 0 528.7 0 500.8 0C473 0 445 0 417.2 0C389.3 0 361.7 0 333.8 0C306 0 278 0 250.2 0C222.3 0 194.7 0 166.8 0C139 0 111 0 83.2 0C55.3 0 27.7 0 13.8 0L0 0Z" fill="#f26444"></path><path d="M0 78L13.8 72.7C27.7 67.3 55.3 56.7 83.2 54.7C111 52.7 139 59.3 166.8 64.8C194.7 70.3 222.3 74.7 250.2 71.2C278 67.7 306 56.3 333.8 50.7C361.7 45 389.3 45 417.2 46.3C445 47.7 473 50.3 500.8 52.8C528.7 55.3 556.3 57.7 584.2 58.3C612 59 640 58 667.8 58.5C695.7 59 723.3 61 751.2 61.5C779 62 807 61 834.8 60.7C862.7 60.3 890.3 60.7 918.2 64.2C946 67.7 974 74.3 1001.8 77.8C1029.7 81.3 1057.3 81.7 1085.2 79.7C1113 77.7 1141 73.3 1168.8 67.7C1196.7 62 1224.3 55 1252.2 52.5C1280 50 1308 52 1335.8 55.5C1363.7 59 1391.3 64 1419.2 64.2C1447 64.3 1475 59.7 1502.8 55.2C1530.7 50.7 1558.3 46.3 1586.2 48.3C1614 50.3 1642 58.7 1669.8 60C1697.7 61.3 1725.3 55.7 1753.2 51.8C1781 48 1809 46 1836.8 47C1864.7 48 1892.3 52 1906.2 54L1920 56L1920 0L1906.2 0C1892.3 0 1864.7 0 1836.8 0C1809 0 1781 0 1753.2 0C1725.3 0 1697.7 0 1669.8 0C1642 0 1614 0 1586.2 0C1558.3 0 1530.7 0 1502.8 0C1475 0 1447 0 1419.2 0C1391.3 0 1363.7 0 1335.8 0C1308 0 1280 0 1252.2 0C1224.3 0 1196.7 0 1168.8 0C1141 0 1113 0 1085.2 0C1057.3 0 1029.7 0 1001.8 0C974 0 946 0 918.2 0C890.3 0 862.7 0 834.8 0C807 0 779 0 751.2 0C723.3 0 695.7 0 667.8 0C640 0 612 0 584.2 0C556.3 0 528.7 0 500.8 0C473 0 445 0 417.2 0C389.3 0 361.7 0 333.8 0C306 0 278 0 250.2 0C222.3 0 194.7 0 166.8 0C139 0 111 0 83.2 0C55.3 0 27.7 0 13.8 0L0 0Z" fill="#f67152"></path><path d="M0 31L13.8 32.7C27.7 34.3 55.3 37.7 83.2 38.8C111 40 139 39 166.8 38C194.7 37 222.3 36 250.2 38.2C278 40.3 306 45.7 333.8 49.2C361.7 52.7 389.3 54.3 417.2 53.2C445 52 473 48 500.8 49.3C528.7 50.7 556.3 57.3 584.2 60.5C612 63.7 640 63.3 667.8 60.7C695.7 58 723.3 53 751.2 52.7C779 52.3 807 56.7 834.8 58C862.7 59.3 890.3 57.7 918.2 52.7C946 47.7 974 39.3 1001.8 35.2C1029.7 31 1057.3 31 1085.2 36C1113 41 1141 51 1168.8 51.5C1196.7 52 1224.3 43 1252.2 38.3C1280 33.7 1308 33.3 1335.8 35.3C1363.7 37.3 1391.3 41.7 1419.2 44.8C1447 48 1475 50 1502.8 52.5C1530.7 55 1558.3 58 1586.2 59.2C1614 60.3 1642 59.7 1669.8 56.2C1697.7 52.7 1725.3 46.3 1753.2 42.7C1781 39 1809 38 1836.8 38.8C1864.7 39.7 1892.3 42.3 1906.2 43.7L1920 45L1920 0L1906.2 0C1892.3 0 1864.7 0 1836.8 0C1809 0 1781 0 1753.2 0C1725.3 0 1697.7 0 1669.8 0C1642 0 1614 0 1586.2 0C1558.3 0 1530.7 0 1502.8 0C1475 0 1447 0 1419.2 0C1391.3 0 1363.7 0 1335.8 0C1308 0 1280 0 1252.2 0C1224.3 0 1196.7 0 1168.8 0C1141 0 1113 0 1085.2 0C1057.3 0 1029.7 0 1001.8 0C974 0 946 0 918.2 0C890.3 0 862.7 0 834.8 0C807 0 779 0 751.2 0C723.3 0 695.7 0 667.8 0C640 0 612 0 584.2 0C556.3 0 528.7 0 500.8 0C473 0 445 0 417.2 0C389.3 0 361.7 0 333.8 0C306 0 278 0 250.2 0C222.3 0 194.7 0 166.8 0C139 0 111 0 83.2 0C55.3 0 27.7 0 13.8 0L0 0Z" fill="#f97d61"></path><path d="M0 38L13.8 35C27.7 32 55.3 26 83.2 26.2C111 26.3 139 32.7 166.8 34.8C194.7 37 222.3 35 250.2 34.7C278 34.3 306 35.7 333.8 35.8C361.7 36 389.3 35 417.2 33.5C445 32 473 30 500.8 28.2C528.7 26.3 556.3 24.7 584.2 27.2C612 29.7 640 36.3 667.8 36.3C695.7 36.3 723.3 29.7 751.2 29C779 28.3 807 33.7 834.8 35.8C862.7 38 890.3 37 918.2 37.7C946 38.3 974 40.7 1001.8 41.5C1029.7 42.3 1057.3 41.7 1085.2 38.3C1113 35 1141 29 1168.8 28.2C1196.7 27.3 1224.3 31.7 1252.2 32.2C1280 32.7 1308 29.3 1335.8 29.2C1363.7 29 1391.3 32 1419.2 32.7C1447 33.3 1475 31.7 1502.8 32.2C1530.7 32.7 1558.3 35.3 1586.2 36C1614 36.7 1642 35.3 1669.8 34C1697.7 32.7 1725.3 31.3 1753.2 30.5C1781 29.7 1809 29.3 1836.8 29.3C1864.7 29.3 1892.3 29.7 1906.2 29.8L1920 30L1920 0L1906.2 0C1892.3 0 1864.7 0 1836.8 0C1809 0 1781 0 1753.2 0C1725.3 0 1697.7 0 1669.8 0C1642 0 1614 0 1586.2 0C1558.3 0 1530.7 0 1502.8 0C1475 0 1447 0 1419.2 0C1391.3 0 1363.7 0 1335.8 0C1308 0 1280 0 1252.2 0C1224.3 0 1196.7 0 1168.8 0C1141 0 1113 0 1085.2 0C1057.3 0 1029.7 0 1001.8 0C974 0 946 0 918.2 0C890.3 0 862.7 0 834.8 0C807 0 779 0 751.2 0C723.3 0 695.7 0 667.8 0C640 0 612 0 584.2 0C556.3 0 528.7 0 500.8 0C473 0 445 0 417.2 0C389.3 0 361.7 0 333.8 0C306 0 278 0 250.2 0C222.3 0 194.7 0 166.8 0C139 0 111 0 83.2 0C55.3 0 27.7 0 13.8 0L0 0Z" fill="#fc896f"></path><path d="M0 28L13.8 28C27.7 28 55.3 28 83.2 26.2C111 24.3 139 20.7 166.8 21.2C194.7 21.7 222.3 26.3 250.2 25.5C278 24.7 306 18.3 333.8 17.7C361.7 17 389.3 22 417.2 23.8C445 25.7 473 24.3 500.8 23.7C528.7 23 556.3 23 584.2 21C612 19 640 15 667.8 14C695.7 13 723.3 15 751.2 15.2C779 15.3 807 13.7 834.8 12.7C862.7 11.7 890.3 11.3 918.2 13.8C946 16.3 974 21.7 1001.8 24C1029.7 26.3 1057.3 25.7 1085.2 24.3C1113 23 1141 21 1168.8 20.8C1196.7 20.7 1224.3 22.3 1252.2 21.5C1280 20.7 1308 17.3 1335.8 17.5C1363.7 17.7 1391.3 21.3 1419.2 23.8C1447 26.3 1475 27.7 1502.8 28.7C1530.7 29.7 1558.3 30.3 1586.2 30.3C1614 30.3 1642 29.7 1669.8 27.3C1697.7 25 1725.3 21 1753.2 19.2C1781 17.3 1809 17.7 1836.8 16.8C1864.7 16 1892.3 14 1906.2 13L1920 12L1920 0L1906.2 0C1892.3 0 1864.7 0 1836.8 0C1809 0 1781 0 1753.2 0C1725.3 0 1697.7 0 1669.8 0C1642 0 1614 0 1586.2 0C1558.3 0 1530.7 0 1502.8 0C1475 0 1447 0 1419.2 0C1391.3 0 1363.7 0 1335.8 0C1308 0 1280 0 1252.2 0C1224.3 0 1196.7 0 1168.8 0C1141 0 1113 0 1085.2 0C1057.3 0 1029.7 0 1001.8 0C974 0 946 0 918.2 0C890.3 0 862.7 0 834.8 0C807 0 779 0 751.2 0C723.3 0 695.7 0 667.8 0C640 0 612 0 584.2 0C556.3 0 528.7 0 500.8 0C473 0 445 0 417.2 0C389.3 0 361.7 0 333.8 0C306 0 278 0 250.2 0C222.3 0 194.7 0 166.8 0C139 0 111 0 83.2 0C55.3 0 27.7 0 13.8 0L0 0Z" fill="#ff957d"></path></svg>