<svg id="visual" viewBox="0 0 1920 1080" width="1920" height="1080" xmlns="http://www.w3.org/2000/svg" xmlns:xlink="http://www.w3.org/1999/xlink" version="1.1"><path d="M0 12L13.8 24.5C27.7 37 55.3 62 83.2 71C111 80 139 73 166.8 78.5C194.7 84 222.3 102 250.2 96.5C278 91 306 62 333.8 42C361.7 22 389.3 11 417.2 5.5C445 0 473 0 500.8 7.3C528.7 14.7 556.3 29.3 584.2 49.3C612 69.3 640 94.7 667.8 101.8C695.7 109 723.3 98 751.2 94.3C779 90.7 807 94.3 834.8 87.2C862.7 80 890.3 62 918.2 49.5C946 37 974 30 1001.8 24.7C1029.7 19.3 1057.3 15.7 1085.2 24.7C1113 33.7 1141 55.3 1168.8 60.7C1196.7 66 1224.3 55 1252.2 53.2C1280 51.3 1308 58.7 1335.8 69.5C1363.7 80.3 1391.3 94.7 1419.2 94.7C1447 94.7 1475 80.3 1502.8 75C1530.7 69.7 1558.3 73.3 1586.2 66.2C1614 59 1642 41 1669.8 44.5C1697.7 48 1725.3 73 1753.2 82C1781 91 1809 84 1836.8 78.7C1864.7 73.3 1892.3 69.7 1906.2 67.8L1920 66L1920 0L1906.2 0C1892.3 0 1864.7 0 1836.8 0C1809 0 1781 0 1753.2 0C1725.3 0 1697.7 0 1669.8 0C1642 0 1614 0 1586.2 0C1558.3 0 1530.7 0 1502.8 0C1475 0 1447 0 1419.2 0C1391.3 0 1363.7 0 1335.8 0C1308 0 1280 0 1252.2 0C1224.3 0 1196.7 0 1168.8 0C1141 0 1113 0 1085.2 0C1057.3 0 1029.7 0 1001.8 0C974 0 946 0 918.2 0C890.3 0 862.7 0 834.8 0C807 0 779 0 751.2 0C723.3 0 695.7 0 667.8 0C640 0 612 0 584.2 0C556.3 0 528.7 0 500.8 0C473 0 445 0 417.2 0C389.3 0 361.7 0 333.8 0C306 0 278 0 250.2 0C222.3 0 194.7 0 166.8 0C139 0 111 0 83.2 0C55.3 0 27.7 0 13.8 0L0 0Z" fill="#023859"></path><path d="M0 44L13.8 65.7C27.7 87.3 55.3 130.7 83.2 145.2C111 159.7 139 145.3 166.8 148.8C194.7 152.3 222.3 173.7 250.2 168.2C278 162.7 306 130.3 333.8 99.8C361.7 69.3 389.3 40.7 417.2 33.5C445 26.3 473 40.7 500.8 55C528.7 69.3 556.3 83.7 584.2 99.8C612 116 640 134 667.8 135.8C695.7 137.7 723.3 123.3 751.2 125.2C779 127 807 145 834.8 143.2C862.7 141.3 890.3 119.7 918.2 99.8C946 80 974 62 1001.8 54.8C1029.7 47.7 1057.3 51.3 1085.2 58.5C1113 65.7 1141 76.3 1168.8 90.7C1196.7 105 1224.3 123 1252.2 119.5C1280 116 1308 91 1335.8 100C1363.7 109 1391.3 152 1419.2 166.3C1447 180.7 1475 166.3 1502.8 155.7C1530.7 145 1558.3 138 1586.2 125.5C1614 113 1642 95 1669.8 100.3C1697.7 105.7 1725.3 134.3 1753.2 136C1781 137.7 1809 112.3 1836.8 96.2C1864.7 80 1892.3 73 1906.2 69.5L1920 66L1920 64L1906.2 65.8C1892.3 67.7 1864.7 71.3 1836.8 76.7C1809 82 1781 89 1753.2 80C1725.3 71 1697.7 46 1669.8 42.5C1642 39 1614 57 1586.2 64.2C1558.3 71.3 1530.7 67.7 1502.8 73C1475 78.3 1447 92.7 1419.2 92.7C1391.3 92.7 1363.7 78.3 1335.8 67.5C1308 56.7 1280 49.3 1252.2 51.2C1224.3 53 1196.7 64 1168.8 58.7C1141 53.3 1113 31.7 1085.2 22.7C1057.3 13.7 1029.7 17.3 1001.8 22.7C974 28 946 35 918.2 47.5C890.3 60 862.7 78 834.8 85.2C807 92.3 779 88.7 751.2 92.3C723.3 96 695.7 107 667.8 99.8C640 92.7 612 67.3 584.2 47.7C556.3 28 528.7 14 500.8 7C473 0 445 0 417.2 5.2C389.3 10.3 361.7 20.7 333.8 40.3C306 60 278 89 250.2 94.5C222.3 100 194.7 82 166.8 76.5C139 71 111 78 83.2 69C55.3 60 27.7 35 13.8 22.5L0 10Z" fill="#42437a"></path><path d="M0 152L13.8 171.8C27.7 191.7 55.3 231.3 83.2 236.8C111 242.3 139 213.7 166.8 208.3C194.7 203 222.3 221 250.2 221C278 221 306 203 333.8 165.2C361.7 127.3 389.3 69.7 417.2 67.8C445 66 473 120 500.8 154.2C528.7 188.3 556.3 202.7 584.2 215.2C612 227.7 640 238.3 667.8 231.2C695.7 224 723.3 199 751.2 202.7C779 206.3 807 238.7 834.8 235C862.7 231.3 890.3 191.7 918.2 171.8C946 152 974 152 1001.8 144.8C1029.7 137.7 1057.3 123.3 1085.2 112.5C1113 101.7 1141 94.3 1168.8 117.7C1196.7 141 1224.3 195 1252.2 214.8C1280 234.7 1308 220.3 1335.8 220.3C1363.7 220.3 1391.3 234.7 1419.2 225.7C1447 216.7 1475 184.3 1502.8 182.7C1530.7 181 1558.3 210 1586.2 213.7C1614 217.3 1642 195.7 1669.8 202.8C1697.7 210 1725.3 246 1753.2 253.2C1781 260.3 1809 238.7 1836.8 213.5C1864.7 188.3 1892.3 159.7 1906.2 145.3L1920 131L1920 64L1906.2 67.5C1892.3 71 1864.7 78 1836.8 94.2C1809 110.3 1781 135.7 1753.2 134C1725.3 132.3 1697.7 103.7 1669.8 98.3C1642 93 1614 111 1586.2 123.5C1558.3 136 1530.7 143 1502.8 153.7C1475 164.3 1447 178.7 1419.2 164.3C1391.3 150 1363.7 107 1335.8 98C1308 89 1280 114 1252.2 117.5C1224.3 121 1196.7 103 1168.8 88.7C1141 74.3 1113 63.7 1085.2 56.5C1057.3 49.3 1029.7 45.7 1001.8 52.8C974 60 946 78 918.2 97.8C890.3 117.7 862.7 139.3 834.8 141.2C807 143 779 125 751.2 123.2C723.3 121.3 695.7 135.7 667.8 133.8C640 132 612 114 584.2 97.8C556.3 81.7 528.7 67.3 500.8 53C473 38.7 445 24.3 417.2 31.5C389.3 38.7 361.7 67.3 333.8 97.8C306 128.3 278 160.7 250.2 166.2C222.3 171.7 194.7 150.3 166.8 146.8C139 143.3 111 157.7 83.2 143.2C55.3 128.7 27.7 85.3 13.8 63.7L0 42Z" fill="#854586"></path><path d="M0 293L13.8 305.5C27.7 318 55.3 343 83.2 397C111 451 139 534 166.8 537.7C194.7 541.3 222.3 465.7 250.2 424.2C278 382.7 306 375.3 333.8 326.7C361.7 278 389.3 188 417.2 166.5C445 145 473 192 500.8 233.5C528.7 275 556.3 311 584.2 352.3C612 393.7 640 440.3 667.8 447.5C695.7 454.7 723.3 422.3 751.2 445.7C779 469 807 548 834.8 560.5C862.7 573 890.3 519 918.2 474C946 429 974 393 1001.8 373.3C1029.7 353.7 1057.3 350.3 1085.2 364.8C1113 379.3 1141 411.7 1168.8 471C1196.7 530.3 1224.3 616.7 1252.2 656.2C1280 695.7 1308 688.3 1335.8 638C1363.7 587.7 1391.3 494.3 1419.2 438.7C1447 383 1475 365 1502.8 354.2C1530.7 343.3 1558.3 339.7 1586.2 341.3C1614 343 1642 350 1669.8 344.5C1697.7 339 1725.3 321 1753.2 344.5C1781 368 1809 433 1836.8 416.8C1864.7 400.7 1892.3 303.3 1906.2 254.7L1920 206L1920 129L1906.2 143.3C1892.3 157.7 1864.7 186.3 1836.8 211.5C1809 236.7 1781 258.3 1753.2 251.2C1725.3 244 1697.7 208 1669.8 200.8C1642 193.7 1614 215.3 1586.2 211.7C1558.3 208 1530.7 179 1502.8 180.7C1475 182.3 1447 214.7 1419.2 223.7C1391.3 232.7 1363.7 218.3 1335.8 218.3C1308 218.3 1280 232.7 1252.2 212.8C1224.3 193 1196.7 139 1168.8 115.7C1141 92.3 1113 99.7 1085.2 110.5C1057.3 121.3 1029.7 135.7 1001.8 142.8C974 150 946 150 918.2 169.8C890.3 189.7 862.7 229.3 834.8 233C807 236.7 779 204.3 751.2 200.7C723.3 197 695.7 222 667.8 229.2C640 236.3 612 225.7 584.2 213.2C556.3 200.7 528.7 186.3 500.8 152.2C473 118 445 64 417.2 65.8C389.3 67.7 361.7 125.3 333.8 163.2C306 201 278 219 250.2 219C222.3 219 194.7 201 166.8 206.3C139 211.7 111 240.3 83.2 234.8C55.3 229.3 27.7 189.7 13.8 169.8L0 150Z" fill="#c24378"></path><path d="M0 379L13.8 388C27.7 397 55.3 415 83.2 469C111 523 139 613 166.8 647.2C194.7 681.3 222.3 659.7 250.2 623.7C278 587.7 306 537.3 333.8 474.3C361.7 411.3 389.3 335.7 417.2 326.7C445 317.7 473 375.3 500.8 418.5C528.7 461.7 556.3 490.3 584.2 515.5C612 540.7 640 562.3 667.8 555.2C695.7 548 723.3 512 751.2 549.8C779 587.7 807 699.3 834.8 708.3C862.7 717.3 890.3 623.7 918.2 571.5C946 519.3 974 508.7 1001.8 479.8C1029.7 451 1057.3 404 1085.2 441.8C1113 479.7 1141 602.3 1168.8 665.3C1196.7 728.3 1224.3 731.7 1252.2 735.2C1280 738.7 1308 742.3 1335.8 737C1363.7 731.7 1391.3 717.3 1419.2 654.3C1447 591.3 1475 479.7 1502.8 438.3C1530.7 397 1558.3 426 1586.2 463.8C1614 501.7 1642 548.3 1669.8 553.7C1697.7 559 1725.3 523 1753.2 533.8C1781 544.7 1809 602.3 1836.8 595.2C1864.7 588 1892.3 516 1906.2 480L1920 444L1920 204L1906.2 252.7C1892.3 301.3 1864.7 398.7 1836.8 414.8C1809 431 1781 366 1753.2 342.5C1725.3 319 1697.7 337 1669.8 342.5C1642 348 1614 341 1586.2 339.3C1558.3 337.7 1530.7 341.3 1502.8 352.2C1475 363 1447 381 1419.2 436.7C1391.3 492.3 1363.7 585.7 1335.8 636C1308 686.3 1280 693.7 1252.2 654.2C1224.3 614.7 1196.7 528.3 1168.8 469C1141 409.7 1113 377.3 1085.2 362.8C1057.3 348.3 1029.7 351.7 1001.8 371.3C974 391 946 427 918.2 472C890.3 517 862.7 571 834.8 558.5C807 546 779 467 751.2 443.7C723.3 420.3 695.7 452.7 667.8 445.5C640 438.3 612 391.7 584.2 350.3C556.3 309 528.7 273 500.8 231.5C473 190 445 143 417.2 164.5C389.3 186 361.7 276 333.8 324.7C306 373.3 278 380.7 250.2 422.2C222.3 463.7 194.7 539.3 166.8 535.7C139 532 111 449 83.2 395C55.3 341 27.7 316 13.8 303.5L0 291Z" fill="#ea5556"></path><path d="M0 455L13.8 467.5C27.7 480 55.3 505 83.2 551.7C111 598.3 139 666.7 166.8 684.7C194.7 702.7 222.3 670.3 250.2 643.3C278 616.3 306 594.7 333.8 547.8C361.7 501 389.3 429 417.2 412.8C445 396.7 473 436.3 500.8 481.3C528.7 526.3 556.3 576.7 584.2 601.8C612 627 640 627 667.8 605.5C695.7 584 723.3 541 751.2 582.5C779 624 807 750 834.8 755.3C862.7 760.7 890.3 645.3 918.2 587.7C946 530 974 530 1001.8 501.2C1029.7 472.3 1057.3 414.7 1085.2 447.2C1113 479.7 1141 602.3 1168.8 679.8C1196.7 757.3 1224.3 789.7 1252.2 793.2C1280 796.7 1308 771.3 1335.8 753.3C1363.7 735.3 1391.3 724.7 1419.2 668.8C1447 613 1475 512 1502.8 479.5C1530.7 447 1558.3 483 1586.2 520.8C1614 558.7 1642 598.3 1669.8 609.2C1697.7 620 1725.3 602 1753.2 614.7C1781 627.3 1809 670.7 1836.8 659.8C1864.7 649 1892.3 584 1906.2 551.5L1920 519L1920 442L1906.2 478C1892.3 514 1864.7 586 1836.8 593.2C1809 600.3 1781 542.7 1753.2 531.8C1725.3 521 1697.7 557 1669.8 551.7C1642 546.3 1614 499.7 1586.2 461.8C1558.3 424 1530.7 395 1502.8 436.3C1475 477.7 1447 589.3 1419.2 652.3C1391.3 715.3 1363.7 729.7 1335.8 735C1308 740.3 1280 736.7 1252.2 733.2C1224.3 729.7 1196.7 726.3 1168.8 663.3C1141 600.3 1113 477.7 1085.2 439.8C1057.3 402 1029.7 449 1001.8 477.8C974 506.7 946 517.3 918.2 569.5C890.3 621.7 862.7 715.3 834.8 706.3C807 697.3 779 585.7 751.2 547.8C723.3 510 695.7 546 667.8 553.2C640 560.3 612 538.7 584.2 513.5C556.3 488.3 528.7 459.7 500.8 416.5C473 373.3 445 315.7 417.2 324.7C389.3 333.7 361.7 409.3 333.8 472.3C306 535.3 278 585.7 250.2 621.7C222.3 657.7 194.7 679.3 166.8 645.2C139 611 111 521 83.2 467C55.3 413 27.7 395 13.8 386L0 377Z" fill="#f26444"></path><path d="M0 476L13.8 488.7C27.7 501.3 55.3 526.7 83.2 577.2C111 627.7 139 703.3 166.8 724.8C194.7 746.3 222.3 713.7 250.2 681.2C278 648.7 306 616.3 333.8 567.8C361.7 519.3 389.3 454.7 417.2 436.7C445 418.7 473 447.3 500.8 490.5C528.7 533.7 556.3 591.3 584.2 616.5C612 641.7 640 634.3 667.8 620C695.7 605.7 723.3 584.3 751.2 633C779 681.7 807 800.3 834.8 811C862.7 821.7 890.3 724.3 918.2 670.3C946 616.3 974 605.7 1001.8 560.7C1029.7 515.7 1057.3 436.3 1085.2 470.5C1113 504.7 1141 652.3 1168.8 735.2C1196.7 818 1224.3 836 1252.2 834.2C1280 832.3 1308 810.7 1335.8 790.8C1363.7 771 1391.3 753 1419.2 690C1447 627 1475 519 1502.8 497.5C1530.7 476 1558.3 541 1586.2 582.5C1614 624 1642 642 1669.8 651C1697.7 660 1725.3 660 1753.2 678C1781 696 1809 732 1836.8 708.5C1864.7 685 1892.3 602 1906.2 560.5L1920 519L1920 517L1906.2 549.5C1892.3 582 1864.7 647 1836.8 657.8C1809 668.7 1781 625.3 1753.2 612.7C1725.3 600 1697.7 618 1669.8 607.2C1642 596.3 1614 556.7 1586.2 518.8C1558.3 481 1530.7 445 1502.8 477.5C1475 510 1447 611 1419.2 666.8C1391.3 722.7 1363.7 733.3 1335.8 751.3C1308 769.3 1280 794.7 1252.2 791.2C1224.3 787.7 1196.7 755.3 1168.8 677.8C1141 600.3 1113 477.7 1085.2 445.2C1057.3 412.7 1029.7 470.3 1001.8 499.2C974 528 946 528 918.2 585.7C890.3 643.3 862.7 758.7 834.8 753.3C807 748 779 622 751.2 580.5C723.3 539 695.7 582 667.8 603.5C640 625 612 625 584.2 599.8C556.3 574.7 528.7 524.3 500.8 479.3C473 434.3 445 394.7 417.2 410.8C389.3 427 361.7 499 333.8 545.8C306 592.7 278 614.3 250.2 641.3C222.3 668.3 194.7 700.7 166.8 682.7C139 664.7 111 596.3 83.2 549.7C55.3 503 27.7 478 13.8 465.5L0 453Z" fill="#f26444"></path><path d="M0 476L13.8 495.8C27.7 515.7 55.3 555.3 83.2 609.3C111 663.3 139 731.7 166.8 749.7C194.7 767.7 222.3 735.3 250.2 708.3C278 681.3 306 659.7 333.8 607.5C361.7 555.3 389.3 472.7 417.2 449.3C445 426 473 462 500.8 505.2C528.7 548.3 556.3 598.7 584.2 629.2C612 659.7 640 670.3 667.8 670.3C695.7 670.3 723.3 659.7 751.2 703C779 746.3 807 843.7 834.8 840C862.7 836.3 890.3 731.7 918.2 686.7C946 641.7 974 656.3 1001.8 625.8C1029.7 595.3 1057.3 519.7 1085.2 548.3C1113 577 1141 710 1168.8 787.3C1196.7 864.7 1224.3 886.3 1252.2 879.2C1280 872 1308 836 1335.8 812.7C1363.7 789.3 1391.3 778.7 1419.2 728.3C1447 678 1475 588 1502.8 568.2C1530.7 548.3 1558.3 598.7 1586.2 627.5C1614 656.3 1642 663.7 1669.8 669C1697.7 674.3 1725.3 677.7 1753.2 695.7C1781 713.7 1809 746.3 1836.8 728.3C1864.7 710.3 1892.3 641.7 1906.2 607.3L1920 573L1920 517L1906.2 558.5C1892.3 600 1864.7 683 1836.8 706.5C1809 730 1781 694 1753.2 676C1725.3 658 1697.7 658 1669.8 649C1642 640 1614 622 1586.2 580.5C1558.3 539 1530.7 474 1502.8 495.5C1475 517 1447 625 1419.2 688C1391.3 751 1363.7 769 1335.8 788.8C1308 808.7 1280 830.3 1252.2 832.2C1224.3 834 1196.7 816 1168.8 733.2C1141 650.3 1113 502.7 1085.2 468.5C1057.3 434.3 1029.7 513.7 1001.8 558.7C974 603.7 946 614.3 918.2 668.3C890.3 722.3 862.7 819.7 834.8 809C807 798.3 779 679.7 751.2 631C723.3 582.3 695.7 603.7 667.8 618C640 632.3 612 639.7 584.2 614.5C556.3 589.3 528.7 531.7 500.8 488.5C473 445.3 445 416.7 417.2 434.7C389.3 452.7 361.7 517.3 333.8 565.8C306 614.3 278 646.7 250.2 679.2C222.3 711.7 194.7 744.3 166.8 722.8C139 701.3 111 625.7 83.2 575.2C55.3 524.7 27.7 499.3 13.8 486.7L0 474Z" fill="#ea5556"></path><path d="M0 595L13.8 609.3C27.7 623.7 55.3 652.3 83.2 697.3C111 742.3 139 803.7 166.8 825.3C194.7 847 222.3 829 250.2 807.3C278 785.7 306 760.3 333.8 690.2C361.7 620 389.3 505 417.2 478C445 451 473 512 500.8 575C528.7 638 556.3 703 584.2 735.5C612 768 640 768 667.8 759C695.7 750 723.3 732 751.2 778.8C779 825.7 807 937.3 834.8 944.5C862.7 951.7 890.3 854.3 918.2 802C946 749.7 974 742.3 1001.8 710C1029.7 677.7 1057.3 620.3 1085.2 651C1113 681.7 1141 800.3 1168.8 863.3C1196.7 926.3 1224.3 933.7 1252.2 931.8C1280 930 1308 919 1335.8 893.7C1363.7 868.3 1391.3 828.7 1419.2 769.3C1447 710 1475 631 1502.8 614.8C1530.7 598.7 1558.3 645.3 1586.2 679.5C1614 713.7 1642 735.3 1669.8 739C1697.7 742.7 1725.3 728.3 1753.2 741C1781 753.7 1809 793.3 1836.8 773.5C1864.7 753.7 1892.3 674.3 1906.2 634.7L1920 595L1920 571L1906.2 605.3C1892.3 639.7 1864.7 708.3 1836.8 726.3C1809 744.3 1781 711.7 1753.2 693.7C1725.3 675.7 1697.7 672.3 1669.8 667C1642 661.7 1614 654.3 1586.2 625.5C1558.3 596.7 1530.7 546.3 1502.8 566.2C1475 586 1447 676 1419.2 726.3C1391.3 776.7 1363.7 787.3 1335.8 810.7C1308 834 1280 870 1252.2 877.2C1224.3 884.3 1196.7 862.7 1168.8 785.3C1141 708 1113 575 1085.2 546.3C1057.3 517.7 1029.7 593.3 1001.8 623.8C974 654.3 946 639.7 918.2 684.7C890.3 729.7 862.7 834.3 834.8 838C807 841.7 779 744.3 751.2 701C723.3 657.7 695.7 668.3 667.8 668.3C640 668.3 612 657.7 584.2 627.2C556.3 596.7 528.7 546.3 500.8 503.2C473 460 445 424 417.2 447.3C389.3 470.7 361.7 553.3 333.8 605.5C306 657.7 278 679.3 250.2 706.3C222.3 733.3 194.7 765.7 166.8 747.7C139 729.7 111 661.3 83.2 607.3C55.3 553.3 27.7 513.7 13.8 493.8L0 474Z" fill="#c24378"></path><path d="M0 649L13.8 665.2C27.7 681.3 55.3 713.7 83.2 755C111 796.3 139 846.7 166.8 866.5C194.7 886.3 222.3 875.7 250.2 861.3C278 847 306 829 333.8 766C361.7 703 389.3 595 417.2 578.8C445 562.7 473 638.3 500.8 701.3C528.7 764.3 556.3 814.7 584.2 845.2C612 875.7 640 886.3 667.8 861.2C695.7 836 723.3 775 751.2 802C779 829 807 944 834.8 967.3C862.7 990.7 890.3 922.3 918.2 891.8C946 861.3 974 868.7 1001.8 830.8C1029.7 793 1057.3 710 1085.2 737C1113 764 1141 901 1168.8 955C1196.7 1009 1224.3 980 1252.2 965.5C1280 951 1308 951 1335.8 943.8C1363.7 936.7 1391.3 922.3 1419.2 877.3C1447 832.3 1475 756.7 1502.8 736.8C1530.7 717 1558.3 753 1586.2 789C1614 825 1642 861 1669.8 864.7C1697.7 868.3 1725.3 839.7 1753.2 830.7C1781 821.7 1809 832.3 1836.8 796.3C1864.7 760.3 1892.3 677.7 1906.2 636.3L1920 595L1920 593L1906.2 632.7C1892.3 672.3 1864.7 751.7 1836.8 771.5C1809 791.3 1781 751.7 1753.2 739C1725.3 726.3 1697.7 740.7 1669.8 737C1642 733.3 1614 711.7 1586.2 677.5C1558.3 643.3 1530.7 596.7 1502.8 612.8C1475 629 1447 708 1419.2 767.3C1391.3 826.7 1363.7 866.3 1335.8 891.7C1308 917 1280 928 1252.2 929.8C1224.3 931.7 1196.7 924.3 1168.8 861.3C1141 798.3 1113 679.7 1085.2 649C1057.3 618.3 1029.7 675.7 1001.8 708C974 740.3 946 747.7 918.2 800C890.3 852.3 862.7 949.7 834.8 942.5C807 935.3 779 823.7 751.2 776.8C723.3 730 695.7 748 667.8 757C640 766 612 766 584.2 733.5C556.3 701 528.7 636 500.8 573C473 510 445 449 417.2 476C389.3 503 361.7 618 333.8 688.2C306 758.3 278 783.7 250.2 805.3C222.3 827 194.7 845 166.8 823.3C139 801.7 111 740.3 83.2 695.3C55.3 650.3 27.7 621.7 13.8 607.3L0 593Z" fill="#854586"></path><path d="M0 833L13.8 824C27.7 815 55.3 797 83.2 833C111 869 139 959 166.8 978.7C194.7 998.3 222.3 947.7 250.2 917C278 886.3 306 875.7 333.8 830.7C361.7 785.7 389.3 706.3 417.2 711.7C445 717 473 807 500.8 864.7C528.7 922.3 556.3 947.7 584.2 956.7C612 965.7 640 958.3 667.8 935C695.7 911.7 723.3 872.3 751.2 890.3C779 908.3 807 983.7 834.8 1001.7C862.7 1019.7 890.3 980.3 918.2 969.7C946 959 974 977 1001.8 959C1029.7 941 1057.3 887 1085.2 897.7C1113 908.3 1141 983.7 1168.8 1010.7C1196.7 1037.7 1224.3 1016.3 1252.2 1012.8C1280 1009.3 1308 1023.7 1335.8 1009.2C1363.7 994.7 1391.3 951.3 1419.2 891.8C1447 832.3 1475 756.7 1502.8 756.7C1530.7 756.7 1558.3 832.3 1586.2 877.3C1614 922.3 1642 936.7 1669.8 924.2C1697.7 911.7 1725.3 872.3 1753.2 870.7C1781 869 1809 905 1836.8 883.3C1864.7 861.7 1892.3 782.3 1906.2 742.7L1920 703L1920 593L1906.2 634.3C1892.3 675.7 1864.7 758.3 1836.8 794.3C1809 830.3 1781 819.7 1753.2 828.7C1725.3 837.7 1697.7 866.3 1669.8 862.7C1642 859 1614 823 1586.2 787C1558.3 751 1530.7 715 1502.8 734.8C1475 754.7 1447 830.3 1419.2 875.3C1391.3 920.3 1363.7 934.7 1335.8 941.8C1308 949 1280 949 1252.2 963.5C1224.3 978 1196.7 1007 1168.8 953C1141 899 1113 762 1085.2 735C1057.3 708 1029.7 791 1001.8 828.8C974 866.7 946 859.3 918.2 889.8C890.3 920.3 862.7 988.7 834.8 965.3C807 942 779 827 751.2 800C723.3 773 695.7 834 667.8 859.2C640 884.3 612 873.7 584.2 843.2C556.3 812.7 528.7 762.3 500.8 699.3C473 636.3 445 560.7 417.2 576.8C389.3 593 361.7 701 333.8 764C306 827 278 845 250.2 859.3C222.3 873.7 194.7 884.3 166.8 864.5C139 844.7 111 794.3 83.2 753C55.3 711.7 27.7 679.3 13.8 663.2L0 647Z" fill="#42437a"></path><path d="M0 1081L13.8 1081C27.7 1081 55.3 1081 83.2 1081C111 1081 139 1081 166.8 1081C194.7 1081 222.3 1081 250.2 1081C278 1081 306 1081 333.8 1081C361.7 1081 389.3 1081 417.2 1081C445 1081 473 1081 500.8 1081C528.7 1081 556.3 1081 584.2 1081C612 1081 640 1081 667.8 1081C695.7 1081 723.3 1081 751.2 1081C779 1081 807 1081 834.8 1081C862.7 1081 890.3 1081 918.2 1081C946 1081 974 1081 1001.8 1081C1029.7 1081 1057.3 1081 1085.2 1081C1113 1081 1141 1081 1168.8 1081C1196.7 1081 1224.3 1081 1252.2 1081C1280 1081 1308 1081 1335.8 1081C1363.7 1081 1391.3 1081 1419.2 1081C1447 1081 1475 1081 1502.8 1081C1530.7 1081 1558.3 1081 1586.2 1081C1614 1081 1642 1081 1669.8 1081C1697.7 1081 1725.3 1081 1753.2 1081C1781 1081 1809 1081 1836.8 1081C1864.7 1081 1892.3 1081 1906.2 1081L1920 1081L1920 701L1906.2 740.7C1892.3 780.3 1864.7 859.7 1836.8 881.3C1809 903 1781 867 1753.2 868.7C1725.3 870.3 1697.7 909.7 1669.8 922.2C1642 934.7 1614 920.3 1586.2 875.3C1558.3 830.3 1530.7 754.7 1502.8 754.7C1475 754.7 1447 830.3 1419.2 889.8C1391.3 949.3 1363.7 992.7 1335.8 1007.2C1308 1021.7 1280 1007.3 1252.2 1010.8C1224.3 1014.3 1196.7 1035.7 1168.8 1008.7C1141 981.7 1113 906.3 1085.2 895.7C1057.3 885 1029.7 939 1001.8 957C974 975 946 957 918.2 967.7C890.3 978.3 862.7 1017.7 834.8 999.7C807 981.7 779 906.3 751.2 888.3C723.3 870.3 695.7 909.7 667.8 933C640 956.3 612 963.7 584.2 954.7C556.3 945.7 528.7 920.3 500.8 862.7C473 805 445 715 417.2 709.7C389.3 704.3 361.7 783.7 333.8 828.7C306 873.7 278 884.3 250.2 915C222.3 945.7 194.7 996.3 166.8 976.7C139 957 111 867 83.2 831C55.3 795 27.7 813 13.8 822L0 831Z" fill="#023859"></path></svg>