<svg id="visual" viewBox="0 0 1920 1080" width="1920" height="1080" xmlns="http://www.w3.org/2000/svg" xmlns:xlink="http://www.w3.org/1999/xlink" version="1.1"><path d="M0 66L13.8 58.8C27.7 51.7 55.3 37.3 83.2 35.5C111 33.7 139 44.3 166.8 51.5C194.7 58.7 222.3 62.3 250.2 67.7C278 73 306 80 333.8 72.8C361.7 65.7 389.3 44.3 417.2 31.8C445 19.3 473 15.7 500.8 17.3C528.7 19 556.3 26 584.2 29.5C612 33 640 33 667.8 33C695.7 33 723.3 33 751.2 31.3C779 29.7 807 26.3 834.8 26.3C862.7 26.3 890.3 29.7 918.2 29.7C946 29.7 974 26.3 1001.8 26.3C1029.7 26.3 1057.3 29.7 1085.2 27.8C1113 26 1141 19 1168.8 17.3C1196.7 15.7 1224.3 19.3 1252.2 30.2C1280 41 1308 59 1335.8 68C1363.7 77 1391.3 77 1419.2 69.7C1447 62.3 1475 47.7 1502.8 45.8C1530.7 44 1558.3 55 1586.2 58.7C1614 62.3 1642 58.7 1669.8 56.8C1697.7 55 1725.3 55 1753.2 58.7C1781 62.3 1809 69.7 1836.8 69.7C1864.7 69.7 1892.3 62.3 1906.2 58.7L1920 55L1920 0L1906.2 0C1892.3 0 1864.7 0 1836.8 0C1809 0 1781 0 1753.2 0C1725.3 0 1697.7 0 1669.8 0C1642 0 1614 0 1586.2 0C1558.3 0 1530.7 0 1502.8 0C1475 0 1447 0 1419.2 0C1391.3 0 1363.7 0 1335.8 0C1308 0 1280 0 1252.2 0C1224.3 0 1196.7 0 1168.8 0C1141 0 1113 0 1085.2 0C1057.3 0 1029.7 0 1001.8 0C974 0 946 0 918.2 0C890.3 0 862.7 0 834.8 0C807 0 779 0 751.2 0C723.3 0 695.7 0 667.8 0C640 0 612 0 584.2 0C556.3 0 528.7 0 500.8 0C473 0 445 0 417.2 0C389.3 0 361.7 0 333.8 0C306 0 278 0 250.2 0C222.3 0 194.7 0 166.8 0C139 0 111 0 83.2 0C55.3 0 27.7 0 13.8 0L0 0Z" fill="#023859"></path><path d="M0 163L13.8 150.3C27.7 137.7 55.3 112.3 83.2 112.3C111 112.3 139 137.7 166.8 137.7C194.7 137.7 222.3 112.3 250.2 107C278 101.7 306 116.3 333.8 107.3C361.7 98.3 389.3 65.7 417.2 56.7C445 47.7 473 62.3 500.8 67.8C528.7 73.3 556.3 69.7 584.2 66C612 62.3 640 58.7 667.8 62.2C695.7 65.7 723.3 76.3 751.2 76.3C779 76.3 807 65.7 834.8 71.2C862.7 76.7 890.3 98.3 918.2 98.3C946 98.3 974 76.7 1001.8 73C1029.7 69.3 1057.3 83.7 1085.2 85.5C1113 87.3 1141 76.7 1168.8 74.8C1196.7 73 1224.3 80 1252.2 99.8C1280 119.7 1308 152.3 1335.8 170.3C1363.7 188.3 1391.3 191.7 1419.2 186.2C1447 180.7 1475 166.3 1502.8 155.7C1530.7 145 1558.3 138 1586.2 121.8C1614 105.7 1642 80.3 1669.8 80.3C1697.7 80.3 1725.3 105.7 1753.2 112.8C1781 120 1809 109 1836.8 105.3C1864.7 101.7 1892.3 105.3 1906.2 107.2L1920 109L1920 53L1906.2 56.7C1892.3 60.3 1864.7 67.7 1836.8 67.7C1809 67.7 1781 60.3 1753.2 56.7C1725.3 53 1697.7 53 1669.8 54.8C1642 56.7 1614 60.3 1586.2 56.7C1558.3 53 1530.7 42 1502.8 43.8C1475 45.7 1447 60.3 1419.2 67.7C1391.3 75 1363.7 75 1335.8 66C1308 57 1280 39 1252.2 28.2C1224.3 17.3 1196.7 13.7 1168.8 15.3C1141 17 1113 24 1085.2 25.8C1057.3 27.7 1029.7 24.3 1001.8 24.3C974 24.3 946 27.7 918.2 27.7C890.3 27.7 862.7 24.3 834.8 24.3C807 24.3 779 27.7 751.2 29.3C723.3 31 695.7 31 667.8 31C640 31 612 31 584.2 27.5C556.3 24 528.7 17 500.8 15.3C473 13.7 445 17.3 417.2 29.8C389.3 42.3 361.7 63.7 333.8 70.8C306 78 278 71 250.2 65.7C222.3 60.3 194.7 56.7 166.8 49.5C139 42.3 111 31.7 83.2 33.5C55.3 35.3 27.7 49.7 13.8 56.8L0 64Z" fill="#42437a"></path><path d="M0 260L13.8 247.5C27.7 235 55.3 210 83.2 211.8C111 213.7 139 242.3 166.8 236.8C194.7 231.3 222.3 191.7 250.2 177.3C278 163 306 174 333.8 177.7C361.7 181.3 389.3 177.7 417.2 163.2C445 148.7 473 123.3 500.8 126.8C528.7 130.3 556.3 162.7 584.2 157.3C612 152 640 109 667.8 110.8C695.7 112.7 723.3 159.3 751.2 179.2C779 199 807 192 834.8 192C862.7 192 890.3 199 918.2 195.3C946 191.7 974 177.3 1001.8 173.8C1029.7 170.3 1057.3 177.7 1085.2 184.8C1113 192 1141 199 1168.8 190C1196.7 181 1224.3 156 1252.2 161.5C1280 167 1308 203 1335.8 217.3C1363.7 231.7 1391.3 224.3 1419.2 209.8C1447 195.3 1475 173.7 1502.8 159.3C1530.7 145 1558.3 138 1586.2 129C1614 120 1642 109 1669.8 116.2C1697.7 123.3 1725.3 148.7 1753.2 163.2C1781 177.7 1809 181.3 1836.8 172.3C1864.7 163.3 1892.3 141.7 1906.2 130.8L1920 120L1920 107L1906.2 105.2C1892.3 103.3 1864.7 99.7 1836.8 103.3C1809 107 1781 118 1753.2 110.8C1725.3 103.7 1697.7 78.3 1669.8 78.3C1642 78.3 1614 103.7 1586.2 119.8C1558.3 136 1530.7 143 1502.8 153.7C1475 164.3 1447 178.7 1419.2 184.2C1391.3 189.7 1363.7 186.3 1335.8 168.3C1308 150.3 1280 117.7 1252.2 97.8C1224.3 78 1196.7 71 1168.8 72.8C1141 74.7 1113 85.3 1085.2 83.5C1057.3 81.7 1029.7 67.3 1001.8 71C974 74.7 946 96.3 918.2 96.3C890.3 96.3 862.7 74.7 834.8 69.2C807 63.7 779 74.3 751.2 74.3C723.3 74.3 695.7 63.7 667.8 60.2C640 56.7 612 60.3 584.2 64C556.3 67.7 528.7 71.3 500.8 65.8C473 60.3 445 45.7 417.2 54.7C389.3 63.7 361.7 96.3 333.8 105.3C306 114.3 278 99.7 250.2 105C222.3 110.3 194.7 135.7 166.8 135.7C139 135.7 111 110.3 83.2 110.3C55.3 110.3 27.7 135.7 13.8 148.3L0 161Z" fill="#854586"></path><path d="M0 293L13.8 276.7C27.7 260.3 55.3 227.7 83.2 231.2C111 234.7 139 274.3 166.8 267.2C194.7 260 222.3 206 250.2 195.2C278 184.3 306 216.7 333.8 223.8C361.7 231 389.3 213 417.2 189.7C445 166.3 473 137.7 500.8 145C528.7 152.3 556.3 195.7 584.2 192C612 188.3 640 137.7 667.8 139.3C695.7 141 723.3 195 751.2 213C779 231 807 213 834.8 216.7C862.7 220.3 890.3 245.7 918.2 254.7C946 263.7 974 256.3 1001.8 249.2C1029.7 242 1057.3 235 1085.2 236.8C1113 238.7 1141 249.3 1168.8 240.3C1196.7 231.3 1224.3 202.7 1252.2 209.8C1280 217 1308 260 1335.8 267.2C1363.7 274.3 1391.3 245.7 1419.2 222.3C1447 199 1475 181 1502.8 181C1530.7 181 1558.3 199 1586.2 199C1614 199 1642 181 1669.8 173.8C1697.7 166.7 1725.3 170.3 1753.2 183C1781 195.7 1809 217.3 1836.8 220.8C1864.7 224.3 1892.3 209.7 1906.2 202.3L1920 195L1920 118L1906.2 128.8C1892.3 139.7 1864.7 161.3 1836.8 170.3C1809 179.3 1781 175.7 1753.2 161.2C1725.3 146.7 1697.7 121.3 1669.8 114.2C1642 107 1614 118 1586.2 127C1558.3 136 1530.7 143 1502.8 157.3C1475 171.7 1447 193.3 1419.2 207.8C1391.3 222.3 1363.7 229.7 1335.8 215.3C1308 201 1280 165 1252.2 159.5C1224.3 154 1196.7 179 1168.8 188C1141 197 1113 190 1085.2 182.8C1057.3 175.7 1029.7 168.3 1001.8 171.8C974 175.3 946 189.7 918.2 193.3C890.3 197 862.7 190 834.8 190C807 190 779 197 751.2 177.2C723.3 157.3 695.7 110.7 667.8 108.8C640 107 612 150 584.2 155.3C556.3 160.7 528.7 128.3 500.8 124.8C473 121.3 445 146.7 417.2 161.2C389.3 175.7 361.7 179.3 333.8 175.7C306 172 278 161 250.2 175.3C222.3 189.7 194.7 229.3 166.8 234.8C139 240.3 111 211.7 83.2 209.8C55.3 208 27.7 233 13.8 245.5L0 258Z" fill="#c24378"></path><path d="M0 293L13.8 289.3C27.7 285.7 55.3 278.3 83.2 287.3C111 296.3 139 321.7 166.8 312.7C194.7 303.7 222.3 260.3 250.2 247.7C278 235 306 253 333.8 251.2C361.7 249.3 389.3 227.7 417.2 211.5C445 195.3 473 184.7 500.8 200.8C528.7 217 556.3 260 584.2 249.2C612 238.3 640 173.7 667.8 172C695.7 170.3 723.3 231.7 751.2 258.7C779 285.7 807 278.3 834.8 290.8C862.7 303.3 890.3 335.7 918.2 346.5C946 357.3 974 346.7 1001.8 335.8C1029.7 325 1057.3 314 1085.2 312.2C1113 310.3 1141 317.7 1168.8 312.3C1196.7 307 1224.3 289 1252.2 292.7C1280 296.3 1308 321.7 1335.8 321.7C1363.7 321.7 1391.3 296.3 1419.2 267.5C1447 238.7 1475 206.3 1502.8 197.3C1530.7 188.3 1558.3 202.7 1586.2 200.8C1614 199 1642 181 1669.8 181C1697.7 181 1725.3 199 1753.2 217C1781 235 1809 253 1836.8 254.8C1864.7 256.7 1892.3 242.3 1906.2 235.2L1920 228L1920 193L1906.2 200.3C1892.3 207.7 1864.7 222.3 1836.8 218.8C1809 215.3 1781 193.7 1753.2 181C1725.3 168.3 1697.7 164.7 1669.8 171.8C1642 179 1614 197 1586.2 197C1558.3 197 1530.7 179 1502.8 179C1475 179 1447 197 1419.2 220.3C1391.3 243.7 1363.7 272.3 1335.8 265.2C1308 258 1280 215 1252.2 207.8C1224.3 200.7 1196.7 229.3 1168.8 238.3C1141 247.3 1113 236.7 1085.2 234.8C1057.3 233 1029.7 240 1001.8 247.2C974 254.3 946 261.7 918.2 252.7C890.3 243.7 862.7 218.3 834.8 214.7C807 211 779 229 751.2 211C723.3 193 695.7 139 667.8 137.3C640 135.7 612 186.3 584.2 190C556.3 193.7 528.7 150.3 500.8 143C473 135.7 445 164.3 417.2 187.7C389.3 211 361.7 229 333.8 221.8C306 214.7 278 182.3 250.2 193.2C222.3 204 194.7 258 166.8 265.2C139 272.3 111 232.7 83.2 229.2C55.3 225.7 27.7 258.3 13.8 274.7L0 291Z" fill="#ea5556"></path><path d="M0 357L13.8 355.3C27.7 353.7 55.3 350.3 83.2 368.3C111 386.3 139 425.7 166.8 418.3C194.7 411 222.3 357 250.2 337.3C278 317.7 306 332.3 333.8 339.7C361.7 347 389.3 347 417.2 323.5C445 300 473 253 500.8 258.3C528.7 263.7 556.3 321.3 584.2 325C612 328.7 640 278.3 667.8 278.3C695.7 278.3 723.3 328.7 751.2 337.7C779 346.7 807 314.3 834.8 332.3C862.7 350.3 890.3 418.7 918.2 438.5C946 458.3 974 429.7 1001.8 420.7C1029.7 411.7 1057.3 422.3 1085.2 422.3C1113 422.3 1141 411.7 1168.8 395.5C1196.7 379.3 1224.3 357.7 1252.2 348.7C1280 339.7 1308 343.3 1335.8 332.5C1363.7 321.7 1391.3 296.3 1419.2 280C1447 263.7 1475 256.3 1502.8 263.5C1530.7 270.7 1558.3 292.3 1586.2 287C1614 281.7 1642 249.3 1669.8 233.2C1697.7 217 1725.3 217 1753.2 240.3C1781 263.7 1809 310.3 1836.8 324.7C1864.7 339 1892.3 321 1906.2 312L1920 303L1920 226L1906.2 233.2C1892.3 240.3 1864.7 254.7 1836.8 252.8C1809 251 1781 233 1753.2 215C1725.3 197 1697.7 179 1669.8 179C1642 179 1614 197 1586.2 198.8C1558.3 200.7 1530.7 186.3 1502.8 195.3C1475 204.3 1447 236.7 1419.2 265.5C1391.3 294.3 1363.7 319.7 1335.8 319.7C1308 319.7 1280 294.3 1252.2 290.7C1224.3 287 1196.7 305 1168.8 310.3C1141 315.7 1113 308.3 1085.2 310.2C1057.3 312 1029.7 323 1001.8 333.8C974 344.7 946 355.3 918.2 344.5C890.3 333.7 862.7 301.3 834.8 288.8C807 276.3 779 283.7 751.2 256.7C723.3 229.7 695.7 168.3 667.8 170C640 171.7 612 236.3 584.2 247.2C556.3 258 528.7 215 500.8 198.8C473 182.7 445 193.3 417.2 209.5C389.3 225.7 361.7 247.3 333.8 249.2C306 251 278 233 250.2 245.7C222.3 258.3 194.7 301.7 166.8 310.7C139 319.7 111 294.3 83.2 285.3C55.3 276.3 27.7 283.7 13.8 287.3L0 291Z" fill="#f26444"></path><path d="M0 617L13.8 573.7C27.7 530.3 55.3 443.7 83.2 461.7C111 479.7 139 602.3 166.8 631.2C194.7 660 222.3 595 250.2 616.5C278 638 306 746 333.8 717.2C361.7 688.3 389.3 522.7 417.2 499.3C445 476 473 595 500.8 618.5C528.7 642 556.3 570 584.2 584.3C612 598.7 640 699.3 667.8 683.2C695.7 667 723.3 534 751.2 462C779 390 807 379 834.8 406C862.7 433 890.3 498 918.2 535.8C946 573.7 974 584.3 1001.8 596.8C1029.7 609.3 1057.3 623.7 1085.2 636.3C1113 649 1141 660 1168.8 665.5C1196.7 671 1224.3 671 1252.2 649.3C1280 627.7 1308 584.3 1335.8 553.7C1363.7 523 1391.3 505 1419.2 492.3C1447 479.7 1475 472.3 1502.8 492.2C1530.7 512 1558.3 559 1586.2 546.5C1614 534 1642 462 1669.8 427.8C1697.7 393.7 1725.3 397.3 1753.2 418.8C1781 440.3 1809 479.7 1836.8 522.8C1864.7 566 1892.3 613 1906.2 636.5L1920 660L1920 301L1906.2 310C1892.3 319 1864.7 337 1836.8 322.7C1809 308.3 1781 261.7 1753.2 238.3C1725.3 215 1697.7 215 1669.8 231.2C1642 247.3 1614 279.7 1586.2 285C1558.3 290.3 1530.7 268.7 1502.8 261.5C1475 254.3 1447 261.7 1419.2 278C1391.3 294.3 1363.7 319.7 1335.8 330.5C1308 341.3 1280 337.7 1252.2 346.7C1224.3 355.7 1196.7 377.3 1168.8 393.5C1141 409.7 1113 420.3 1085.2 420.3C1057.3 420.3 1029.7 409.7 1001.8 418.7C974 427.7 946 456.3 918.2 436.5C890.3 416.7 862.7 348.3 834.8 330.3C807 312.3 779 344.7 751.2 335.7C723.3 326.7 695.7 276.3 667.8 276.3C640 276.3 612 326.7 584.2 323C556.3 319.3 528.7 261.7 500.8 256.3C473 251 445 298 417.2 321.5C389.3 345 361.7 345 333.8 337.7C306 330.3 278 315.7 250.2 335.3C222.3 355 194.7 409 166.8 416.3C139 423.7 111 384.3 83.2 366.3C55.3 348.3 27.7 351.7 13.8 353.3L0 355Z" fill="#f26444"></path><path d="M0 638L13.8 665C27.7 692 55.3 746 83.2 767.7C111 789.3 139 778.7 166.8 755.3C194.7 732 222.3 696 250.2 715.8C278 735.7 306 811.3 333.8 820.3C361.7 829.3 389.3 771.7 417.2 742.8C445 714 473 714 500.8 724.8C528.7 735.7 556.3 757.3 584.2 777.2C612 797 640 815 667.8 829.3C695.7 843.7 723.3 854.3 751.2 820C779 785.7 807 706.3 834.8 706.3C862.7 706.3 890.3 785.7 918.2 821.7C946 857.7 974 850.3 1001.8 841.3C1029.7 832.3 1057.3 821.7 1085.2 803.7C1113 785.7 1141 760.3 1168.8 740.5C1196.7 720.7 1224.3 706.3 1252.2 711.8C1280 717.3 1308 742.7 1335.8 767.8C1363.7 793 1391.3 818 1419.2 792.8C1447 767.7 1475 692.3 1502.8 665.3C1530.7 638.3 1558.3 659.7 1586.2 656C1614 652.3 1642 623.7 1669.8 593.2C1697.7 562.7 1725.3 530.3 1753.2 546.5C1781 562.7 1809 627.3 1836.8 670.5C1864.7 713.7 1892.3 735.3 1906.2 746.2L1920 757L1920 658L1906.2 634.5C1892.3 611 1864.7 564 1836.8 520.8C1809 477.7 1781 438.3 1753.2 416.8C1725.3 395.3 1697.7 391.7 1669.8 425.8C1642 460 1614 532 1586.2 544.5C1558.3 557 1530.7 510 1502.8 490.2C1475 470.3 1447 477.7 1419.2 490.3C1391.3 503 1363.7 521 1335.8 551.7C1308 582.3 1280 625.7 1252.2 647.3C1224.3 669 1196.7 669 1168.8 663.5C1141 658 1113 647 1085.2 634.3C1057.3 621.7 1029.7 607.3 1001.8 594.8C974 582.3 946 571.7 918.2 533.8C890.3 496 862.7 431 834.8 404C807 377 779 388 751.2 460C723.3 532 695.7 665 667.8 681.2C640 697.3 612 596.7 584.2 582.3C556.3 568 528.7 640 500.8 616.5C473 593 445 474 417.2 497.3C389.3 520.7 361.7 686.3 333.8 715.2C306 744 278 636 250.2 614.5C222.3 593 194.7 658 166.8 629.2C139 600.3 111 477.7 83.2 459.7C55.3 441.7 27.7 528.3 13.8 571.7L0 615Z" fill="#ea5556"></path><path d="M0 768L13.8 798.5C27.7 829 55.3 890 83.2 904.3C111 918.7 139 886.3 166.8 846.8C194.7 807.3 222.3 760.7 250.2 766.2C278 771.7 306 829.3 333.8 849.2C361.7 869 389.3 851 417.2 858.2C445 865.3 473 897.7 500.8 908.3C528.7 919 556.3 908 584.2 900.8C612 893.7 640 890.3 667.8 895.8C695.7 901.3 723.3 915.7 751.2 894C779 872.3 807 814.7 834.8 809.2C862.7 803.7 890.3 850.3 918.2 872C946 893.7 974 890.3 1001.8 886.8C1029.7 883.3 1057.3 879.7 1085.2 865.2C1113 850.7 1141 825.3 1168.8 812.7C1196.7 800 1224.3 800 1252.2 830.7C1280 861.3 1308 922.7 1335.8 938.8C1363.7 955 1391.3 926 1419.2 890C1447 854 1475 811 1502.8 780.5C1530.7 750 1558.3 732 1586.2 744.5C1614 757 1642 800 1669.8 791C1697.7 782 1725.3 721 1753.2 715.7C1781 710.3 1809 760.7 1836.8 793C1864.7 825.3 1892.3 839.7 1906.2 846.8L1920 854L1920 755L1906.2 744.2C1892.3 733.3 1864.7 711.7 1836.8 668.5C1809 625.3 1781 560.7 1753.2 544.5C1725.3 528.3 1697.7 560.7 1669.8 591.2C1642 621.7 1614 650.3 1586.2 654C1558.3 657.7 1530.7 636.3 1502.8 663.3C1475 690.3 1447 765.7 1419.2 790.8C1391.3 816 1363.7 791 1335.8 765.8C1308 740.7 1280 715.3 1252.2 709.8C1224.3 704.3 1196.7 718.7 1168.8 738.5C1141 758.3 1113 783.7 1085.2 801.7C1057.3 819.7 1029.7 830.3 1001.8 839.3C974 848.3 946 855.7 918.2 819.7C890.3 783.7 862.7 704.3 834.8 704.3C807 704.3 779 783.7 751.2 818C723.3 852.3 695.7 841.7 667.8 827.3C640 813 612 795 584.2 775.2C556.3 755.3 528.7 733.7 500.8 722.8C473 712 445 712 417.2 740.8C389.3 769.7 361.7 827.3 333.8 818.3C306 809.3 278 733.7 250.2 713.8C222.3 694 194.7 730 166.8 753.3C139 776.7 111 787.3 83.2 765.7C55.3 744 27.7 690 13.8 663L0 636Z" fill="#c24378"></path><path d="M0 822L13.8 849C27.7 876 55.3 930 83.2 944.3C111 958.7 139 933.3 166.8 899.2C194.7 865 222.3 822 250.2 827.5C278 833 306 887 333.8 912.2C361.7 937.3 389.3 933.7 417.2 948C445 962.3 473 994.7 500.8 1005.5C528.7 1016.3 556.3 1005.7 584.2 987.7C612 969.7 640 944.3 667.8 949.7C695.7 955 723.3 991 751.2 969.3C779 947.7 807 868.3 834.8 846.7C862.7 825 890.3 861 918.2 893.5C946 926 974 955 1001.8 951.5C1029.7 948 1057.3 912 1085.2 881.3C1113 850.7 1141 825.3 1168.8 814.5C1196.7 803.7 1224.3 807.3 1252.2 841.5C1280 875.7 1308 940.3 1335.8 962C1363.7 983.7 1391.3 962.3 1419.2 922.8C1447 883.3 1475 825.7 1502.8 793.2C1530.7 760.7 1558.3 753.3 1586.2 765.8C1614 778.3 1642 810.7 1669.8 803.5C1697.7 796.3 1725.3 749.7 1753.2 757C1781 764.3 1809 825.7 1836.8 856.3C1864.7 887 1892.3 887 1906.2 887L1920 887L1920 852L1906.2 844.8C1892.3 837.7 1864.7 823.3 1836.8 791C1809 758.7 1781 708.3 1753.2 713.7C1725.3 719 1697.7 780 1669.8 789C1642 798 1614 755 1586.2 742.5C1558.3 730 1530.7 748 1502.8 778.5C1475 809 1447 852 1419.2 888C1391.3 924 1363.7 953 1335.8 936.8C1308 920.7 1280 859.3 1252.2 828.7C1224.3 798 1196.7 798 1168.8 810.7C1141 823.3 1113 848.7 1085.2 863.2C1057.3 877.7 1029.7 881.3 1001.8 884.8C974 888.3 946 891.7 918.2 870C890.3 848.3 862.7 801.7 834.8 807.2C807 812.7 779 870.3 751.2 892C723.3 913.7 695.7 899.3 667.8 893.8C640 888.3 612 891.7 584.2 898.8C556.3 906 528.7 917 500.8 906.3C473 895.7 445 863.3 417.2 856.2C389.3 849 361.7 867 333.8 847.2C306 827.3 278 769.7 250.2 764.2C222.3 758.7 194.7 805.3 166.8 844.8C139 884.3 111 916.7 83.2 902.3C55.3 888 27.7 827 13.8 796.5L0 766Z" fill="#854586"></path><path d="M0 1049L13.8 1054.3C27.7 1059.7 55.3 1070.3 83.2 1057.7C111 1045 139 1009 166.8 1007.2C194.7 1005.3 222.3 1037.7 250.2 1032.3C278 1027 306 984 333.8 975C361.7 966 389.3 991 417.2 1014.3C445 1037.7 473 1059.3 500.8 1055.8C528.7 1052.3 556.3 1023.7 584.2 1014.7C612 1005.7 640 1016.3 667.8 1027C695.7 1037.7 723.3 1048.3 751.2 1030.3C779 1012.3 807 965.7 834.8 958.5C862.7 951.3 890.3 983.7 918.2 1008.8C946 1034 974 1052 1001.8 1048.5C1029.7 1045 1057.3 1020 1085.2 1020C1113 1020 1141 1045 1168.8 1059.3C1196.7 1073.7 1224.3 1077.3 1252.2 1079.2C1280 1081 1308 1081 1335.8 1061.2C1363.7 1041.3 1391.3 1001.7 1419.2 990.8C1447 980 1475 998 1502.8 1014.2C1530.7 1030.3 1558.3 1044.7 1586.2 1048.3C1614 1052 1642 1045 1669.8 1025.3C1697.7 1005.7 1725.3 973.3 1753.2 964.3C1781 955.3 1809 969.7 1836.8 989.3C1864.7 1009 1892.3 1034 1906.2 1046.5L1920 1059L1920 885L1906.2 885C1892.3 885 1864.7 885 1836.8 854.3C1809 823.7 1781 762.3 1753.2 755C1725.3 747.7 1697.7 794.3 1669.8 801.5C1642 808.7 1614 776.3 1586.2 763.8C1558.3 751.3 1530.7 758.7 1502.8 791.2C1475 823.7 1447 881.3 1419.2 920.8C1391.3 960.3 1363.7 981.7 1335.8 960C1308 938.3 1280 873.7 1252.2 839.5C1224.3 805.3 1196.7 801.7 1168.8 812.5C1141 823.3 1113 848.7 1085.2 879.3C1057.3 910 1029.7 946 1001.8 949.5C974 953 946 924 918.2 891.5C890.3 859 862.7 823 834.8 844.7C807 866.3 779 945.7 751.2 967.3C723.3 989 695.7 953 667.8 947.7C640 942.3 612 967.7 584.2 985.7C556.3 1003.7 528.7 1014.3 500.8 1003.5C473 992.7 445 960.3 417.2 946C389.3 931.7 361.7 935.3 333.8 910.2C306 885 278 831 250.2 825.5C222.3 820 194.7 863 166.8 897.2C139 931.3 111 956.7 83.2 942.3C55.3 928 27.7 874 13.8 847L0 820Z" fill="#42437a"></path><path d="M0 1081L13.8 1081C27.7 1081 55.3 1081 83.2 1081C111 1081 139 1081 166.8 1081C194.7 1081 222.3 1081 250.2 1081C278 1081 306 1081 333.8 1081C361.7 1081 389.3 1081 417.2 1081C445 1081 473 1081 500.8 1081C528.7 1081 556.3 1081 584.2 1081C612 1081 640 1081 667.8 1081C695.7 1081 723.3 1081 751.2 1081C779 1081 807 1081 834.8 1081C862.7 1081 890.3 1081 918.2 1081C946 1081 974 1081 1001.8 1081C1029.7 1081 1057.3 1081 1085.2 1081C1113 1081 1141 1081 1168.8 1081C1196.7 1081 1224.3 1081 1252.2 1081C1280 1081 1308 1081 1335.8 1081C1363.7 1081 1391.3 1081 1419.2 1081C1447 1081 1475 1081 1502.8 1081C1530.7 1081 1558.3 1081 1586.2 1081C1614 1081 1642 1081 1669.8 1081C1697.7 1081 1725.3 1081 1753.2 1081C1781 1081 1809 1081 1836.8 1081C1864.7 1081 1892.3 1081 1906.2 1081L1920 1081L1920 1057L1906.2 1044.5C1892.3 1032 1864.7 1007 1836.8 987.3C1809 967.7 1781 953.3 1753.2 962.3C1725.3 971.3 1697.7 1003.7 1669.8 1023.3C1642 1043 1614 1050 1586.2 1046.3C1558.3 1042.7 1530.7 1028.3 1502.8 1012.2C1475 996 1447 978 1419.2 988.8C1391.3 999.7 1363.7 1039.3 1335.8 1059.2C1308 1079 1280 1079 1252.2 1077.2C1224.3 1075.3 1196.7 1071.7 1168.8 1057.3C1141 1043 1113 1018 1085.2 1018C1057.3 1018 1029.7 1043 1001.8 1046.5C974 1050 946 1032 918.2 1006.8C890.3 981.7 862.7 949.3 834.8 956.5C807 963.7 779 1010.3 751.2 1028.3C723.3 1046.3 695.7 1035.7 667.8 1025C640 1014.3 612 1003.7 584.2 1012.7C556.3 1021.7 528.7 1050.3 500.8 1053.8C473 1057.3 445 1035.7 417.2 1012.3C389.3 989 361.7 964 333.8 973C306 982 278 1025 250.2 1030.3C222.3 1035.7 194.7 1003.3 166.8 1005.2C139 1007 111 1043 83.2 1055.7C55.3 1068.3 27.7 1057.7 13.8 1052.3L0 1047Z" fill="#023859"></path></svg>