<svg id="visual" viewBox="0 0 1920 1080" width="1920" height="1080" xmlns="http://www.w3.org/2000/svg" xmlns:xlink="http://www.w3.org/1999/xlink" version="1.1"><path d="M0 66L13.8 58.8C27.7 51.7 55.3 37.3 83.2 30.2C111 23 139 23 166.8 19.2C194.7 15.3 222.3 7.7 250.2 7.7C278 7.7 306 15.3 333.8 17.3C361.7 19.3 389.3 15.7 417.2 22.8C445 30 473 48 500.8 51.5C528.7 55 556.3 44 584.2 40.3C612 36.7 640 40.3 667.8 40.3C695.7 40.3 723.3 36.7 751.2 42.2C779 47.7 807 62.3 834.8 67.8C862.7 73.3 890.3 69.7 918.2 67.8C946 66 974 66 1001.8 55C1029.7 44 1057.3 22 1085.2 11C1113 0 1141 0 1168.8 3.8C1196.7 7.7 1224.3 15.3 1252.2 28.2C1280 41 1308 59 1335.8 55.2C1363.7 51.3 1391.3 25.7 1419.2 14.8C1447 4 1475 8 1502.8 15.3C1530.7 22.7 1558.3 33.3 1586.2 40.5C1614 47.7 1642 51.3 1669.8 51.3C1697.7 51.3 1725.3 47.7 1753.2 44C1781 40.3 1809 36.7 1836.8 43.8C1864.7 51 1892.3 69 1906.2 78L1920 87L1920 0L1906.2 0C1892.3 0 1864.7 0 1836.8 0C1809 0 1781 0 1753.2 0C1725.3 0 1697.7 0 1669.8 0C1642 0 1614 0 1586.2 0C1558.3 0 1530.7 0 1502.8 0C1475 0 1447 0 1419.2 0C1391.3 0 1363.7 0 1335.8 0C1308 0 1280 0 1252.2 0C1224.3 0 1196.7 0 1168.8 0C1141 0 1113 0 1085.2 0C1057.3 0 1029.7 0 1001.8 0C974 0 946 0 918.2 0C890.3 0 862.7 0 834.8 0C807 0 779 0 751.2 0C723.3 0 695.7 0 667.8 0C640 0 612 0 584.2 0C556.3 0 528.7 0 500.8 0C473 0 445 0 417.2 0C389.3 0 361.7 0 333.8 0C306 0 278 0 250.2 0C222.3 0 194.7 0 166.8 0C139 0 111 0 83.2 0C55.3 0 27.7 0 13.8 0L0 0Z" fill="#023859"></path><path d="M0 174L13.8 157.8C27.7 141.7 55.3 109.3 83.2 91.3C111 73.3 139 69.7 166.8 82.2C194.7 94.7 222.3 123.3 250.2 144.8C278 166.3 306 180.7 333.8 166.3C361.7 152 389.3 109 417.2 89.3C445 69.7 473 73.3 500.8 85.8C528.7 98.3 556.3 119.7 584.2 121.3C612 123 640 105 667.8 101.5C695.7 98 723.3 109 751.2 109C779 109 807 98 834.8 114.2C862.7 130.3 890.3 173.7 918.2 177.3C946 181 974 145 1001.8 123.3C1029.7 101.7 1057.3 94.3 1085.2 80C1113 65.7 1141 44.3 1168.8 46.2C1196.7 48 1224.3 73 1252.2 91C1280 109 1308 120 1335.8 112.8C1363.7 105.7 1391.3 80.3 1419.2 65.8C1447 51.3 1475 47.7 1502.8 65.7C1530.7 83.7 1558.3 123.3 1586.2 150.3C1614 177.3 1642 191.7 1669.8 188C1697.7 184.3 1725.3 162.7 1753.2 148.3C1781 134 1809 127 1836.8 128.8C1864.7 130.7 1892.3 141.3 1906.2 146.7L1920 152L1920 85L1906.2 76C1892.3 67 1864.7 49 1836.8 41.8C1809 34.7 1781 38.3 1753.2 42C1725.3 45.7 1697.7 49.3 1669.8 49.3C1642 49.3 1614 45.7 1586.2 38.5C1558.3 31.3 1530.7 20.7 1502.8 13.7C1475 6.7 1447 3.3 1419.2 14.2C1391.3 25 1363.7 50 1335.8 53.5C1308 57 1280 39 1252.2 26.5C1224.3 14 1196.7 7 1168.8 3.5C1141 0 1113 0 1085.2 10.7C1057.3 21.3 1029.7 42.7 1001.8 53.3C974 64 946 64 918.2 65.8C890.3 67.7 862.7 71.3 834.8 65.8C807 60.3 779 45.7 751.2 40.2C723.3 34.7 695.7 38.3 667.8 38.3C640 38.3 612 34.7 584.2 38.3C556.3 42 528.7 53 500.8 49.5C473 46 445 28 417.2 20.8C389.3 13.7 361.7 17.3 333.8 15.7C306 14 278 7 250.2 7C222.3 7 194.7 14 166.8 17.5C139 21 111 21 83.2 28.2C55.3 35.3 27.7 49.7 13.8 56.8L0 64Z" fill="#42437a"></path><path d="M0 455L13.8 404.5C27.7 354 55.3 253 83.2 229.5C111 206 139 260 166.8 296C194.7 332 222.3 350 250.2 373.5C278 397 306 426 333.8 433.2C361.7 440.3 389.3 425.7 417.2 387.8C445 350 473 289 500.8 272.8C528.7 256.7 556.3 285.3 584.2 290.7C612 296 640 278 667.8 269C695.7 260 723.3 260 751.2 263.7C779 267.3 807 274.7 834.8 289.2C862.7 303.7 890.3 325.3 918.2 318.2C946 311 974 275 1001.8 300.2C1029.7 325.3 1057.3 411.7 1085.2 413.3C1113 415 1141 332 1168.8 312.2C1196.7 292.3 1224.3 335.7 1252.2 352C1280 368.3 1308 357.7 1335.8 364.8C1363.7 372 1391.3 397 1419.2 364.5C1447 332 1475 242 1502.8 200.7C1530.7 159.3 1558.3 166.7 1586.2 233.3C1614 300 1642 426 1669.8 472.8C1697.7 519.7 1725.3 487.3 1753.2 458.5C1781 429.7 1809 404.3 1836.8 404.3C1864.7 404.3 1892.3 429.7 1906.2 442.3L1920 455L1920 150L1906.2 144.7C1892.3 139.3 1864.7 128.7 1836.8 126.8C1809 125 1781 132 1753.2 146.3C1725.3 160.7 1697.7 182.3 1669.8 186C1642 189.7 1614 175.3 1586.2 148.3C1558.3 121.3 1530.7 81.7 1502.8 63.7C1475 45.7 1447 49.3 1419.2 63.8C1391.3 78.3 1363.7 103.7 1335.8 110.8C1308 118 1280 107 1252.2 89C1224.3 71 1196.7 46 1168.8 44.2C1141 42.3 1113 63.7 1085.2 78C1057.3 92.3 1029.7 99.7 1001.8 121.3C974 143 946 179 918.2 175.3C890.3 171.7 862.7 128.3 834.8 112.2C807 96 779 107 751.2 107C723.3 107 695.7 96 667.8 99.5C640 103 612 121 584.2 119.3C556.3 117.7 528.7 96.3 500.8 83.8C473 71.3 445 67.7 417.2 87.3C389.3 107 361.7 150 333.8 164.3C306 178.7 278 164.3 250.2 142.8C222.3 121.3 194.7 92.7 166.8 80.2C139 67.7 111 71.3 83.2 89.3C55.3 107.3 27.7 139.7 13.8 155.8L0 172Z" fill="#854586"></path><path d="M0 509L13.8 458.5C27.7 408 55.3 307 83.2 281.7C111 256.3 139 306.7 166.8 340.8C194.7 375 222.3 393 250.2 409.3C278 425.7 306 440.3 333.8 456.7C361.7 473 389.3 491 417.2 467.5C445 444 473 379 500.8 361C528.7 343 556.3 372 584.2 372C612 372 640 343 667.8 337.5C695.7 332 723.3 350 751.2 355.5C779 361 807 354 834.8 363C862.7 372 890.3 397 918.2 395.2C946 393.3 974 364.7 1001.8 391.7C1029.7 418.7 1057.3 501.3 1085.2 501.3C1113 501.3 1141 418.7 1168.8 404.3C1196.7 390 1224.3 444 1252.2 453C1280 462 1308 426 1335.8 413.3C1363.7 400.7 1391.3 411.3 1419.2 373.5C1447 335.7 1475 249.3 1502.8 209.8C1530.7 170.3 1558.3 177.7 1586.2 255C1614 332.3 1642 479.7 1669.8 537.2C1697.7 594.7 1725.3 562.3 1753.2 521C1781 479.7 1809 429.3 1836.8 420.3C1864.7 411.3 1892.3 443.7 1906.2 459.8L1920 476L1920 453L1906.2 440.3C1892.3 427.7 1864.7 402.3 1836.8 402.3C1809 402.3 1781 427.7 1753.2 456.5C1725.3 485.3 1697.7 517.7 1669.8 470.8C1642 424 1614 298 1586.2 231.3C1558.3 164.7 1530.7 157.3 1502.8 198.7C1475 240 1447 330 1419.2 362.5C1391.3 395 1363.7 370 1335.8 362.8C1308 355.7 1280 366.3 1252.2 350C1224.3 333.7 1196.7 290.3 1168.8 310.2C1141 330 1113 413 1085.2 411.3C1057.3 409.7 1029.7 323.3 1001.8 298.2C974 273 946 309 918.2 316.2C890.3 323.3 862.7 301.7 834.8 287.2C807 272.7 779 265.3 751.2 261.7C723.3 258 695.7 258 667.8 267C640 276 612 294 584.2 288.7C556.3 283.3 528.7 254.7 500.8 270.8C473 287 445 348 417.2 385.8C389.3 423.7 361.7 438.3 333.8 431.2C306 424 278 395 250.2 371.5C222.3 348 194.7 330 166.8 294C139 258 111 204 83.2 227.5C55.3 251 27.7 352 13.8 402.5L0 453Z" fill="#c24378"></path><path d="M0 573L13.8 540.7C27.7 508.3 55.3 443.7 83.2 434.7C111 425.7 139 472.3 166.8 506.5C194.7 540.7 222.3 562.3 250.2 576.8C278 591.3 306 598.7 333.8 600.5C361.7 602.3 389.3 598.7 417.2 559C445 519.3 473 443.7 500.8 427.5C528.7 411.3 556.3 454.7 584.2 472.7C612 490.7 640 483.3 667.8 486.8C695.7 490.3 723.3 504.7 751.2 484.8C779 465 807 411 834.8 409.3C862.7 407.7 890.3 458.3 918.2 505.2C946 552 974 595 1001.8 611.2C1029.7 627.3 1057.3 616.7 1085.2 582.5C1113 548.3 1141 490.7 1168.8 499.7C1196.7 508.7 1224.3 584.3 1252.2 579C1280 573.7 1308 487.3 1335.8 481.8C1363.7 476.3 1391.3 551.7 1419.2 533.7C1447 515.7 1475 404.3 1502.8 355.8C1530.7 307.3 1558.3 321.7 1586.2 382.8C1614 444 1642 552 1669.8 591.5C1697.7 631 1725.3 602 1753.2 593C1781 584 1809 595 1836.8 604C1864.7 613 1892.3 620 1906.2 623.5L1920 627L1920 474L1906.2 457.8C1892.3 441.7 1864.7 409.3 1836.8 418.3C1809 427.3 1781 477.7 1753.2 519C1725.3 560.3 1697.7 592.7 1669.8 535.2C1642 477.7 1614 330.3 1586.2 253C1558.3 175.7 1530.7 168.3 1502.8 207.8C1475 247.3 1447 333.7 1419.2 371.5C1391.3 409.3 1363.7 398.7 1335.8 411.3C1308 424 1280 460 1252.2 451C1224.3 442 1196.7 388 1168.8 402.3C1141 416.7 1113 499.3 1085.2 499.3C1057.3 499.3 1029.7 416.7 1001.8 389.7C974 362.7 946 391.3 918.2 393.2C890.3 395 862.7 370 834.8 361C807 352 779 359 751.2 353.5C723.3 348 695.7 330 667.8 335.5C640 341 612 370 584.2 370C556.3 370 528.7 341 500.8 359C473 377 445 442 417.2 465.5C389.3 489 361.7 471 333.8 454.7C306 438.3 278 423.7 250.2 407.3C222.3 391 194.7 373 166.8 338.8C139 304.7 111 254.3 83.2 279.7C55.3 305 27.7 406 13.8 456.5L0 507Z" fill="#ea5556"></path><path d="M0 671L13.8 644C27.7 617 55.3 563 83.2 561.2C111 559.3 139 609.7 166.8 633C194.7 656.3 222.3 652.7 250.2 663.5C278 674.3 306 699.7 333.8 696C361.7 692.3 389.3 659.7 417.2 623.7C445 587.7 473 548.3 500.8 552C528.7 555.7 556.3 602.3 584.2 604C612 605.7 640 562.3 667.8 544.3C695.7 526.3 723.3 533.7 751.2 526.5C779 519.3 807 497.7 834.8 510.3C862.7 523 890.3 570 918.2 600.7C946 631.3 974 645.7 1001.8 654.7C1029.7 663.7 1057.3 667.3 1085.2 649.3C1113 631.3 1141 591.7 1168.8 595.2C1196.7 598.7 1224.3 645.3 1252.2 634.5C1280 623.7 1308 555.3 1335.8 566.2C1363.7 577 1391.3 667 1419.2 659.8C1447 652.7 1475 548.3 1502.8 489C1530.7 429.7 1558.3 415.3 1586.2 453.2C1614 491 1642 581 1669.8 617C1697.7 653 1725.3 635 1753.2 644C1781 653 1809 689 1836.8 692.5C1864.7 696 1892.3 667 1906.2 652.5L1920 638L1920 625L1906.2 621.5C1892.3 618 1864.7 611 1836.8 602C1809 593 1781 582 1753.2 591C1725.3 600 1697.7 629 1669.8 589.5C1642 550 1614 442 1586.2 380.8C1558.3 319.7 1530.7 305.3 1502.8 353.8C1475 402.3 1447 513.7 1419.2 531.7C1391.3 549.7 1363.7 474.3 1335.8 479.8C1308 485.3 1280 571.7 1252.2 577C1224.3 582.3 1196.7 506.7 1168.8 497.7C1141 488.7 1113 546.3 1085.2 580.5C1057.3 614.7 1029.7 625.3 1001.8 609.2C974 593 946 550 918.2 503.2C890.3 456.3 862.7 405.7 834.8 407.3C807 409 779 463 751.2 482.8C723.3 502.7 695.7 488.3 667.8 484.8C640 481.3 612 488.7 584.2 470.7C556.3 452.7 528.7 409.3 500.8 425.5C473 441.7 445 517.3 417.2 557C389.3 596.7 361.7 600.3 333.8 598.5C306 596.7 278 589.3 250.2 574.8C222.3 560.3 194.7 538.7 166.8 504.5C139 470.3 111 423.7 83.2 432.7C55.3 441.7 27.7 506.3 13.8 538.7L0 571Z" fill="#f26444"></path><path d="M0 681L13.8 663C27.7 645 55.3 609 83.2 619.8C111 630.7 139 688.3 166.8 708.2C194.7 728 222.3 710 250.2 710C278 710 306 728 333.8 729.8C361.7 731.7 389.3 717.3 417.2 686.8C445 656.3 473 609.7 500.8 602.5C528.7 595.3 556.3 627.7 584.2 627.7C612 627.7 640 595.3 667.8 575.5C695.7 555.7 723.3 548.3 751.2 541C779 533.7 807 526.3 834.8 539C862.7 551.7 890.3 584.3 918.2 616.8C946 649.3 974 681.7 1001.8 694.2C1029.7 706.7 1057.3 699.3 1085.2 677.7C1113 656 1141 620 1168.8 623.7C1196.7 627.3 1224.3 670.7 1252.2 667.2C1280 663.7 1308 613.3 1335.8 633.2C1363.7 653 1391.3 743 1419.2 737.5C1447 732 1475 631 1502.8 568C1530.7 505 1558.3 480 1586.2 507C1614 534 1642 613 1669.8 643.5C1697.7 674 1725.3 656 1753.2 674C1781 692 1809 746 1836.8 747.8C1864.7 749.7 1892.3 699.3 1906.2 674.2L1920 649L1920 636L1906.2 650.5C1892.3 665 1864.7 694 1836.8 690.5C1809 687 1781 651 1753.2 642C1725.3 633 1697.7 651 1669.8 615C1642 579 1614 489 1586.2 451.2C1558.3 413.3 1530.7 427.7 1502.8 487C1475 546.3 1447 650.7 1419.2 657.8C1391.3 665 1363.7 575 1335.8 564.2C1308 553.3 1280 621.7 1252.2 632.5C1224.3 643.3 1196.7 596.7 1168.8 593.2C1141 589.7 1113 629.3 1085.2 647.3C1057.3 665.3 1029.7 661.7 1001.8 652.7C974 643.7 946 629.3 918.2 598.7C890.3 568 862.7 521 834.8 508.3C807 495.7 779 517.3 751.2 524.5C723.3 531.7 695.7 524.3 667.8 542.3C640 560.3 612 603.7 584.2 602C556.3 600.3 528.7 553.7 500.8 550C473 546.3 445 585.7 417.2 621.7C389.3 657.7 361.7 690.3 333.8 694C306 697.7 278 672.3 250.2 661.5C222.3 650.7 194.7 654.3 166.8 631C139 607.7 111 557.3 83.2 559.2C55.3 561 27.7 615 13.8 642L0 669Z" fill="#f26444"></path><path d="M0 768L13.8 742.8C27.7 717.7 55.3 667.3 83.2 676.3C111 685.3 139 753.7 166.8 780.7C194.7 807.7 222.3 793.3 250.2 786.2C278 779 306 779 333.8 777.2C361.7 775.3 389.3 771.7 417.2 741C445 710.3 473 652.7 500.8 640C528.7 627.3 556.3 659.7 584.2 659.7C612 659.7 640 627.3 667.8 607.5C695.7 587.7 723.3 580.3 751.2 578.5C779 576.7 807 580.3 834.8 593C862.7 605.7 890.3 627.3 918.2 663.3C946 699.3 974 749.7 1001.8 762.3C1029.7 775 1057.3 750 1085.2 724.8C1113 699.7 1141 674.3 1168.8 676C1196.7 677.7 1224.3 706.3 1252.2 704.5C1280 702.7 1308 670.3 1335.8 688.3C1363.7 706.3 1391.3 774.7 1419.2 767.5C1447 760.3 1475 677.7 1502.8 616.5C1530.7 555.3 1558.3 515.7 1586.2 540.8C1614 566 1642 656 1669.8 695.7C1697.7 735.3 1725.3 724.7 1753.2 739.2C1781 753.7 1809 793.3 1836.8 789.7C1864.7 786 1892.3 739 1906.2 715.5L1920 692L1920 647L1906.2 672.2C1892.3 697.3 1864.7 747.7 1836.8 745.8C1809 744 1781 690 1753.2 672C1725.3 654 1697.7 672 1669.8 641.5C1642 611 1614 532 1586.2 505C1558.3 478 1530.7 503 1502.8 566C1475 629 1447 730 1419.2 735.5C1391.3 741 1363.7 651 1335.8 631.2C1308 611.3 1280 661.7 1252.2 665.2C1224.3 668.7 1196.7 625.3 1168.8 621.7C1141 618 1113 654 1085.2 675.7C1057.3 697.3 1029.7 704.7 1001.8 692.2C974 679.7 946 647.3 918.2 614.8C890.3 582.3 862.7 549.7 834.8 537C807 524.3 779 531.7 751.2 539C723.3 546.3 695.7 553.7 667.8 573.5C640 593.3 612 625.7 584.2 625.7C556.3 625.7 528.7 593.3 500.8 600.5C473 607.7 445 654.3 417.2 684.8C389.3 715.3 361.7 729.7 333.8 727.8C306 726 278 708 250.2 708C222.3 708 194.7 726 166.8 706.2C139 686.3 111 628.7 83.2 617.8C55.3 607 27.7 643 13.8 661L0 679Z" fill="#ea5556"></path><path d="M0 854L13.8 825.2C27.7 796.3 55.3 738.7 83.2 736.8C111 735 139 789 166.8 807C194.7 825 222.3 807 250.2 796.3C278 785.7 306 782.3 333.8 793.2C361.7 804 389.3 829 417.2 812.7C445 796.3 473 738.7 500.8 724.3C528.7 710 556.3 739 584.2 731.8C612 724.7 640 681.3 667.8 659.7C695.7 638 723.3 638 751.2 638C779 638 807 638 834.8 643.5C862.7 649 890.3 660 918.2 690.7C946 721.3 974 771.7 1001.8 784.2C1029.7 796.7 1057.3 771.3 1085.2 747.8C1113 724.3 1141 702.7 1168.8 717.2C1196.7 731.7 1224.3 782.3 1252.2 789.7C1280 797 1308 761 1335.8 770C1363.7 779 1391.3 833 1419.2 824C1447 815 1475 743 1502.8 676.3C1530.7 609.7 1558.3 548.3 1586.2 566.3C1614 584.3 1642 681.7 1669.8 728.5C1697.7 775.3 1725.3 771.7 1753.2 789.7C1781 807.7 1809 847.3 1836.8 845.5C1864.7 843.7 1892.3 800.3 1906.2 778.7L1920 757L1920 690L1906.2 713.5C1892.3 737 1864.7 784 1836.8 787.7C1809 791.3 1781 751.7 1753.2 737.2C1725.3 722.7 1697.7 733.3 1669.8 693.7C1642 654 1614 564 1586.2 538.8C1558.3 513.7 1530.7 553.3 1502.8 614.5C1475 675.7 1447 758.3 1419.2 765.5C1391.3 772.7 1363.7 704.3 1335.8 686.3C1308 668.3 1280 700.7 1252.2 702.5C1224.3 704.3 1196.7 675.7 1168.8 674C1141 672.3 1113 697.7 1085.2 722.8C1057.3 748 1029.7 773 1001.8 760.3C974 747.7 946 697.3 918.2 661.3C890.3 625.3 862.7 603.7 834.8 591C807 578.3 779 574.7 751.2 576.5C723.3 578.3 695.7 585.7 667.8 605.5C640 625.3 612 657.7 584.2 657.7C556.3 657.7 528.7 625.3 500.8 638C473 650.7 445 708.3 417.2 739C389.3 769.7 361.7 773.3 333.8 775.2C306 777 278 777 250.2 784.2C222.3 791.3 194.7 805.7 166.8 778.7C139 751.7 111 683.3 83.2 674.3C55.3 665.3 27.7 715.7 13.8 740.8L0 766Z" fill="#c24378"></path><path d="M0 908L13.8 902.7C27.7 897.3 55.3 886.7 83.2 897.5C111 908.3 139 940.7 166.8 958.7C194.7 976.7 222.3 980.3 250.2 953.3C278 926.3 306 868.7 333.8 861.5C361.7 854.3 389.3 897.7 417.2 928.3C445 959 473 977 500.8 977C528.7 977 556.3 959 584.2 941C612 923 640 905 667.8 897.7C695.7 890.3 723.3 893.7 751.2 920.7C779 947.7 807 998.3 834.8 1016.3C862.7 1034.3 890.3 1019.7 918.2 1016C946 1012.3 974 1019.7 1001.8 987.3C1029.7 955 1057.3 883 1085.2 877.7C1113 872.3 1141 933.7 1168.8 960.7C1196.7 987.7 1224.3 980.3 1252.2 982C1280 983.7 1308 994.3 1335.8 985.3C1363.7 976.3 1391.3 947.7 1419.2 920.7C1447 893.7 1475 868.3 1502.8 872C1530.7 875.7 1558.3 908.3 1586.2 937.2C1614 966 1642 991 1669.8 985.5C1697.7 980 1725.3 944 1753.2 933.2C1781 922.3 1809 936.7 1836.8 958.3C1864.7 980 1892.3 1009 1906.2 1023.5L1920 1038L1920 755L1906.2 776.7C1892.3 798.3 1864.7 841.7 1836.8 843.5C1809 845.3 1781 805.7 1753.2 787.7C1725.3 769.7 1697.7 773.3 1669.8 726.5C1642 679.7 1614 582.3 1586.2 564.3C1558.3 546.3 1530.7 607.7 1502.8 674.3C1475 741 1447 813 1419.2 822C1391.3 831 1363.7 777 1335.8 768C1308 759 1280 795 1252.2 787.7C1224.3 780.3 1196.7 729.7 1168.8 715.2C1141 700.7 1113 722.3 1085.2 745.8C1057.3 769.3 1029.7 794.7 1001.8 782.2C974 769.7 946 719.3 918.2 688.7C890.3 658 862.7 647 834.8 641.5C807 636 779 636 751.2 636C723.3 636 695.7 636 667.8 657.7C640 679.3 612 722.7 584.2 729.8C556.3 737 528.7 708 500.8 722.3C473 736.7 445 794.3 417.2 810.7C389.3 827 361.7 802 333.8 791.2C306 780.3 278 783.7 250.2 794.3C222.3 805 194.7 823 166.8 805C139 787 111 733 83.2 734.8C55.3 736.7 27.7 794.3 13.8 823.2L0 852Z" fill="#854586"></path><path d="M0 995L13.8 986C27.7 977 55.3 959 83.2 957.2C111 955.3 139 969.7 166.8 976.8C194.7 984 222.3 984 250.2 966C278 948 306 912 333.8 912C361.7 912 389.3 948 417.2 982.2C445 1016.3 473 1048.7 500.8 1041.5C528.7 1034.3 556.3 987.7 584.2 969.7C612 951.7 640 962.3 667.8 962.3C695.7 962.3 723.3 951.7 751.2 969.7C779 987.7 807 1034.3 834.8 1045C862.7 1055.7 890.3 1030.3 918.2 1021.3C946 1012.3 974 1019.7 1001.8 1009C1029.7 998.3 1057.3 969.7 1085.2 973.3C1113 977 1141 1013 1168.8 1032.7C1196.7 1052.3 1224.3 1055.7 1252.2 1055.7C1280 1055.7 1308 1052.3 1335.8 1041.7C1363.7 1031 1391.3 1013 1419.2 993.2C1447 973.3 1475 951.7 1502.8 955.2C1530.7 958.7 1558.3 987.3 1586.2 1005.3C1614 1023.3 1642 1030.7 1669.8 1025.3C1697.7 1020 1725.3 1002 1753.2 993C1781 984 1809 984 1836.8 1000.2C1864.7 1016.3 1892.3 1048.7 1906.2 1064.8L1920 1081L1920 1036L1906.2 1021.5C1892.3 1007 1864.7 978 1836.8 956.3C1809 934.7 1781 920.3 1753.2 931.2C1725.3 942 1697.7 978 1669.8 983.5C1642 989 1614 964 1586.2 935.2C1558.3 906.3 1530.7 873.7 1502.8 870C1475 866.3 1447 891.7 1419.2 918.7C1391.3 945.7 1363.7 974.3 1335.8 983.3C1308 992.3 1280 981.7 1252.2 980C1224.3 978.3 1196.7 985.7 1168.8 958.7C1141 931.7 1113 870.3 1085.2 875.7C1057.3 881 1029.7 953 1001.8 985.3C974 1017.7 946 1010.3 918.2 1014C890.3 1017.7 862.7 1032.3 834.8 1014.3C807 996.3 779 945.7 751.2 918.7C723.3 891.7 695.7 888.3 667.8 895.7C640 903 612 921 584.2 939C556.3 957 528.7 975 500.8 975C473 975 445 957 417.2 926.3C389.3 895.7 361.7 852.3 333.8 859.5C306 866.7 278 924.3 250.2 951.3C222.3 978.3 194.7 974.7 166.8 956.7C139 938.7 111 906.3 83.2 895.5C55.3 884.7 27.7 895.3 13.8 900.7L0 906Z" fill="#42437a"></path><path d="M0 1081L13.8 1081C27.7 1081 55.3 1081 83.2 1081C111 1081 139 1081 166.8 1081C194.7 1081 222.3 1081 250.2 1081C278 1081 306 1081 333.8 1081C361.7 1081 389.3 1081 417.2 1081C445 1081 473 1081 500.8 1081C528.7 1081 556.3 1081 584.2 1081C612 1081 640 1081 667.8 1081C695.7 1081 723.3 1081 751.2 1081C779 1081 807 1081 834.8 1081C862.7 1081 890.3 1081 918.2 1081C946 1081 974 1081 1001.8 1081C1029.7 1081 1057.3 1081 1085.2 1081C1113 1081 1141 1081 1168.8 1081C1196.7 1081 1224.3 1081 1252.2 1081C1280 1081 1308 1081 1335.8 1081C1363.7 1081 1391.3 1081 1419.2 1081C1447 1081 1475 1081 1502.8 1081C1530.7 1081 1558.3 1081 1586.2 1081C1614 1081 1642 1081 1669.8 1081C1697.7 1081 1725.3 1081 1753.2 1081C1781 1081 1809 1081 1836.8 1081C1864.7 1081 1892.3 1081 1906.2 1081L1920 1081L1920 1079L1906.2 1062.8C1892.3 1046.7 1864.7 1014.3 1836.8 998.2C1809 982 1781 982 1753.2 991C1725.3 1000 1697.7 1018 1669.8 1023.3C1642 1028.7 1614 1021.3 1586.2 1003.3C1558.3 985.3 1530.7 956.7 1502.8 953.2C1475 949.7 1447 971.3 1419.2 991.2C1391.3 1011 1363.7 1029 1335.8 1039.7C1308 1050.3 1280 1053.7 1252.2 1053.7C1224.3 1053.7 1196.7 1050.3 1168.8 1030.7C1141 1011 1113 975 1085.2 971.3C1057.3 967.7 1029.7 996.3 1001.8 1007C974 1017.7 946 1010.3 918.2 1019.3C890.3 1028.3 862.7 1053.7 834.8 1043C807 1032.3 779 985.7 751.2 967.7C723.3 949.7 695.7 960.3 667.8 960.3C640 960.3 612 949.7 584.2 967.7C556.3 985.7 528.7 1032.3 500.8 1039.5C473 1046.7 445 1014.3 417.2 980.2C389.3 946 361.7 910 333.8 910C306 910 278 946 250.2 964C222.3 982 194.7 982 166.8 974.8C139 967.7 111 953.3 83.2 955.2C55.3 957 27.7 975 13.8 984L0 993Z" fill="#023859"></path></svg>